<?xml version="1.0" encoding="UTF-8"?>
<svg width="30px" height="28px" viewBox="0 0 30 28" version="1.1" xmlns="http://www.w3.org/2000/svg" xmlns:xlink="http://www.w3.org/1999/xlink">
    <title>5E3222BC-1633-41F2-9AF8-F7C69E4513D9</title>
    <g id="Dark" stroke="none" stroke-width="1" fill="none" fill-rule="evenodd">
        <g id="Assets" transform="translate(-458.000000, -75.000000)">
            <g id="logo_metamask" transform="translate(458.000000, 75.000000)">
                <g id="metamask-recreated" transform="translate(0.079599, 0.083333)">
                    <polygon id="Path-16" fill="#CDBDB2" points="8.51709918 25.5833337 12.417453 26.6666671 12.417453 25.2500004 12.7358492 24.916667 14.9646229 24.916667 14.9646229 26.5833337 14.9646229 27.7500004 12.5766511 27.7500004 9.63148599 26.4166671"></polygon>
                    <polygon id="Path-16-Copy" fill="#CDBDB2" transform="translate(18.068986, 26.333334) scale(-1, 1) translate(-18.068986, -26.333334) " points="14.8850238 25.5833337 18.7057786 26.6666671 18.7057786 25.2500004 19.0241748 24.916667 21.2529484 24.916667 21.2529484 26.5833337 21.2529484 27.7500004 18.8649767 27.7500004 15.9198116 26.4166671"></polygon>
                    <polygon id="Path-17" fill="#393939" points="12.7358492 22.5000003 12.417453 25.2500004 12.8154483 24.916667 16.9545993 24.916667 17.4321937 25.2500004 17.1137974 22.5000003 16.477005 22.0833337 13.2930427 22.166667"></polygon>
                    <polygon id="Path-20" fill="#F89C35" points="10.5866747 3.91666673 12.4970521 8.58333346 13.3726417 22.166667 16.477005 22.166667 17.4321937 8.58333346 19.1833729 3.91666673"></polygon>
                    <g id="face/left">
                        <polygon id="Path-15" fill="#F89D35" points="2.22877362 14.1666669 0 20.916667 5.57193405 20.5833336 9.15389165 20.5833336 9.15389165 17.6666669 8.99469353 11.6666668 8.19870295 12.3333335"></polygon>
                        <polygon id="Path-8" fill="#D87C30" points="6.44752368 14.9166669 12.9746464 15.0833336 12.2582549 18.5833336 9.15389165 17.7500003"></polygon>
                        <polygon id="Path-9" fill="#EA8D3A" points="6.44752368 15.0000002 9.15389165 17.6666669 9.15389165 20.3333336"></polygon>
                        <polygon id="Path-10" fill="#F89D35" points="9.15389165 17.7500003 12.337854 18.5833336 13.3726417 22.166667 12.6562502 22.5833337 9.15389165 20.416667"></polygon>
                        <polygon id="Path-11" fill="#EB8F35" points="9.15389165 20.416667 8.51709918 25.5833337 12.7358492 22.5000003"></polygon>
                        <polygon id="Path-12" fill="#EA8E3A" points="12.9746464 15.0833336 13.3726417 22.166667 12.1786558 18.5416669"></polygon>
                        <polygon id="Path-13" fill="#D87C30" points="5.49233499 20.5000003 9.15389165 20.416667 8.51709918 25.5833337"></polygon>
                        <polygon id="Path-14" fill="#EB8F35" points="1.75117927 27.8333337 8.51709918 25.5833337 5.49233499 20.5000003 0 20.916667"></polygon>
                        <polygon id="Path-7" fill="#E8821E" points="12.4970521 8.58333346 9.07429259 11.5833335 6.44752368 14.9166669 12.9746464 15.1666669"></polygon>
                        <polygon id="Path-18" fill="#DFCEC3" points="8.51709918 25.5833337 12.7358492 22.5000003 12.417453 25.166667 12.417453 26.6666671 9.55188693 26.0833337"></polygon>
                        <polygon id="Path-18-Copy" fill="#DFCEC3" transform="translate(19.183373, 24.583334) scale(-1, 1) translate(-19.183373, -24.583334) " points="17.1137974 25.5833337 21.2529484 22.5000003 20.9345522 25.166667 20.9345522 26.6666671 18.0689861 26.0833337"></polygon>
                        <polygon id="Path-19-Copy" fill="#393939" transform="translate(10.546875, 17.541667) scale(-1, 1) translate(-10.546875, -17.541667) " points="9.87028317 16.5833336 8.99469353 18.5000003 12.0990568 17.6666669"></polygon>
                        <polygon id="Path-21" fill="#E88F35" points="1.67158021 8.32256075e-16 12.4970521 8.58333346 10.6662737 3.91666673"></polygon>
                        <path d="M1.67158021,8.32256075e-16 L0.238797173,4.5833334 L1.03478775,9.58333348 L0.477594347,9.91666681 L1.27358492,10.6666668 L0.636792462,11.2500002 L1.5123821,12.0833335 L0.955188693,12.5833335 L2.22877362,14.2500002 L8.19870295,12.3333335 C11.1173351,9.88888904 12.5501181,8.63888902 12.4970521,8.58333346 C12.443986,8.52777782 8.83549541,5.66666667 1.67158021,8.32256075e-16 Z" id="Path-22" fill="#8E5A30"></path>
                    </g>
                    <g id="face/left-copy" transform="translate(23.083727, 13.916667) scale(-1, 1) translate(-23.083727, -13.916667) translate(16.397406, 0.000000)">
                        <polygon id="Path-15" fill="#F89D35" points="2.22877362 14.1666669 0 20.916667 5.57193405 20.5833336 9.15389165 20.5833336 9.15389165 17.6666669 8.99469353 11.6666668 8.19870295 12.3333335"></polygon>
                        <polygon id="Path-8" fill="#D87C30" points="6.44752368 14.9166669 12.9746464 15.0833336 12.2582549 18.5833336 9.15389165 17.7500003"></polygon>
                        <polygon id="Path-9" fill="#EA8D3A" points="6.44752368 15.0000002 9.15389165 17.6666669 9.15389165 20.3333336"></polygon>
                        <polygon id="Path-10" fill="#F89D35" points="9.15389165 17.7500003 12.337854 18.5833336 13.3726417 22.166667 12.6562502 22.5833337 9.15389165 20.416667"></polygon>
                        <polygon id="Path-11" fill="#EB8F35" points="9.15389165 20.416667 8.51709918 25.5833337 12.6562502 22.5833337"></polygon>
                        <polygon id="Path-12" fill="#EA8E3A" points="12.9746464 15.0833336 13.3726417 22.166667 12.1786558 18.5416669"></polygon>
                        <polygon id="Path-13" fill="#D87C30" points="5.49233499 20.5000003 9.15389165 20.416667 8.51709918 25.5833337"></polygon>
                        <polygon id="Path-14" fill="#EB8F35" points="1.75117927 27.8333337 8.51709918 25.5833337 5.49233499 20.5000003 0 20.916667"></polygon>
                        <polygon id="Path-7" fill="#E8821E" points="12.4970521 8.58333346 9.07429259 11.5833335 6.44752368 14.9166669 12.9746464 15.1666669"></polygon>
                        <polygon id="Path-19-Copy" fill="#393939" transform="translate(10.546875, 17.541667) scale(-1, 1) translate(-10.546875, -17.541667) " points="9.87028317 16.5833336 8.99469353 18.5000003 12.0990568 17.6666669"></polygon>
                        <polygon id="Path-21" fill="#E88F35" points="1.67158021 8.32256075e-16 12.4970521 8.58333346 10.6662737 3.91666673"></polygon>
                        <path d="M1.67158021,8.32256075e-16 L0.238797173,4.5833334 L1.03478775,9.58333348 L0.477594347,9.91666681 L1.27358492,10.6666668 L0.636792462,11.2500002 L1.5123821,12.0833335 L0.955188693,12.5833335 L2.22877362,14.2500002 L8.19870295,12.3333335 C11.1173351,9.88888904 12.5501181,8.63888902 12.4970521,8.58333346 C12.443986,8.52777782 8.83549541,5.66666667 1.67158021,8.32256075e-16 Z" id="Path-22" fill="#8E5A30"></path>
                    </g>
                </g>
            </g>
        </g>
    </g>
</svg>