<?xml version="1.0" encoding="UTF-8"?>
<svg width="200px" height="98px" viewBox="0 0 200 98" version="1.1" xmlns="http://www.w3.org/2000/svg" xmlns:xlink="http://www.w3.org/1999/xlink">
    <title>CDBFDB2E-56F1-4E1C-BE5A-90147A0A7C61</title>
    <defs>
        <polygon id="path-1" points="0 0 200 0 200 98 0 98"></polygon>
    </defs>
    <g id="Dark" stroke="none" stroke-width="1" fill="none" fill-rule="evenodd">
        <g id="Assets" transform="translate(-57.000000, -40.000000)">
            <g id="Group-110" transform="translate(57.000000, 40.000000)">
                <g id="Group-3">
                    <mask id="mask-2" fill="white">
                        <use xlink:href="#path-1"></use>
                    </mask>
                    <g id="Clip-2"></g>
                    <path d="M97.9213924,27.9047558 C97.9777215,27.9110574 98.0346835,27.9167288 98.0935443,27.9167288 C98.2353165,27.9167288 98.4062025,27.8688366 98.6049367,27.7749428 C98.5555696,27.7352427 98.5118987,27.7018442 98.4726582,27.6715965 C98.3707595,27.6665552 98.245443,27.6627742 98.0935443,27.6627742 C97.903038,27.6627742 97.8821519,27.6760076 97.7637975,27.7497364 C97.7441772,27.7617094 97.7239241,27.7755729 97.7024051,27.7894365 C97.724557,27.8051905 97.7473418,27.819054 97.7682278,27.8329175 C97.8555696,27.8871113 97.8916456,27.8997145 97.9213924,27.9047558 L97.9213924,27.9047558 Z M156.923291,69.5848144 L157.892911,69.5848144 L157.892911,55.2240927 L156.923291,55.2240927 L156.923291,69.5848144 Z M54.0093671,70.3454178 C54.1321519,70.3573909 54.2562025,70.3687338 54.3840506,70.3687338 C54.5074684,70.3687338 54.6264557,70.3573909 54.7435443,70.346048 C54.795443,70.3391162 54.8441772,70.3309241 54.8903797,70.3214717 C54.7606329,70.2981558 54.5941772,70.2824018 54.3840506,70.2824018 C54.1707595,70.2824018 54.0024051,70.298786 53.8726582,70.3227321 C53.9137975,70.3309241 53.9593671,70.3384861 54.0093671,70.3454178 L54.0093671,70.3454178 Z M89.4865823,70.3454178 C89.6093671,70.3573909 89.7327848,70.3687338 89.8612658,70.3687338 C89.9897468,70.3687338 90.1137975,70.3573909 90.2359494,70.3454178 C90.2865823,70.3384861 90.3321519,70.3309241 90.3732911,70.3227321 C90.2422785,70.298786 90.074557,70.2824018 89.8612658,70.2824018 C89.6473418,70.2824018 89.4796203,70.298786 89.3492405,70.3227321 C89.3903797,70.3309241 89.4359494,70.3384861 89.4865823,70.3454178 L89.4865823,70.3454178 Z M89.8612658,98 C85.0694937,98 80.6618987,96.890918 76.76,94.7023715 C75.06,93.748939 73.5055696,92.6196919 72.1081013,91.3259729 C70.7175949,92.6146506 69.1732911,93.7401168 67.4872152,94.6910286 C63.5922785,96.887137 59.1834177,98 54.3840506,98 C49.5929114,98 45.1846835,96.890918 41.2834177,94.7023715 C39.5429114,93.7262532 37.9549367,92.5654981 36.5321519,91.2314489 C35.2264557,92.4085882 33.7853165,93.4452018 32.2182278,94.3318372 C28.3739241,96.5058901 24.0283544,97.6080403 19.3011392,97.6080403 L12.174557,97.6080403 C8.90873418,97.6080403 5.84670886,96.3489802 3.55303797,94.0627588 C1.26189873,91.7822089 -0.000126582278,88.7360143 -0.000126582278,85.4869081 L-0.000126582278,55.1648576 C-0.000126582278,52.0720312 1.12139241,49.1858973 3.17202532,46.9620618 C2.29797468,45.7905939 1.57075949,44.5252321 0.997341772,43.1741686 C0.324556962,41.5735616 -0.000126582278,40.0353404 -0.000126582278,38.4586795 C-0.000126582278,38.1562026 0.0144303797,37.8430129 0.0441772152,37.5109185 C0.0144303797,37.182605 -0.000126582278,36.8706757 -0.000126582278,36.5681988 C-0.000126582278,36.2657219 0.0144303797,35.9525322 0.0441772152,35.6204378 C0.0144303797,35.2921243 -0.000126582278,34.980195 -0.000126582278,34.677718 C-0.000126582278,32.3051647 0.724556962,30.0233545 2.06886076,28.0938039 C1.38025316,26.1837882 1.03278481,24.1597135 1.03278481,22.0486767 C1.03278481,21.7096505 1.04481013,21.3744052 1.06379747,21.0416806 C1.04670886,20.7499164 1.03278481,20.4568919 1.03278481,20.1581959 C1.03278481,19.8191697 1.04481013,19.4839245 1.06379747,19.1511999 C1.04670886,18.8594357 1.03278481,18.5664112 1.03278481,18.2677152 C1.03278481,14.2750199 2.24797468,10.7095733 4.64481013,7.67094061 C6.74417722,5.00473263 9.53468354,2.99011034 12.9365823,1.68378816 C15.438481,0.722163636 18.1796203,0.176444867 21.081519,0.0630160241 C21.4562025,0.0472620181 21.8460759,0.0390699349 22.2397468,0.0390699349 C22.7137975,0.0390699349 23.1808861,0.0523033 23.6403797,0.0787700301 C27.181519,0.269078423 30.3897468,1.19541398 33.1631646,2.83257028 C33.288481,2.90692919 33.4137975,2.98254842 33.538481,3.06005813 C35.4156962,1.55901644 37.7239241,0.640242805 40.1606329,0.441742329 C40.4701266,0.412124797 40.8296203,0.395110471 41.1834177,0.395110471 C43.0581013,0.395110471 44.8751899,0.826140076 46.5846835,1.67748656 C48.06,2.41351372 49.3391139,3.39215258 50.3903797,4.58630623 L50.7308861,4.99338975 L51.6840506,6.25560071 C52.2220253,5.36329381 52.8796203,4.53778389 53.6498734,3.79797577 C55.6637975,1.85960287 58.3270886,0.666079374 61.1467089,0.440482008 C61.438481,0.412124797 61.7967089,0.395110471 62.1524051,0.395110471 C62.5055696,0.395110471 62.8656962,0.412124797 63.2220253,0.44552329 C64.9625316,0.586679184 66.6536709,1.11034234 68.1675949,1.96105867 C69.6973418,1.1078217 71.4087342,0.582898223 73.1802532,0.440482008 C73.4720253,0.412124797 73.8296203,0.395110471 74.1859494,0.395110471 C74.5403797,0.395110471 74.9017722,0.411494637 75.26,0.44552329 C78.1036709,0.675531778 80.8068354,1.90749505 82.8251899,3.91140461 C83.0543038,4.13952262 83.2739241,4.37709303 83.4827848,4.62222537 C84.0043038,4.2523213 84.5397468,3.90132205 85.088481,3.57111808 C88.5543038,1.48465753 92.381519,0.300586435 96.4644304,0.0516731397 C96.9859494,0.0176444867 97.5397468,0 98.0935443,0 C101.266962,0 104.177722,0.466318578 106.745443,1.38635253 C107.786582,1.76003755 108.827089,2.22635613 109.858734,2.78089714 C111.951772,1.23322359 114.477722,0.395110471 117.116962,0.395110471 C117.475823,0.395110471 117.839114,0.412754958 118.196709,0.447413771 C120.939114,0.671750817 123.571392,1.85456159 125.581519,3.77970112 C126.603671,2.83130996 127.674557,2.09717328 128.839747,1.54641323 C130.104937,0.950281643 131.466962,0.582898223 132.892911,0.453085213 C133.232785,0.416535919 133.635949,0.395110471 134.035316,0.395110471 C134.397342,0.395110471 134.759367,0.412124797 135.111899,0.44615345 C136.404937,0.556431493 137.656835,0.867730652 138.820759,1.3630366 C140.017595,0.858908408 141.29481,0.545088608 142.601139,0.440482008 C142.892278,0.412124797 143.250506,0.395110471 143.606203,0.395110471 L161.556835,0.395110471 C161.909367,0.395110471 162.265696,0.411494637 162.616329,0.443632809 C163.95557,0.54886957 165.273924,0.877813215 166.506835,1.41092878 C167.735949,0.878443376 169.051772,0.548239409 170.400506,0.440482008 C170.692911,0.412124797 171.050506,0.395110471 171.406203,0.395110471 L178.554937,0.395110471 C178.975823,0.395110471 179.391646,0.406453355 179.804304,0.429769284 C182.94481,0.593610947 185.89481,1.38887317 188.557468,2.79350035 C191.796076,4.50249492 194.362532,6.9531881 196.186582,10.0756321 C197.954304,13.1130044 198.848608,16.5196507 198.848608,20.2048278 C198.848608,20.5066746 198.838481,20.8041102 198.823291,21.1015458 C198.839114,21.4304895 198.848608,21.7613236 198.848608,22.0953085 C198.848608,22.3971553 198.838481,22.6945909 198.823291,22.9920265 C198.839114,23.3209702 198.848608,23.6518043 198.848608,23.9857892 C198.848608,26.6967386 198.328987,29.2589701 197.301139,31.6315234 L198.07519,32.8710486 C199.351772,34.9115075 200.000506,37.1435351 200.000506,39.5015947 C200.000506,39.8040716 199.987215,40.1141104 199.96,40.4424239 C199.987215,40.7738882 200.000506,41.087708 200.000506,41.3920754 C200.000506,41.6945523 199.987215,42.0045912 199.96,42.3329047 C199.987215,42.6643689 200.000506,42.9781887 200.000506,43.2825561 C200.000506,45.3715373 199.471392,47.3741866 198.476456,49.1392654 C199.472025,50.9100157 200.000506,52.9290491 200.000506,55.0470177 C200.000506,55.3545359 199.987215,55.665835 199.961266,55.9897374 C199.987215,56.3167906 200.000506,56.62935 200.000506,56.9374984 C200.000506,57.2450166 199.987215,57.5563157 199.961266,57.8802181 C199.987215,58.2072713 200.000506,58.5198308 200.000506,58.8279791 C200.000506,62.1892538 198.658101,65.2839708 196.220127,67.5430952 C196.004937,67.7422259 195.780886,67.9331644 195.548608,68.1159109 C195.549241,68.1764063 195.549873,68.2375318 195.549873,68.2986574 C195.549873,68.599874 195.536582,68.9124334 195.508734,69.2451581 C195.536582,69.5766223 195.549873,69.8885517 195.549873,70.1891381 C195.549873,70.4903547 195.536582,70.8029142 195.508734,71.1356388 C195.536582,71.4671031 195.549873,71.7790324 195.549873,72.0796188 C195.549873,72.2289668 195.547975,72.3783148 195.542278,72.5276627 C195.772658,72.7104092 195.996076,72.9007176 196.211266,73.1011086 C198.656203,75.3646442 200.000506,78.4618817 200.000506,81.8231565 C200.000506,82.131935 199.987215,82.4444945 199.961266,82.7702873 C199.987215,83.09545 200.000506,83.4067491 200.000506,83.7136372 C200.000506,84.0224157 199.987215,84.3349752 199.961266,84.660768 C199.987215,84.9859307 200.000506,85.2972299 200.000506,85.6041179 C200.000506,88.9181306 198.707468,91.987011 196.36,94.2461354 C194.099241,96.4157772 191.084051,97.6080403 187.865063,97.6080403 L170.067595,97.6080403 C168.511899,97.6080403 166.984684,97.315646 165.559367,96.7522827 C164.134684,97.315646 162.607468,97.6080403 161.051139,97.6080403 L144.749873,97.6080403 C141.417595,97.6080403 138.318861,96.304869 136.02519,93.9379871 C135.854304,93.7621724 135.688481,93.5806862 135.528354,93.3941588 C135.033418,93.7231024 134.52519,94.0356619 134.004304,94.3305769 C130.158734,96.5052599 125.812532,97.6080403 121.085949,97.6080403 L113.958734,97.6080403 C110.69038,97.6080403 107.627089,96.3477198 105.334051,94.059608 C105.160633,93.8869441 104.992278,93.7086088 104.830253,93.5258623 C104.227089,93.9405077 103.604937,94.3293166 102.965063,94.6897683 C99.0694937,96.887137 94.6612658,98 89.8612658,98 L89.8612658,98 Z" id="Fill-1" fill="#FFFFFF" mask="url(#mask-2)"></path>
                </g>
                <path d="M194.850633,34.8679004 L192.949367,31.8242264 C194.338608,29.4838113 195.051266,26.8528923 195.051266,23.9856632 C195.051266,23.650418 195.039241,23.3195838 195.020886,22.99001 C195.037342,22.6938347 195.051266,22.3970292 195.051266,22.0951825 C195.051266,21.7599372 195.039241,21.4291031 195.020886,21.0995293 C195.037342,20.803354 195.051266,20.5065485 195.051266,20.2047018 C195.051266,17.1937961 194.33038,14.4273927 192.90443,11.9766995 C191.442405,9.47370303 189.382278,7.50823324 186.779747,6.13448391 C184.602532,4.98633195 182.188608,4.34041771 179.591139,4.20493325 C179.249367,4.18602845 178.903797,4.17594588 178.555063,4.17594588 L171.406329,4.17594588 C171.170886,4.17594588 170.937342,4.18728877 170.705063,4.20934438 C169.177215,4.33159546 167.736709,4.85903958 166.506962,5.73118136 C165.281013,4.85840942 163.824684,4.3309653 162.267089,4.20871422 C162.032911,4.18728877 161.796203,4.17594588 161.556962,4.17594588 L143.605696,4.17594588 C143.370886,4.17594588 143.137342,4.18728877 142.906329,4.20934438 C141.418354,4.32844466 140.011392,4.83131253 138.8,5.66501453 C137.638608,4.83320301 136.258228,4.33474626 134.767089,4.21186502 C134.525949,4.18728877 134.282278,4.17594588 134.03481,4.17594588 C133.766456,4.17594588 133.501266,4.18980941 133.239873,4.21753646 C132.26962,4.30638905 131.339873,4.55152139 130.468987,4.9617557 C129.546203,5.39782659 128.689241,6.01727411 127.851899,6.85223643 L125.01519,9.67661462 C124.603797,8.53539443 123.941772,7.49121891 123.058861,6.61151521 C121.646835,5.20814836 119.810127,4.37255588 117.828481,4.2106047 C117.593671,4.18728877 117.356329,4.17594588 117.116456,4.17594588 C114.927848,4.17594588 112.850633,5.01531932 111.268354,6.53904679 C110.941772,6.85349675 110.652532,7.19567376 110.385443,7.55045397 C108.767089,6.41553538 107.116456,5.53835232 105.459494,4.94411122 C103.305696,4.17216492 100.827848,3.78083541 98.0936709,3.78083541 C97.6240506,3.78083541 97.1575949,3.7953291 96.6962025,3.82557679 C93.2348101,4.03668047 89.9962025,5.03485429 87.0537975,6.80623473 C85.2917722,7.86679441 83.7278481,9.14538954 82.3582278,10.6161835 C82.0126582,9.09245608 81.2613924,7.70295275 80.1443038,6.58882945 C78.7443038,5.19932611 76.9050633,4.37129556 74.906962,4.20997454 C74.6689873,4.18728877 74.428481,4.17594588 74.185443,4.17594588 C73.95,4.17594588 73.7164557,4.18728877 73.485443,4.20934438 C71.5392405,4.36562412 69.7253165,5.16844826 68.3158228,6.5214023 C68.2613924,6.57433576 68.2139241,6.6323105 68.1607595,6.68650428 C68.1310127,6.65562643 68.1050633,6.62222794 68.0746835,6.59198025 C66.6734177,5.19932611 64.8443038,4.37129556 62.864557,4.20997454 C62.6297468,4.18728877 62.3924051,4.17594588 62.1525316,4.17594588 C61.9170886,4.17594588 61.6835443,4.18728877 61.4518987,4.20934438 C59.5031646,4.36562412 57.6898734,5.16844826 56.2873418,6.5182515 C54.6563291,8.08546002 53.7588608,10.2223334 53.7588608,12.5343913 L53.7588608,14.424872 L53.7588608,15.2944932 L47.75,7.33745981 L47.5341772,7.07783379 C46.8082278,6.25295404 45.9183544,5.57427146 44.8860759,5.05880038 C43.7094937,4.47338152 42.4639241,4.17594588 41.1835443,4.17594588 C40.9436709,4.17594588 40.7056962,4.18728877 40.4708861,4.20997454 C38.4905063,4.37129556 36.6601266,5.20058643 35.2588608,6.59450089 C34.7810127,7.07027187 34.3778481,7.60086679 34.035443,8.16801101 C33.164557,7.37779007 32.2297468,6.6783122 31.2259494,6.08470125 C28.978481,4.75821395 26.3575949,4.0108439 23.4227848,3.85330384 C23.0348101,3.83124823 22.6405063,3.81990535 22.2398734,3.81990535 C21.9006329,3.81990535 21.5639241,3.82683711 21.2303797,3.8413308 C18.7468354,3.93837547 16.4196203,4.39776229 14.3025316,5.21129916 C11.5487342,6.26870804 9.30379747,7.88254842 7.63164557,10.0055583 C5.77278481,12.3623576 4.82974684,15.1419944 4.82974684,18.2675892 C4.82974684,18.5681756 4.85126582,18.8618303 4.86835443,19.1561151 C4.84620253,19.4869493 4.82974684,19.8196739 4.82974684,20.1580699 C4.82974684,20.4586563 4.85126582,20.752311 4.86835443,21.0465958 C4.84620253,21.37743 4.82974684,21.7101546 4.82974684,22.0485506 C4.82974684,24.4885311 5.41582278,26.7489159 6.52531646,28.7660588 C6.33924051,28.9267497 6.16012658,29.0962628 5.98924051,29.2733378 C4.57594937,30.7453921 3.79746835,32.6648602 3.79746835,34.677592 C3.79746835,34.9907817 3.82341772,35.3039713 3.86329114,35.6171609 C3.82405063,35.9316109 3.79746835,36.2479513 3.79746835,36.5680727 C3.79746835,36.8812624 3.82341772,37.194452 3.86329114,37.5076417 C3.82405063,37.8220916 3.79746835,38.1384321 3.79746835,38.4585535 C3.79746835,39.5247846 4.02405063,40.5809332 4.49556962,41.7026184 C5.45126582,43.9548111 6.9335443,45.8837316 8.89683544,47.4799275 C7.94873418,47.8750379 7.0721519,48.4402917 6.31329114,49.1674966 C4.69113924,50.7328146 3.79746835,52.8627562 3.79746835,55.1647316 L3.79746835,57.0552123 L3.79746835,58.945693 L3.79746835,81.7058206 L3.79746835,83.5963013 L3.79746835,85.4867821 C3.79746835,87.7263716 4.66518987,89.8235448 6.23924051,91.3907534 C7.81582278,92.9617428 9.92341772,93.827583 12.1740506,93.827583 L19.3012658,93.827583 C23.3620253,93.827583 27.0765823,92.8911649 30.3417722,91.0447954 C32.8234177,89.6401682 34.9139241,87.8082924 36.5841772,85.5813061 C38.3170886,87.9727642 40.5126582,89.9306721 43.1468354,91.4083978 C46.4727848,93.2736722 50.2531646,94.2195427 54.3841772,94.2195427 C58.5208861,94.2195427 62.2993671,93.2711515 65.6151899,91.4014661 C68.2075949,89.9394943 70.3810127,88.0086834 72.1094937,85.6506237 C73.8348101,88.0118342 76.014557,89.9445356 78.6240506,91.4083978 C81.95,93.2736722 85.7303797,94.2195427 89.8613924,94.2195427 C93.9981013,94.2195427 97.7759494,93.2711515 101.093038,91.4008359 C102.894937,90.3843875 104.489873,89.13604 105.879114,87.6828905 C106.25443,89.0749145 106.979114,90.3503588 108.022152,91.3888629 C109.598101,92.9611127 111.706329,93.827583 113.958861,93.827583 L121.085443,93.827583 C125.146203,93.827583 128.861392,92.8911649 132.127848,91.0441652 C133.831646,90.0793899 135.349367,88.9110728 136.675316,87.5537077 C137.027848,88.962746 137.732911,90.2570951 138.758228,91.3126135 C140.329747,92.934646 142.457595,93.827583 144.75,93.827583 L161.050633,93.827583 C162.679114,93.827583 164.228481,93.3688264 165.559494,92.5244116 C166.890506,93.3688264 168.439241,93.827583 170.067722,93.827583 L187.86519,93.827583 C190.096203,93.827583 192.174051,93.0121557 193.720886,91.5274981 C195.321519,89.9873865 196.203165,87.8839116 196.203165,85.604622 C196.203165,85.285761 196.181013,84.9725713 196.146835,84.6619023 C196.181013,84.3493428 196.203165,84.0342627 196.203165,83.7141413 C196.203165,83.3952802 196.181013,83.0820906 196.146835,82.7714216 C196.181013,82.4588621 196.203165,82.143782 196.203165,81.8236606 C196.203165,79.5235757 195.289873,77.4112786 193.628481,75.8717971 C192.975949,75.2687338 192.226582,74.7854009 191.41519,74.4236889 C191.636076,73.6756887 191.752532,72.8892487 191.752532,72.0794928 C191.752532,71.7606317 191.728481,71.4474421 191.693671,71.1361429 C191.728481,70.8242136 191.752532,70.5091335 191.752532,70.1890121 C191.752532,69.870151 191.728481,69.5569613 191.693671,69.2456622 C191.728481,68.9337329 191.752532,68.6186527 191.752532,68.2985313 C191.752532,67.5713264 191.658861,66.8630263 191.479747,66.1843437 C192.26519,65.8264127 192.996835,65.3632449 193.632911,64.7753054 C195.289873,63.2396049 196.203165,61.127938 196.203165,58.8278531 C196.203165,58.5077317 196.181013,58.1920214 196.146835,57.8800921 C196.181013,57.5694231 196.203165,57.2556033 196.203165,56.9373724 C196.203165,56.617251 196.181013,56.3015407 196.146835,55.9896114 C196.181013,55.6789424 196.203165,55.3651226 196.203165,55.0468916 C196.203165,52.7707528 195.324051,50.6729494 193.731013,49.1359886 C193.757595,49.1107822 193.786076,49.0887266 193.812025,49.06289 C195.353797,47.5284498 196.203165,45.4753877 196.203165,43.2830603 C196.203165,42.9616785 196.179747,42.6447079 196.14557,42.3296278 C196.179747,42.0208493 196.203165,41.7082898 196.203165,41.3925795 C196.203165,41.0711978 196.179747,40.7542272 196.14557,40.4391471 C196.179747,40.1303686 196.203165,39.8178091 196.203165,39.5020988 C196.203165,37.8611616 195.747468,36.3008848 194.850633,34.8679004 L194.850633,34.8679004 Z" id="Fill-4" fill="#232039"></path>
                <path d="M89.8613924,53.9940199 C93.3063291,53.9940199 96.4468354,54.7766789 99.1962025,56.318681 C101.973418,57.8764372 104.167722,60.0769567 105.718354,62.8578539 C107.249367,65.6047223 108.025316,68.7467013 108.025316,72.1968286 C108.025316,75.6450655 107.25,78.7914555 105.721519,81.5496669 C104.172152,84.3431673 101.985443,86.5512487 99.2208861,88.1115255 C96.4822785,89.6554181 93.3335443,90.4380771 89.8613924,90.4380771 C86.3911392,90.4380771 83.2373418,89.6560483 80.4879747,88.1140461 C77.7044304,86.5525091 75.5139241,84.3412768 73.9765823,81.5402145 C73.1132031,79.9677714 72.4929174,78.2683515 72.1196136,76.4580279 C71.7452359,78.2709409 71.1177794,79.97367 70.2444304,81.5496669 C68.6944304,84.3444276 66.5070886,86.5525091 63.7437975,88.1115255 C61.0051899,89.6554181 57.8564557,90.4380771 54.3843038,90.4380771 C50.9140506,90.4380771 47.7602532,89.6560483 45.0108861,88.1140461 C42.2273418,86.5525091 40.0368354,84.3412768 38.4994937,81.5402145 C37.6326203,79.9614076 37.010812,78.254594 36.6380047,76.4360428 C36.27131,78.1781593 35.6658571,79.8151481 34.8275949,81.3314424 C33.3187342,84.0606664 31.1788608,86.2221161 28.4655696,87.7571864 C25.7801266,89.2758726 22.6965823,90.0465586 19.3010127,90.0465586 L12.1744304,90.0465586 C10.9206329,90.0465586 9.79721519,89.5871717 8.92632911,88.7188109 C8.05544304,87.8517104 7.59468354,86.7344363 7.59468354,85.4867191 L7.59468354,58.94563 C7.59468354,57.6575825 8.06556962,56.5226639 8.95544304,55.6643857 C9.82822785,54.8275329 10.9408861,54.3864207 12.1744304,54.3864207 L19.3010127,54.3864207 C22.6953165,54.3864207 25.7788608,55.1564765 28.4655696,56.6757928 C31.1775949,58.2108632 33.3168354,60.3641207 34.8244304,63.0763304 C35.6642857,64.58718 36.2708401,66.2208755 36.6403571,67.9623102 C37.0110949,66.1445801 37.6340602,64.4404938 38.5026582,62.8666761 C40.04,60.081998 42.2298734,57.8783276 45.0102532,56.318681 C47.7589873,54.7766789 50.9127848,53.9940199 54.3843038,53.9940199 C57.8292405,53.9940199 60.9697468,54.7766789 63.7191139,56.318681 C66.4956962,57.8764372 68.69,60.0763266 70.2412658,62.8578539 C71.1161302,64.427493 71.7444433,66.1261478 72.122308,67.9375921 C72.4938914,66.1289834 73.1151245,64.4332903 73.9797468,62.8666761 C75.5170886,60.081998 77.706962,57.8783276 80.4873418,56.318681 C83.2360759,54.7766789 86.3898734,53.9940199 89.8613924,53.9940199 Z M121.085696,54.3864207 C124.48,54.3864207 127.563544,55.1564765 130.250253,56.6757928 C132.961013,58.2096029 135.100253,60.3628604 136.609114,63.0763304 C138.09962,65.7570321 138.855316,68.8259124 138.855316,72.1966396 C138.855316,75.5654762 138.100886,78.6387677 136.612278,81.3314424 C135.103418,84.0606664 132.963544,86.2214859 130.250886,87.7571864 C127.56481,89.2758726 124.481266,90.0465586 121.085696,90.0465586 L113.958481,90.0465586 C112.704051,90.0465586 111.580633,89.5871717 110.709747,88.7181808 C109.840127,87.8517104 109.379367,86.7344363 109.379367,85.4867191 L109.379367,58.94563 C109.379367,57.6575825 109.850253,56.5226639 110.740127,55.6643857 C111.612278,54.8275329 112.724304,54.3864207 113.958481,54.3864207 L121.085696,54.3864207 Z M187.864873,54.3861686 C189.125633,54.3861686 190.237658,54.8134173 191.07943,55.6219129 C191.947152,56.4543545 192.40538,57.5634366 192.40538,58.8281682 C192.40538,60.0847077 191.935127,61.1837071 191.045886,62.0073266 C190.207911,62.7817935 189.108544,63.1913977 187.864873,63.1913977 L174.646519,63.1913977 L174.646519,67.6762481 L183.415506,67.6762481 C184.631329,67.6762481 185.723734,68.0915237 186.575633,68.8779637 C187.47943,69.7185974 187.95538,70.8245287 187.95538,72.0791777 C187.95538,73.3344569 187.47943,74.4391278 186.578797,75.2753504 C185.728797,76.0643111 184.635127,76.4814771 183.415506,76.4814771 L174.646519,76.4814771 L174.646519,81.2410774 L187.864873,81.2410774 C189.108544,81.2410774 190.207911,81.6506816 191.045253,82.4238882 C191.935127,83.248768 192.40538,84.3477674 192.40538,85.604307 C192.40538,86.8671481 191.947152,87.9755999 191.081329,88.8086718 C190.237025,89.6190578 189.125,90.0463065 187.864873,90.0463065 L170.067405,90.0463065 C168.813608,90.0463065 167.69019,89.5869197 166.818671,88.7185589 C166.144593,88.0469234 165.716579,87.2248136 165.557864,86.3090421 C165.40215,87.224876 164.973469,88.0474505 164.298165,88.7198192 C163.426646,89.5875498 162.303861,90.0463065 161.050696,90.0463065 L144.750063,90.0463065 C143.479177,90.0463065 142.351962,89.5762069 141.49057,88.687681 C140.653228,87.8256218 140.21019,86.7184303 140.21019,85.4870971 L140.21019,58.945378 C140.21019,57.6976607 140.670949,56.5797564 141.543101,55.7113956 C142.415253,54.8442951 143.524114,54.3861686 144.750063,54.3861686 C146.001962,54.3861686 147.124114,54.8449253 147.995633,55.7113956 C148.867785,56.5803866 149.328544,57.6982909 149.328544,58.945378 L149.328544,80.9272576 L161.050696,80.9272576 C162.301962,80.9272576 163.424114,81.3860143 164.296899,82.2524846 C164.889289,82.8422998 165.291866,83.5467848 165.489393,84.3286993 L165.488291,58.945378 C165.488291,57.6585908 165.958544,56.5236722 166.849051,55.6641336 C167.72057,54.8272808 168.832595,54.3861686 170.067405,54.3861686 L187.864873,54.3861686 Z M54.3843038,62.7204789 C52.5982278,62.7204789 50.9988608,63.1294529 49.6311392,63.9373183 C48.2659494,64.742033 47.183038,65.8681293 46.411519,67.2828391 C45.6216456,68.7303171 45.2216456,70.3832274 45.2216456,72.1968286 C45.2216456,74.0104298 45.6216456,75.6633401 46.4108861,77.1089277 C47.1836709,78.5267882 48.2748101,79.6598164 49.6551899,80.4783945 C51.0349367,81.2969727 52.625443,81.7116181 54.3843038,81.7116181 C56.1431646,81.7116181 57.7336709,81.2969727 59.1134177,80.4790247 C60.4931646,79.6604465 61.5849367,78.5267882 62.3577215,77.110188 C63.146962,75.6614496 63.5475949,74.0085393 63.5475949,72.1968286 C63.5475949,70.3857481 63.146962,68.7322076 62.3577215,67.2828391 C61.5855696,65.8674992 60.5026582,64.742033 59.1381013,63.9373183 C57.7703797,63.1294529 56.1710127,62.7204789 54.3843038,62.7204789 Z M89.8613924,62.7204789 C88.0746835,62.7204789 86.4753165,63.1294529 85.1082278,63.9373183 C83.743038,64.7426631 82.6594937,65.8681293 81.8873418,67.2834692 C81.0987342,68.7303171 80.6987342,70.3838576 80.6987342,72.1968286 C80.6987342,74.0097996 81.0987342,75.6627099 81.8879747,77.110188 C82.671519,78.5469534 83.7322785,79.6484735 85.1322785,80.4783945 C86.5120253,81.2969727 88.1025316,81.7116181 89.8613924,81.7116181 C91.6196203,81.7116181 93.2107595,81.2969727 94.5905063,80.4783945 C95.9702532,79.6604465 97.0620253,78.5267882 97.8348101,77.110188 C98.6240506,75.6620798 99.0246835,74.0085393 99.0246835,72.1968286 C99.0246835,70.3851179 98.6240506,68.7315775 97.8348101,67.2828391 C97.0626582,65.8674992 95.9797468,64.742033 94.6151899,63.9373183 C93.2474684,63.1294529 91.6481013,62.7204789 89.8613924,62.7204789 Z M19.3010127,63.0341097 L16.7535443,63.0341097 L16.7535443,81.3976092 L19.3010127,81.3976092 C21.0181013,81.3976092 22.5579747,81.011321 23.8775949,80.2488271 C25.1927848,79.489484 26.191519,78.4484593 26.9301266,77.0690386 C27.6864557,75.6555891 28.07,74.0159122 28.07,72.1966396 C28.07,70.3811479 27.6870886,68.7502932 26.9332911,67.3500772 C26.1953165,65.9819993 25.1953165,64.9460158 23.8763291,64.183522 C22.5567089,63.4210281 21.0168354,63.0341097 19.3010127,63.0341097 Z M121.085696,63.0341097 L118.538228,63.0341097 L118.538228,81.3976092 L121.085696,81.3976092 C122.802785,81.3976092 124.342658,81.011321 125.662278,80.2488271 C126.977468,79.4888539 127.976203,78.4478292 128.71481,77.0690386 C129.471139,75.6555891 129.854684,74.0159122 129.854684,72.1966396 C129.854684,70.3811479 129.471772,68.7502932 128.717975,67.3500772 C127.98,65.9819993 126.98,64.9460158 125.661013,64.183522 C124.341392,63.4210281 122.801519,63.0341097 121.085696,63.0341097 Z M22.2394304,11.3822693 C24.9660127,11.3822693 27.3381646,11.9664279 29.2894304,13.1183608 C31.1925949,14.243827 32.8141139,15.8507356 34.1109494,17.8956056 C34.6862658,18.8030363 34.978038,19.7344132 34.978038,20.6638995 C34.978038,22.0729378 34.3122152,23.3118329 33.1027215,24.1537269 C32.3255063,24.6490329 31.5052532,24.885343 30.6198101,24.885343 C29.7736076,24.885343 28.9742405,24.6723488 28.241962,24.2520319 C27.4837342,23.8147007 26.891962,23.2091167 26.4831013,22.451034 C26.0362658,21.7150068 25.463481,21.1339991 24.7615823,20.728806 C24.085,20.3387369 23.1432278,20.1402364 21.9615823,20.1402364 C20.441962,20.1402364 19.2514557,20.4030132 18.4229747,20.9210049 C17.913481,21.2392358 17.7413291,21.5536858 17.7413291,22.1668317 C17.7413291,22.7887999 17.9609494,23.2242406 18.4982911,23.6697639 C18.8217089,23.9388423 19.9153797,24.5967296 23.091962,24.9193716 C26.8033544,25.2873852 29.7793038,26.470196 31.9324684,28.4337753 C34.2172785,30.5202359 35.3748734,33.2677345 35.3748734,36.6000219 C35.3748734,39.050715 34.6812025,41.2058631 33.3128481,43.0049705 C32.0001899,44.7309794 30.2514557,46.0316302 28.1147468,46.8728941 C26.1172785,47.6587039 23.9539873,48.0569652 21.6837342,48.0569652 C18.691962,48.0569652 15.9210759,47.3650493 13.4476582,46.0020127 C10.8451266,44.5690283 9.01031646,42.6268744 7.99322785,40.230375 C7.72487342,39.5913925 7.59512658,39.0129054 7.59512658,38.4589946 C7.59512658,37.4085175 7.98879747,36.443112 8.73436709,35.6673847 C9.37107595,35.0063466 10.1900633,34.5614535 11.1698101,34.3446784 C11.4185443,34.2759909 11.7482911,34.2375511 12.1514557,34.2375511 C13.0748734,34.2375511 13.9489241,34.5028486 14.7501899,35.0252514 C15.5501899,35.5476543 16.1501899,36.2553242 16.5356329,37.1287263 C16.7432278,37.5761401 17.3324684,38.0727063 18.1856329,38.5056264 C19.2229747,39.0318102 20.4001899,39.2989982 21.6837342,39.2989982 C23.1527215,39.2989982 24.3793038,38.9813974 25.3286709,38.3550181 C25.9989241,37.9113853 26.2609494,37.4526287 26.2609494,36.7191221 C26.2609494,35.9244901 25.9742405,35.3081934 25.3312025,34.7183634 C24.5938608,34.0428316 23.2596835,33.592267 21.4717089,33.4145618 C17.6831013,33.0496991 14.6077848,31.8857931 12.3356329,29.9562424 C9.87550633,27.870412 8.62740506,25.2092454 8.62740506,22.0489917 C8.62740506,19.7904974 9.29702532,17.7960403 10.6179114,16.1217045 C11.863481,14.5400023 13.563481,13.3288343 15.6691772,12.5197086 C17.6337342,11.7647766 19.8444937,11.3822693 22.2394304,11.3822693 Z M98.0935443,11.3425693 C100.388481,11.3425693 102.434051,11.6589097 104.173291,12.2821382 C105.902405,12.902846 107.651772,13.9186643 109.373291,15.301866 C109.984684,15.7555814 110.473924,16.3580146 110.752405,17.0165321 C110.989747,17.5805255 111.109367,18.2087952 111.109367,18.8849572 C111.109367,20.1213316 110.606203,21.251839 109.691013,22.0672664 C108.846709,22.8234587 107.801772,23.2242406 106.672025,23.2242406 C105.572658,23.2242406 104.566962,22.8612683 103.683418,22.1441459 C102.775823,21.3747203 101.937215,20.8397142 101.168228,20.5347167 C100.451139,20.2511446 99.3872152,20.1011664 98.0935443,20.1011664 C96.4979747,20.1011664 95.0732911,20.5057293 93.7372152,21.338171 C92.3834177,22.1813254 91.2897468,23.3527933 90.4859494,24.8179158 C89.6770886,26.293121 89.266962,27.929017 89.266962,29.6802323 C89.266962,31.4547635 89.6758228,33.0957008 90.4821519,34.5551519 C91.2853165,36.0101919 92.3808861,37.1759883 93.7378481,38.0222935 C95.0720253,38.8547352 96.4967089,39.2592981 98.0935443,39.2592981 C100.091013,39.2592981 101.984684,38.5705329 103.882152,37.1539327 C104.810633,36.4979359 105.753671,36.175924 106.711266,36.175924 C107.911899,36.175924 109.016329,36.6523252 109.820759,37.5175352 C110.585949,38.3405244 110.991013,39.4174683 110.991013,40.6330474 C110.991013,41.8605996 110.51443,42.9835451 109.612532,43.8802631 L109.518861,43.9728967 L109.415696,44.0560778 C106.104304,46.7115731 102.296709,48.0569652 98.0935443,48.0569652 C94.8087342,48.0569652 91.7587342,47.2314553 89.0283544,45.6031212 C86.3093671,43.9817189 84.1378481,41.736458 82.5751899,38.9297243 C81.0201266,36.1374842 80.231519,33.0251228 80.231519,29.6802323 C80.231519,26.3586576 81.0207595,23.2658312 82.5777215,20.4855642 C84.1378481,17.6977353 86.3055696,15.4562553 89.0188608,13.8222498 C91.753038,12.1769014 94.8062025,11.3425693 98.0935443,11.3425693 Z M62.1526582,11.7377427 C63.4089873,11.7377427 64.5286076,12.1914581 65.3912658,13.048476 C66.2539241,13.9086448 66.7096203,15.0378919 66.7096203,16.3152267 L66.7096203,43.0844338 C66.7096203,44.363659 66.2539241,45.4929062 65.3918987,46.3511844 C64.5317722,47.2082024 63.411519,47.6619177 62.1526582,47.6619177 C61.5450633,47.6619177 60.9336709,47.5440778 60.3355696,47.3102883 C59.5602532,47.0071813 58.94,46.5251087 58.4918987,45.8773039 L45.7798734,29.0425731 L45.7798734,43.0844338 C45.7798734,44.3208081 45.3349367,45.433041 44.4925316,46.3001415 C43.6286076,47.1905579 42.4836709,47.6619177 41.1836709,47.6619177 C39.9235443,47.6619177 38.8020253,47.2069421 37.9412658,46.3474035 C37.0817722,45.4941665 36.6260759,44.3649194 36.6260759,43.0844338 L36.6260759,16.3152267 C36.6260759,15.0366316 37.0817722,13.9073844 37.9437975,13.048476 C38.8058228,12.1914581 39.9260759,11.7377427 41.1836709,11.7377427 C41.868481,11.7377427 42.5431646,11.9003241 43.1881013,12.2217058 C43.7760759,12.5153605 44.2767089,12.8947169 44.6773418,13.3503228 L44.7640506,13.4555596 L57.5558228,30.3974176 L57.5558228,16.3152267 C57.5558228,15.0196173 58.0292405,13.8802876 58.9248101,13.0188585 C59.7963291,12.1807454 60.9121519,11.7377427 62.1526582,11.7377427 Z M74.1856962,11.7377427 C75.4667089,11.7377427 76.6002532,12.190828 77.4629114,13.0472157 C78.3268354,13.9086448 78.7825316,15.0378919 78.7825316,16.3152267 L78.7825316,43.0844338 C78.7825316,44.320178 78.3375949,45.4324108 77.4951899,46.2995113 C76.6306329,47.1905579 75.4863291,47.6619177 74.1856962,47.6619177 C72.9274684,47.6619177 71.8002532,47.2019008 70.9255696,46.3303892 C70.0508861,45.4601379 69.5888608,44.3378225 69.5888608,43.0844338 L69.5888608,16.3152267 C69.5888608,15.0208776 70.0616456,13.8815479 70.9559494,13.0194887 C71.83,12.1807454 72.9464557,11.7377427 74.1856962,11.7377427 Z M134.034747,11.7377427 C135.640443,11.7377427 136.63538,12.4479333 137.187278,13.0440649 C137.925253,13.8462589 138.314494,14.853255 138.314494,15.958556 C138.314494,17.3146609 137.796772,18.5466241 136.817658,19.5208519 L128.225253,28.1105661 L137.266392,40.3671828 C137.860063,41.1958435 138.155633,42.1190283 138.155633,43.124764 C138.155633,44.241408 137.772089,45.2868438 137.047405,46.1482728 C136.225886,47.1237609 135.071456,47.6619177 133.796772,47.6619177 C132.215759,47.6619177 130.866392,46.9618097 129.996772,45.6901464 L121.75057,34.5615165 L121.713228,34.5993261 L121.713228,43.0844338 C121.713228,44.3371923 121.251203,45.4601379 120.375886,46.3310193 C119.501203,47.2019008 118.373987,47.6619177 117.117025,47.6619177 C115.899937,47.6619177 114.789177,47.2113532 113.905,46.3587464 C112.999304,45.4866046 112.519557,44.3535765 112.519557,43.0844338 L112.519557,16.3152267 C112.519557,15.0454538 112.999937,13.9124257 113.907532,13.0390236 C114.791709,12.1876772 115.901203,11.7377427 117.117025,11.7377427 C118.373354,11.7377427 119.499937,12.1983899 120.375253,13.0686412 C121.25057,13.9395226 121.713228,15.0624682 121.713228,16.3152267 L121.713228,22.0925358 L130.537278,13.3068417 C131.063861,12.7812881 131.57462,12.4057126 132.096772,12.1586898 C132.689177,11.8795288 133.341076,11.7377427 134.034747,11.7377427 Z M161.557278,11.7377427 C162.822468,11.7377427 163.938291,12.1662517 164.782595,12.9766378 C165.654114,13.8160112 166.114241,14.9288742 166.114241,16.1961264 C166.114241,17.4570771 165.642722,18.5604877 164.750949,19.3872579 C163.907911,20.1648756 162.804114,20.5757401 161.557278,20.5757401 L148.202848,20.5757401 L148.202848,25.1431415 L157.069304,25.1431415 C158.292089,25.1431415 159.388924,25.5609378 160.242722,26.3511587 C161.147785,27.1911623 161.626266,28.3002443 161.626266,29.561195 C161.626266,30.803871 161.136392,31.9432007 160.246519,32.7693408 C159.388924,33.5620824 158.291456,33.9798786 157.069304,33.9798786 L148.202848,33.9798786 L148.202848,38.8245505 L161.557278,38.8245505 C162.802848,38.8245505 163.906013,39.2341547 164.747152,40.0092518 C165.642089,40.8404331 166.114241,41.9438437 166.114241,43.203534 C166.114241,44.4714164 165.654747,45.5836493 164.785759,46.4198719 C163.938291,47.2327786 162.822468,47.6619177 161.557278,47.6619177 L143.606013,47.6619177 C142.348418,47.6619177 141.221203,47.2019008 140.346519,46.3303892 C139.471835,45.4601379 139.009177,44.3378225 139.009177,43.0844338 L139.009177,16.3152267 C139.009177,15.0208776 139.481962,13.8815479 140.376266,13.0194887 C141.251582,12.1801152 142.367405,11.7377427 143.606013,11.7377427 L161.557278,11.7377427 Z M178.554873,11.7376797 C180.921329,11.7376797 183.090949,12.2487397 185.002342,13.2563659 C186.967532,14.2942398 188.521329,15.7751164 189.620696,17.6580352 C190.704241,19.5201587 191.253608,21.64884 191.253608,23.9861043 C191.253608,26.3498354 190.633354,28.4904897 189.409304,30.3494624 C188.720696,31.3986792 187.877658,32.3124116 186.897911,33.076796 L191.625759,40.6456506 C192.142848,41.4717907 192.405506,42.3590563 192.405506,43.2828712 C192.405506,44.4826963 191.963734,45.5571195 191.127025,46.3901914 C190.544114,46.9699388 189.509937,47.6618547 187.887785,47.6618547 C186.251709,47.6618547 184.859937,46.8981005 183.968165,45.511748 L177.864367,35.7593881 L176.002975,35.7593881 L176.002975,43.0843707 C176.002975,44.320115 175.558038,45.4317176 174.716899,46.2994483 C173.850443,47.191125 172.706139,47.6618547 171.406139,47.6618547 C170.147278,47.6618547 169.020063,47.2012076 168.14538,46.3290658 C167.271329,45.4594447 166.808671,44.3377595 166.808671,43.0843707 L166.808671,16.3151637 C166.808671,15.0201844 167.282089,13.8808547 168.177658,13.0194257 C169.04981,12.1806824 170.166266,11.7376797 171.406139,11.7376797 L178.554873,11.7376797 Z M178.554873,20.5756771 L176.002975,20.5756771 L176.002975,26.9220209 L178.554873,26.9220209 C179.748544,26.9220209 180.632089,26.6365583 181.337152,26.0227822 C181.946646,25.4915571 182.218797,24.8632874 182.218797,23.9861043 C182.218797,22.9419288 181.912468,22.1636809 181.254241,21.5379318 C180.563101,20.8813048 179.704873,20.5756771 178.554873,20.5756771 Z" id="Combined-Shape" fill="#EB5C5D"></path>
                <path d="M89.8613924,52.1035392 C93.3063291,52.1035392 96.4468354,52.8861982 99.1962025,54.4282003 C101.973418,55.9859564 104.167722,58.186476 105.718354,60.9673731 C107.249367,63.7142416 108.025316,66.8562206 108.025316,70.3063479 C108.025316,73.7545847 107.25,76.9009748 105.721519,79.6591862 C104.172152,82.4526865 101.985443,84.660768 99.2208861,86.2210448 C96.4822785,87.7649374 93.3335443,88.5475964 89.8613924,88.5475964 C86.3911392,88.5475964 83.2373418,87.7655675 80.4879747,86.2235654 C77.7044304,84.6620283 75.5139241,82.4507961 73.9765823,79.6497338 C73.1132031,78.0772907 72.4929174,76.3778708 72.1196136,74.5675471 C71.7452359,76.3804601 71.1177794,78.0831893 70.2444304,79.6591862 C68.6944304,82.4539469 66.5070886,84.6620283 63.7437975,86.2210448 C61.0051899,87.7649374 57.8564557,88.5475964 54.3843038,88.5475964 C50.9140506,88.5475964 47.7602532,87.7655675 45.0108861,86.2235654 C42.2273418,84.6620283 40.0368354,82.4507961 38.4994937,79.6497338 C37.6326203,78.0709269 37.010812,76.3641133 36.6380047,74.545562 C36.27131,76.2876786 35.6658571,77.9246674 34.8275949,79.4409617 C33.3187342,82.1701857 31.1788608,84.3316353 28.4655696,85.8667057 C25.7801266,87.3853919 22.6965823,88.1560778 19.3010127,88.1560778 L12.1744304,88.1560778 C10.9206329,88.1560778 9.79721519,87.696691 8.92632911,86.8283302 C8.05544304,85.9612297 7.59468354,84.8439556 7.59468354,83.5962383 L7.59468354,57.0551493 C7.59468354,55.7671018 8.06556962,54.6321832 8.95544304,53.7739049 C9.82822785,52.9370521 10.9408861,52.49594 12.1744304,52.49594 L19.3010127,52.49594 C22.6953165,52.49594 25.7788608,53.2659958 28.4655696,54.7853121 C31.1775949,56.3203825 33.3168354,58.47364 34.8244304,61.1858497 C35.6642857,62.6966993 36.2708401,64.3303948 36.6403571,66.0718295 C37.0110949,64.2540994 37.6340602,62.550013 38.5026582,60.9761954 C40.04,58.1915173 42.2298734,55.9878469 45.0102532,54.4282003 C47.7589873,52.8861982 50.9127848,52.1035392 54.3843038,52.1035392 C57.8292405,52.1035392 60.9697468,52.8861982 63.7191139,54.4282003 C66.4956962,55.9859564 68.69,58.1858458 70.2412658,60.9673731 C71.1161302,62.5370123 71.7444433,64.2356671 72.122308,66.0471114 C72.4938914,64.2385027 73.1151245,62.5428095 73.9797468,60.9761954 C75.5170886,58.1915173 77.706962,55.9878469 80.4873418,54.4282003 C83.2360759,52.8861982 86.3898734,52.1035392 89.8613924,52.1035392 Z M121.085696,52.49594 C124.48,52.49594 127.563544,53.2659958 130.250253,54.7853121 C132.961013,56.3191221 135.100253,58.4723797 136.609114,61.1858497 C138.09962,63.8665514 138.855316,66.9354317 138.855316,70.3061589 C138.855316,73.6749955 138.100886,76.748287 136.612278,79.4409617 C135.103418,82.1701857 132.963544,84.3310052 130.250886,85.8667057 C127.56481,87.3853919 124.481266,88.1560778 121.085696,88.1560778 L113.958481,88.1560778 C112.704051,88.1560778 111.580633,87.696691 110.709747,86.8277 C109.840127,85.9612297 109.379367,84.8439556 109.379367,83.5962383 L109.379367,57.0551493 C109.379367,55.7671018 109.850253,54.6321832 110.740127,53.7739049 C111.612278,52.9370521 112.724304,52.49594 113.958481,52.49594 L121.085696,52.49594 Z M187.864873,52.4956879 C189.125633,52.4956879 190.237658,52.9229365 191.07943,53.7314321 C191.947152,54.5638738 192.40538,55.6729558 192.40538,56.9376874 C192.40538,58.194227 191.935127,59.2932264 191.045886,60.1168459 C190.207911,60.8913128 189.108544,61.3009169 187.864873,61.3009169 L174.646519,61.3009169 L174.646519,65.7857674 L183.415506,65.7857674 C184.631329,65.7857674 185.723734,66.201043 186.575633,66.987483 C187.47943,67.8281167 187.95538,68.9340479 187.95538,70.188697 C187.95538,71.4439762 187.47943,72.5486471 186.578797,73.3848697 C185.728797,74.1738303 184.635127,74.5909964 183.415506,74.5909964 L174.646519,74.5909964 L174.646519,79.3505967 L187.864873,79.3505967 C189.108544,79.3505967 190.207911,79.7602009 191.045253,80.5334075 C191.935127,81.3582873 192.40538,82.4572867 192.40538,83.7138262 C192.40538,84.9766674 191.947152,86.0851192 191.081329,86.9181911 C190.237025,87.7285771 189.125,88.1558258 187.864873,88.1558258 L170.067405,88.1558258 C168.813608,88.1558258 167.69019,87.696439 166.818671,86.8280781 C166.144593,86.1564427 165.716579,85.3343329 165.557864,84.4185614 C165.40215,85.3343953 164.973469,86.1569698 164.298165,86.8293385 C163.426646,87.6970691 162.303861,88.1558258 161.050696,88.1558258 L144.750063,88.1558258 C143.479177,88.1558258 142.351962,87.6857262 141.49057,86.7972003 C140.653228,85.9351411 140.21019,84.8279495 140.21019,83.5966164 L140.21019,57.0548972 C140.21019,55.80718 140.670949,54.6892757 141.543101,53.8209149 C142.415253,52.9538144 143.524114,52.4956879 144.750063,52.4956879 C146.001962,52.4956879 147.124114,52.9544446 147.995633,53.8209149 C148.867785,54.6899059 149.328544,55.8078101 149.328544,57.0548972 L149.328544,79.0367769 L161.050696,79.0367769 C162.301962,79.0367769 163.424114,79.4955336 164.296899,80.3620039 C164.889289,80.951819 165.291866,81.6563041 165.489393,82.4382186 L165.488291,57.0548972 C165.488291,55.76811 165.958544,54.6331914 166.849051,53.7736529 C167.72057,52.9368001 168.832595,52.4956879 170.067405,52.4956879 L187.864873,52.4956879 Z M54.3843038,60.8299982 C52.5982278,60.8299982 50.9988608,61.2389722 49.6311392,62.0468376 C48.2659494,62.8515523 47.183038,63.9776486 46.411519,65.3923583 C45.6216456,66.8398364 45.2216456,68.4927467 45.2216456,70.3063479 C45.2216456,72.1199491 45.6216456,73.7728594 46.4108861,75.218447 C47.1836709,76.6363075 48.2748101,77.7693356 49.6551899,78.5879138 C51.0349367,79.4064919 52.625443,79.8211374 54.3843038,79.8211374 C56.1431646,79.8211374 57.7336709,79.4064919 59.1134177,78.5885439 C60.4931646,77.7699658 61.5849367,76.6363075 62.3577215,75.2197073 C63.146962,73.7709689 63.5475949,72.1180586 63.5475949,70.3063479 C63.5475949,68.4952674 63.146962,66.8417269 62.3577215,65.3923583 C61.5855696,63.9770184 60.5026582,62.8515523 59.1381013,62.0468376 C57.7703797,61.2389722 56.1710127,60.8299982 54.3843038,60.8299982 Z M89.8613924,60.8299982 C88.0746835,60.8299982 86.4753165,61.2389722 85.1082278,62.0468376 C83.743038,62.8521824 82.6594937,63.9776486 81.8873418,65.3929885 C81.0987342,66.8398364 80.6987342,68.4933769 80.6987342,70.3063479 C80.6987342,72.1193189 81.0987342,73.7722292 81.8879747,75.2197073 C82.671519,76.6564726 83.7322785,77.7579927 85.1322785,78.5879138 C86.5120253,79.4064919 88.1025316,79.8211374 89.8613924,79.8211374 C91.6196203,79.8211374 93.2107595,79.4064919 94.5905063,78.5879138 C95.9702532,77.7699658 97.0620253,76.6363075 97.8348101,75.2197073 C98.6240506,73.7715991 99.0246835,72.1180586 99.0246835,70.3063479 C99.0246835,68.4946372 98.6240506,66.8410967 97.8348101,65.3923583 C97.0626582,63.9770184 95.9797468,62.8515523 94.6151899,62.0468376 C93.2474684,61.2389722 91.6481013,60.8299982 89.8613924,60.8299982 Z M19.3010127,61.143629 L16.7535443,61.143629 L16.7535443,79.5071285 L19.3010127,79.5071285 C21.0181013,79.5071285 22.5579747,79.1208403 23.8775949,78.3583464 C25.1927848,77.5990033 26.191519,76.5579786 26.9301266,75.1785578 C27.6864557,73.7651084 28.07,72.1254315 28.07,70.3061589 C28.07,68.4906672 27.6870886,66.8598125 26.9332911,65.4595964 C26.1953165,64.0915186 25.1953165,63.0555351 23.8763291,62.2930412 C22.5567089,61.5305473 21.0168354,61.143629 19.3010127,61.143629 Z M121.085696,61.143629 L118.538228,61.143629 L118.538228,79.5071285 L121.085696,79.5071285 C122.802785,79.5071285 124.342658,79.1208403 125.662278,78.3583464 C126.977468,77.5983732 127.976203,76.5573484 128.71481,75.1785578 C129.471139,73.7651084 129.854684,72.1254315 129.854684,70.3061589 C129.854684,68.4906672 129.471772,66.8598125 128.717975,65.4595964 C127.98,64.0915186 126.98,63.0555351 125.661013,62.2930412 C124.341392,61.5305473 122.801519,61.143629 121.085696,61.143629 Z M22.2394304,9.49178863 C24.9660127,9.49178863 27.3381646,10.0759472 29.2894304,11.2278801 C31.1925949,12.3533463 32.8141139,13.9602549 34.1109494,16.0051249 C34.6862658,16.9125556 34.978038,17.8439325 34.978038,18.7734188 C34.978038,20.1824571 34.3122152,21.4213521 33.1027215,22.2632462 C32.3255063,22.7585522 31.5052532,22.9948623 30.6198101,22.9948623 C29.7736076,22.9948623 28.9742405,22.7818681 28.241962,22.3615512 C27.4837342,21.92422 26.891962,21.318636 26.4831013,20.5605533 C26.0362658,19.8245261 25.463481,19.2435184 24.7615823,18.8383253 C24.085,18.4482561 23.1432278,18.2497557 21.9615823,18.2497557 C20.441962,18.2497557 19.2514557,18.5125325 18.4229747,19.0305242 C17.913481,19.3487551 17.7413291,19.6632051 17.7413291,20.276351 C17.7413291,20.8983191 17.9609494,21.3337599 18.4982911,21.7792832 C18.8217089,22.0483616 19.9153797,22.7062489 23.091962,23.0288909 C26.8033544,23.3969045 29.7793038,24.5797153 31.9324684,26.5432946 C34.2172785,28.6297551 35.3748734,31.3772538 35.3748734,34.7095411 C35.3748734,37.1602343 34.6812025,39.3153823 33.3128481,41.1144898 C32.0001899,42.8404987 30.2514557,44.1411495 28.1147468,44.9824134 C26.1172785,45.7682232 23.9539873,46.1664845 21.6837342,46.1664845 C18.691962,46.1664845 15.9210759,45.4745685 13.4476582,44.1115319 C10.8451266,42.6785475 9.01031646,40.7363937 7.99322785,38.3398943 C7.72487342,37.7009118 7.59512658,37.1224247 7.59512658,36.5685139 C7.59512658,35.5180367 7.98879747,34.5526312 8.73436709,33.776904 C9.37107595,33.1158659 10.1900633,32.6709728 11.1698101,32.4541976 C11.4185443,32.3855102 11.7482911,32.3470704 12.1514557,32.3470704 C13.0748734,32.3470704 13.9489241,32.6123679 14.7501899,33.1347707 C15.5501899,33.6571735 16.1501899,34.3648435 16.5356329,35.2382456 C16.7432278,35.6856594 17.3324684,36.1822256 18.1856329,36.6151457 C19.2229747,37.1413295 20.4001899,37.4085175 21.6837342,37.4085175 C23.1527215,37.4085175 24.3793038,37.0909167 25.3286709,36.4645374 C25.9989241,36.0209046 26.2609494,35.5621479 26.2609494,34.8286414 C26.2609494,34.0340094 25.9742405,33.4177126 25.3312025,32.8278827 C24.5938608,32.1523509 23.2596835,31.7017863 21.4717089,31.5240811 C17.6831013,31.1592183 14.6077848,29.9953124 12.3356329,28.0657617 C9.87550633,25.9799313 8.62740506,23.3187646 8.62740506,20.158511 C8.62740506,17.9000167 9.29702532,15.9055596 10.6179114,14.2312238 C11.863481,12.6495216 13.563481,11.4383536 15.6691772,10.6292279 C17.6337342,9.87429589 19.8444937,9.49178863 22.2394304,9.49178863 Z M98.0935443,9.45208853 C100.388481,9.45208853 102.434051,9.76842897 104.173291,10.3916575 C105.902405,11.0123653 107.651772,12.0281836 109.373291,13.4113853 C109.984684,13.8651007 110.473924,14.4675339 110.752405,15.1260513 C110.989747,15.6900448 111.109367,16.3183145 111.109367,16.9944765 C111.109367,18.2308508 110.606203,19.3613583 109.691013,20.1767857 C108.846709,20.932978 107.801772,21.3337599 106.672025,21.3337599 C105.572658,21.3337599 104.566962,20.9707876 103.683418,20.2536652 C102.775823,19.4842396 101.937215,18.9492335 101.168228,18.644236 C100.451139,18.3606639 99.3872152,18.2106857 98.0935443,18.2106857 C96.4979747,18.2106857 95.0732911,18.6152486 93.7372152,19.4476903 C92.3834177,20.2908447 91.2897468,21.4623126 90.4859494,22.9274351 C89.6770886,24.4026402 89.266962,26.0385362 89.266962,27.7897515 C89.266962,29.5642828 89.6758228,31.20522 90.4821519,32.6646712 C91.2853165,34.1197112 92.3808861,35.2855076 93.7378481,36.1318128 C95.0720253,36.9642545 96.4967089,37.3688174 98.0935443,37.3688174 C100.091013,37.3688174 101.984684,36.6800522 103.882152,35.263452 C104.810633,34.6074552 105.753671,34.2854433 106.711266,34.2854433 C107.911899,34.2854433 109.016329,34.7618444 109.820759,35.6270545 C110.585949,36.4500437 110.991013,37.5269876 110.991013,38.7425667 C110.991013,39.9701188 110.51443,41.0930644 109.612532,41.9897824 L109.518861,42.082416 L109.415696,42.1655971 C106.104304,44.8210924 102.296709,46.1664845 98.0935443,46.1664845 C94.8087342,46.1664845 91.7587342,45.3409746 89.0283544,43.7126405 C86.3093671,42.0912382 84.1378481,39.8459773 82.5751899,37.0392436 C81.0201266,34.2470035 80.231519,31.1346421 80.231519,27.7897515 C80.231519,24.4681769 81.0207595,21.3753504 82.5777215,18.5950835 C84.1378481,15.8072546 86.3055696,13.5657746 89.0188608,11.9317691 C91.753038,10.2864207 94.8062025,9.45208853 98.0935443,9.45208853 Z M62.1526582,9.84726202 C63.4089873,9.84726202 64.5286076,10.3009774 65.3912658,11.1579953 C66.2539241,12.018164 66.7096203,13.1474112 66.7096203,14.424746 L66.7096203,41.193953 C66.7096203,42.4731783 66.2539241,43.6024255 65.3918987,44.4607037 C64.5317722,45.3177216 63.411519,45.771437 62.1526582,45.771437 C61.5450633,45.771437 60.9336709,45.6535971 60.3355696,45.4198076 C59.5602532,45.1167005 58.94,44.6346279 58.4918987,43.9868232 L45.7798734,27.1520924 L45.7798734,41.193953 C45.7798734,42.4303274 45.3349367,43.5425603 44.4925316,44.4096607 C43.6286076,45.3000772 42.4836709,45.771437 41.1836709,45.771437 C39.9235443,45.771437 38.8020253,45.3164613 37.9412658,44.4569228 C37.0817722,43.6036858 36.6260759,42.4744386 36.6260759,41.193953 L36.6260759,14.424746 C36.6260759,13.1461509 37.0817722,12.0169037 37.9437975,11.1579953 C38.8058228,10.3009774 39.9260759,9.84726202 41.1836709,9.84726202 C41.868481,9.84726202 42.5431646,10.0098434 43.1881013,10.3312251 C43.7760759,10.6248798 44.2767089,11.0042362 44.6773418,11.4598421 L44.7640506,11.5650788 L57.5558228,28.5069369 L57.5558228,14.424746 C57.5558228,13.1291366 58.0292405,11.9898068 58.9248101,11.1283778 C59.7963291,10.2902647 60.9121519,9.84726202 62.1526582,9.84726202 Z M74.1856962,9.84726202 C75.4667089,9.84726202 76.6002532,10.3003472 77.4629114,11.156735 C78.3268354,12.018164 78.7825316,13.1474112 78.7825316,14.424746 L78.7825316,41.193953 C78.7825316,42.4296973 78.3375949,43.5419301 77.4951899,44.4090306 C76.6306329,45.3000772 75.4863291,45.771437 74.1856962,45.771437 C72.9274684,45.771437 71.8002532,45.31142 70.9255696,44.4399084 C70.0508861,43.5696571 69.5888608,42.4473418 69.5888608,41.193953 L69.5888608,14.424746 C69.5888608,13.1303969 70.0616456,11.9910672 70.9559494,11.1290079 C71.83,10.2902647 72.9464557,9.84726202 74.1856962,9.84726202 Z M134.034747,9.84726202 C135.640443,9.84726202 136.63538,10.5574526 137.187278,11.1535842 C137.925253,11.9557782 138.314494,12.9627742 138.314494,14.0680753 C138.314494,15.4241801 137.796772,16.6561434 136.817658,17.6303712 L128.225253,26.2200854 L137.266392,38.4767021 C137.860063,39.3053628 138.155633,40.2285475 138.155633,41.2342833 C138.155633,42.3509272 137.772089,43.3963631 137.047405,44.2577921 C136.225886,45.2332802 135.071456,45.771437 133.796772,45.771437 C132.215759,45.771437 130.866392,45.071329 129.996772,43.7996656 L121.75057,32.6710358 L121.713228,32.7088454 L121.713228,41.193953 C121.713228,42.4467116 121.251203,43.5696571 120.375886,44.4405386 C119.501203,45.31142 118.373987,45.771437 117.117025,45.771437 C115.899937,45.771437 114.789177,45.3208725 113.905,44.4682656 C112.999304,43.5961239 112.519557,42.4630958 112.519557,41.193953 L112.519557,14.424746 C112.519557,13.1549731 112.999937,12.021945 113.907532,11.1485429 C114.791709,10.2971964 115.901203,9.84726202 117.117025,9.84726202 C118.373354,9.84726202 119.499937,10.3079092 120.375253,11.1781604 C121.25057,12.0490419 121.713228,13.1719874 121.713228,14.424746 L121.713228,20.2020551 L130.537278,11.416361 C131.063861,10.8908074 131.57462,10.5152319 132.096772,10.2682091 C132.689177,9.98904807 133.341076,9.84726202 134.034747,9.84726202 Z M161.557278,9.84726202 C162.822468,9.84726202 163.938291,10.275771 164.782595,11.0861571 C165.654114,11.9255305 166.114241,13.0383935 166.114241,14.3056457 C166.114241,15.5665964 165.642722,16.6700069 164.750949,17.4967772 C163.907911,18.2743949 162.804114,18.6852594 161.557278,18.6852594 L148.202848,18.6852594 L148.202848,23.2526608 L157.069304,23.2526608 C158.292089,23.2526608 159.388924,23.6704571 160.242722,24.460678 C161.147785,25.3006816 161.626266,26.4097636 161.626266,27.6707143 C161.626266,28.9133903 161.136392,30.05272 160.246519,30.8788601 C159.388924,31.6716016 158.291456,32.0893979 157.069304,32.0893979 L148.202848,32.0893979 L148.202848,36.9340698 L161.557278,36.9340698 C162.802848,36.9340698 163.906013,37.343674 164.747152,38.1187711 C165.642089,38.9499524 166.114241,40.053363 166.114241,41.3130533 C166.114241,42.5809357 165.654747,43.6931685 164.785759,44.5293912 C163.938291,45.3422979 162.822468,45.771437 161.557278,45.771437 L143.606013,45.771437 C142.348418,45.771437 141.221203,45.31142 140.346519,44.4399084 C139.471835,43.5696571 139.009177,42.4473418 139.009177,41.193953 L139.009177,14.424746 C139.009177,13.1303969 139.481962,11.9910672 140.376266,11.1290079 C141.251582,10.2896345 142.367405,9.84726202 143.606013,9.84726202 L161.557278,9.84726202 Z M178.554873,9.847199 C180.921329,9.847199 183.090949,10.358259 185.002342,11.3658852 C186.967532,12.4037591 188.521329,13.8846357 189.620696,15.7675545 C190.704241,17.629678 191.253608,19.7583593 191.253608,22.0956236 C191.253608,24.4593547 190.633354,26.600009 189.409304,28.4589817 C188.720696,29.5081985 187.877658,30.4219309 186.897911,31.1863152 L191.625759,38.7551699 C192.142848,39.58131 192.405506,40.4685756 192.405506,41.3923905 C192.405506,42.5922156 191.963734,43.6666388 191.127025,44.4997106 C190.544114,45.0794581 189.509937,45.771374 187.887785,45.771374 C186.251709,45.771374 184.859937,45.0076198 183.968165,43.6212673 L177.864367,33.8689074 L176.002975,33.8689074 L176.002975,41.19389 C176.002975,42.4296342 175.558038,43.5412369 174.716899,44.4089676 C173.850443,45.3006443 172.706139,45.771374 171.406139,45.771374 C170.147278,45.771374 169.020063,45.3107269 168.14538,44.4385851 C167.271329,43.568964 166.808671,42.4472787 166.808671,41.19389 L166.808671,14.424683 C166.808671,13.1297037 167.282089,11.990374 168.177658,11.1289449 C169.04981,10.2902017 170.166266,9.847199 171.406139,9.847199 L178.554873,9.847199 Z M178.554873,18.6851964 L176.002975,18.6851964 L176.002975,25.0315402 L178.554873,25.0315402 C179.748544,25.0315402 180.632089,24.7460776 181.337152,24.1323015 C181.946646,23.6010764 182.218797,22.9728067 182.218797,22.0956236 C182.218797,21.0514481 181.912468,20.2732002 181.254241,19.6474511 C180.563101,18.9908241 179.704873,18.6851964 178.554873,18.6851964 Z" id="Combined-Shape" fill="#FFD68F"></path>
                <path d="M89.8613924,50.2130585 C93.3063291,50.2130585 96.4468354,50.9957175 99.1962025,52.5377196 C101.973418,54.0954757 104.167722,56.2959953 105.718354,59.0768924 C107.249367,61.8237609 108.025316,64.9657399 108.025316,68.4158672 C108.025316,71.864104 107.25,75.0104941 105.721519,77.7687055 C104.172152,80.5622058 101.985443,82.7702873 99.2208861,84.3305641 C96.4822785,85.8744566 93.3335443,86.6571157 89.8613924,86.6571157 C86.3911392,86.6571157 83.2373418,85.8750868 80.4879747,84.3330847 C77.7044304,82.7715476 75.5139241,80.5603153 73.9765823,77.7592531 C73.1132031,76.18681 72.4929174,74.4873901 72.1196136,72.6770664 C71.7452359,74.4899794 71.1177794,76.1927086 70.2444304,77.7687055 C68.6944304,80.5634661 66.5070886,82.7715476 63.7437975,84.3305641 C61.0051899,85.8744566 57.8564557,86.6571157 54.3843038,86.6571157 C50.9140506,86.6571157 47.7602532,85.8750868 45.0108861,84.3330847 C42.2273418,82.7715476 40.0368354,80.5603153 38.4994937,77.7592531 C37.6326203,76.1804462 37.010812,74.4736326 36.6380047,72.6550813 C36.27131,74.3971979 35.6658571,76.0341866 34.8275949,77.550481 C33.3187342,80.279705 31.1788608,82.4411546 28.4655696,83.976225 C25.7801266,85.4949111 22.6965823,86.2655971 19.3010127,86.2655971 L12.1744304,86.2655971 C10.9206329,86.2655971 9.79721519,85.8062103 8.92632911,84.9378495 C8.05544304,84.070749 7.59468354,82.9534749 7.59468354,81.7057576 L7.59468354,55.1646686 C7.59468354,53.8766211 8.06556962,52.7417025 8.95544304,51.8834242 C9.82822785,51.0465714 10.9408861,50.6054592 12.1744304,50.6054592 L19.3010127,50.6054592 C22.6953165,50.6054592 25.7788608,51.3755151 28.4655696,52.8948314 C31.1775949,54.4299017 33.3168354,56.5831593 34.8244304,59.295369 C35.6642857,60.8062185 36.2708401,62.439914 36.6403571,64.1813488 C37.0110949,62.3636187 37.6340602,60.6595323 38.5026582,59.0857147 C40.04,56.3010365 42.2298734,54.0973662 45.0102532,52.5377196 C47.7589873,50.9957175 50.9127848,50.2130585 54.3843038,50.2130585 C57.8292405,50.2130585 60.9697468,50.9957175 63.7191139,52.5377196 C66.4956962,54.0954757 68.69,56.2953651 70.2412658,59.0768924 C71.1161302,60.6465315 71.7444433,62.3451863 72.122308,64.1566306 C72.4938914,62.3480219 73.1151245,60.6523288 73.9797468,59.0857147 C75.5170886,56.3010365 77.706962,54.0973662 80.4873418,52.5377196 C83.2360759,50.9957175 86.3898734,50.2130585 89.8613924,50.2130585 Z M121.085696,50.6054592 C124.48,50.6054592 127.563544,51.3755151 130.250253,52.8948314 C132.961013,54.4286414 135.100253,56.581899 136.609114,59.295369 C138.09962,61.9760706 138.855316,65.044951 138.855316,68.4156781 C138.855316,71.7845148 138.100886,74.8578063 136.612278,77.550481 C135.103418,80.279705 132.963544,82.4405244 130.250886,83.976225 C127.56481,85.4949111 124.481266,86.2655971 121.085696,86.2655971 L113.958481,86.2655971 C112.704051,86.2655971 111.580633,85.8062103 110.709747,84.9372193 C109.840127,84.070749 109.379367,82.9534749 109.379367,81.7057576 L109.379367,55.1646686 C109.379367,53.8766211 109.850253,52.7417025 110.740127,51.8834242 C111.612278,51.0465714 112.724304,50.6054592 113.958481,50.6054592 L121.085696,50.6054592 Z M187.864873,50.6052072 C189.125633,50.6052072 190.237658,51.0324558 191.07943,51.8409514 C191.947152,52.6733931 192.40538,53.7824751 192.40538,55.0472067 C192.40538,56.3037462 191.935127,57.4027457 191.045886,58.2263651 C190.207911,59.0008321 189.108544,59.4104362 187.864873,59.4104362 L174.646519,59.4104362 L174.646519,63.8952867 L183.415506,63.8952867 C184.631329,63.8952867 185.723734,64.3105623 186.575633,65.0970022 C187.47943,65.937636 187.95538,67.0435672 187.95538,68.2982163 C187.95538,69.5534955 187.47943,70.6581664 186.578797,71.494389 C185.728797,72.2833496 184.635127,72.7005157 183.415506,72.7005157 L174.646519,72.7005157 L174.646519,77.460116 L187.864873,77.460116 C189.108544,77.460116 190.207911,77.8697202 191.045253,78.6429268 C191.935127,79.4678065 192.40538,80.566806 192.40538,81.8233455 C192.40538,83.0861866 191.947152,84.1946385 191.081329,85.0277103 C190.237025,85.8380964 189.125,86.265345 187.864873,86.265345 L170.067405,86.265345 C168.813608,86.265345 167.69019,85.8059582 166.818671,84.9375974 C166.144593,84.265962 165.716579,83.4438521 165.557864,82.5280807 C165.40215,83.4439146 164.973469,84.266489 164.298165,84.9388577 C163.426646,85.8065884 162.303861,86.265345 161.050696,86.265345 L144.750063,86.265345 C143.479177,86.265345 142.351962,85.7952455 141.49057,84.9067196 C140.653228,84.0446604 140.21019,82.9374688 140.21019,81.7061357 L140.21019,55.1644165 C140.21019,53.9166992 140.670949,52.798795 141.543101,51.9304342 C142.415253,51.0633337 143.524114,50.6052072 144.750063,50.6052072 C146.001962,50.6052072 147.124114,51.0639638 147.995633,51.9304342 C148.867785,52.7994251 149.328544,53.9173294 149.328544,55.1644165 L149.328544,77.1462962 L161.050696,77.1462962 C162.301962,77.1462962 163.424114,77.6050529 164.296899,78.4715232 C164.889289,79.0613383 165.291866,79.7658233 165.489393,80.5477378 L165.488291,55.1644165 C165.488291,53.8776293 165.958544,52.7427107 166.849051,51.8831721 C167.72057,51.0463193 168.832595,50.6052072 170.067405,50.6052072 L187.864873,50.6052072 Z M54.3843038,58.9395175 C52.5982278,58.9395175 50.9988608,59.3484915 49.6311392,60.1563569 C48.2659494,60.9610715 47.183038,62.0871679 46.411519,63.5018776 C45.6216456,64.9493557 45.2216456,66.602266 45.2216456,68.4158672 C45.2216456,70.2294684 45.6216456,71.8823787 46.4108861,73.3279663 C47.1836709,74.7458268 48.2748101,75.8788549 49.6551899,76.6974331 C51.0349367,77.5160112 52.625443,77.9306567 54.3843038,77.9306567 C56.1431646,77.9306567 57.7336709,77.5160112 59.1134177,76.6980632 C60.4931646,75.8794851 61.5849367,74.7458268 62.3577215,73.3292266 C63.146962,71.8804882 63.5475949,70.2275779 63.5475949,68.4158672 C63.5475949,66.6047866 63.146962,64.9512462 62.3577215,63.5018776 C61.5855696,62.0865377 60.5026582,60.9610715 59.1381013,60.1563569 C57.7703797,59.3484915 56.1710127,58.9395175 54.3843038,58.9395175 Z M89.8613924,58.9395175 C88.0746835,58.9395175 86.4753165,59.3484915 85.1082278,60.1563569 C83.743038,60.9617017 82.6594937,62.0871679 81.8873418,63.5025078 C81.0987342,64.9493557 80.6987342,66.6028962 80.6987342,68.4158672 C80.6987342,70.2288382 81.0987342,71.8817485 81.8879747,73.3292266 C82.671519,74.7659919 83.7322785,75.867512 85.1322785,76.6974331 C86.5120253,77.5160112 88.1025316,77.9306567 89.8613924,77.9306567 C91.6196203,77.9306567 93.2107595,77.5160112 94.5905063,76.6974331 C95.9702532,75.8794851 97.0620253,74.7458268 97.8348101,73.3292266 C98.6240506,71.8811183 99.0246835,70.2275779 99.0246835,68.4158672 C99.0246835,66.6041565 98.6240506,64.950616 97.8348101,63.5018776 C97.0626582,62.0865377 95.9797468,60.9610715 94.6151899,60.1563569 C93.2474684,59.3484915 91.6481013,58.9395175 89.8613924,58.9395175 Z M19.3010127,59.2531482 L16.7535443,59.2531482 L16.7535443,77.6166478 L19.3010127,77.6166478 C21.0181013,77.6166478 22.5579747,77.2303596 23.8775949,76.4678657 C25.1927848,75.7085226 26.191519,74.6674979 26.9301266,73.2880771 C27.6864557,71.8746277 28.07,70.2349507 28.07,68.4156781 C28.07,66.6001865 27.6870886,64.9693318 26.9332911,63.5691157 C26.1953165,62.2010378 25.1953165,61.1650544 23.8763291,60.4025605 C22.5567089,59.6400666 21.0168354,59.2531482 19.3010127,59.2531482 Z M121.085696,59.2531482 L118.538228,59.2531482 L118.538228,77.6166478 L121.085696,77.6166478 C122.802785,77.6166478 124.342658,77.2303596 125.662278,76.4678657 C126.977468,75.7078924 127.976203,74.6668677 128.71481,73.2880771 C129.471139,71.8746277 129.854684,70.2349507 129.854684,68.4156781 C129.854684,66.6001865 129.471772,64.9693318 128.717975,63.5691157 C127.98,62.2010378 126.98,61.1650544 125.661013,60.4025605 C124.341392,59.6400666 122.801519,59.2531482 121.085696,59.2531482 Z M22.2394304,7.6013079 C24.9660127,7.6013079 27.3381646,8.18546645 29.2894304,9.33739937 C31.1925949,10.4628656 32.8141139,12.0697742 34.1109494,14.1146442 C34.6862658,15.0220749 34.978038,15.9534517 34.978038,16.8829381 C34.978038,18.2919764 34.3122152,19.5308714 33.1027215,20.3727655 C32.3255063,20.8680715 31.5052532,21.1043815 30.6198101,21.1043815 C29.7736076,21.1043815 28.9742405,20.8913874 28.241962,20.4710705 C27.4837342,20.0337393 26.891962,19.4281553 26.4831013,18.6700725 C26.0362658,17.9340454 25.463481,17.3530376 24.7615823,16.9478446 C24.085,16.5577754 23.1432278,16.3592749 21.9615823,16.3592749 C20.441962,16.3592749 19.2514557,16.6220518 18.4229747,17.1400435 C17.913481,17.4582744 17.7413291,17.7727243 17.7413291,18.3858703 C17.7413291,19.0078384 17.9609494,19.4432791 18.4982911,19.8888024 C18.8217089,20.1578809 19.9153797,20.8157682 23.091962,21.1384102 C26.8033544,21.5064238 29.7793038,22.6892345 31.9324684,24.6528139 C34.2172785,26.7392744 35.3748734,29.4867731 35.3748734,32.8190604 C35.3748734,35.2697536 34.6812025,37.4249016 33.3128481,39.2240091 C32.0001899,40.950018 30.2514557,42.2506687 28.1147468,43.0919327 C26.1172785,43.8777425 23.9539873,44.2760038 21.6837342,44.2760038 C18.691962,44.2760038 15.9210759,43.5840878 13.4476582,42.2210512 C10.8451266,40.7880668 9.01031646,38.845913 7.99322785,36.4494136 C7.72487342,35.8104311 7.59512658,35.231944 7.59512658,34.6780331 C7.59512658,33.627556 7.98879747,32.6621505 8.73436709,31.8864233 C9.37107595,31.2253852 10.1900633,30.780492 11.1698101,30.5637169 C11.4185443,30.4950295 11.7482911,30.4565897 12.1514557,30.4565897 C13.0748734,30.4565897 13.9489241,30.7218871 14.7501899,31.24429 C15.5501899,31.7666928 16.1501899,32.4743628 16.5356329,33.3477649 C16.7432278,33.7951786 17.3324684,34.2917449 18.1856329,34.724665 C19.2229747,35.2508488 20.4001899,35.5180367 21.6837342,35.5180367 C23.1527215,35.5180367 24.3793038,35.200436 25.3286709,34.5740567 C25.9989241,34.1304239 26.2609494,33.6716672 26.2609494,32.9381607 C26.2609494,32.1435286 25.9742405,31.5272319 25.3312025,30.9374019 C24.5938608,30.2618702 23.2596835,29.8113056 21.4717089,29.6336004 C17.6831013,29.2687376 14.6077848,28.1048317 12.3356329,26.175281 C9.87550633,24.0894506 8.62740506,21.4282839 8.62740506,18.2680303 C8.62740506,16.009536 9.29702532,14.0150788 10.6179114,12.3407431 C11.863481,10.7590409 13.563481,9.54787289 15.6691772,8.73874714 C17.6337342,7.98381517 19.8444937,7.6013079 22.2394304,7.6013079 Z M98.0935443,7.56160781 C100.388481,7.56160781 102.434051,7.87794825 104.173291,8.50117673 C105.902405,9.12188456 107.651772,10.1377029 109.373291,11.5209046 C109.984684,11.97462 110.473924,12.5770532 110.752405,13.2355706 C110.989747,13.799564 111.109367,14.4278338 111.109367,15.1039957 C111.109367,16.3403701 110.606203,17.4708776 109.691013,18.2863049 C108.846709,19.0424972 107.801772,19.4432791 106.672025,19.4432791 C105.572658,19.4432791 104.566962,19.0803068 103.683418,18.3631845 C102.775823,17.5937588 101.937215,17.0587528 101.168228,16.7537552 C100.451139,16.4701831 99.3872152,16.320205 98.0935443,16.320205 C96.4979747,16.320205 95.0732911,16.7247679 93.7372152,17.5572095 C92.3834177,18.4003639 91.2897468,19.5718318 90.4859494,21.0369544 C89.6770886,22.5121595 89.266962,24.1480555 89.266962,25.8992708 C89.266962,27.6738021 89.6758228,29.3147393 90.4821519,30.7741904 C91.2853165,32.2292304 92.3808861,33.3950269 93.7378481,34.2413321 C95.0720253,35.0737738 96.4967089,35.4783366 98.0935443,35.4783366 C100.091013,35.4783366 101.984684,34.7895715 103.882152,33.3729713 C104.810633,32.7169745 105.753671,32.3949626 106.711266,32.3949626 C107.911899,32.3949626 109.016329,32.8713637 109.820759,33.7365737 C110.585949,34.559563 110.991013,35.6365069 110.991013,36.852086 C110.991013,38.0796381 110.51443,39.2025837 109.612532,40.0993017 L109.518861,40.1919352 L109.415696,40.2751164 C106.104304,42.9306116 102.296709,44.2760038 98.0935443,44.2760038 C94.8087342,44.2760038 91.7587342,43.4504938 89.0283544,41.8221598 C86.3093671,40.2007575 84.1378481,37.9554965 82.5751899,35.1487628 C81.0201266,32.3565228 80.231519,29.2441614 80.231519,25.8992708 C80.231519,22.5776962 81.0207595,19.4848697 82.5777215,16.7046027 C84.1378481,13.9167738 86.3055696,11.6752939 89.0188608,10.0412884 C91.753038,8.39593997 94.8062025,7.56160781 98.0935443,7.56160781 Z M62.1526582,7.9567813 C63.4089873,7.9567813 64.5286076,8.41049667 65.3912658,9.2675146 C66.2539241,10.1276833 66.7096203,11.2569305 66.7096203,12.5342653 L66.7096203,39.3034723 C66.7096203,40.5826976 66.2539241,41.7119448 65.3918987,42.570223 C64.5317722,43.4272409 63.411519,43.8809563 62.1526582,43.8809563 C61.5450633,43.8809563 60.9336709,43.7631163 60.3355696,43.5293269 C59.5602532,43.2262198 58.94,42.7441472 58.4918987,42.0963425 L45.7798734,25.2616117 L45.7798734,39.3034723 C45.7798734,40.5398467 45.3349367,41.6520795 44.4925316,42.51918 C43.6286076,43.4095964 42.4836709,43.8809563 41.1836709,43.8809563 C39.9235443,43.8809563 38.8020253,43.4259806 37.9412658,42.566442 C37.0817722,41.7132051 36.6260759,40.5839579 36.6260759,39.3034723 L36.6260759,12.5342653 C36.6260759,11.2556702 37.0817722,10.126423 37.9437975,9.2675146 C38.8058228,8.41049667 39.9260759,7.9567813 41.1836709,7.9567813 C41.868481,7.9567813 42.5431646,8.11936264 43.1881013,8.44074436 C43.7760759,8.73439903 44.2767089,9.1137555 44.6773418,9.56936135 L44.7640506,9.67459811 L57.5558228,26.6164562 L57.5558228,12.5342653 C57.5558228,11.2386558 58.0292405,10.0993261 58.9248101,9.23789707 C59.7963291,8.39978395 60.9121519,7.9567813 62.1526582,7.9567813 Z M74.1856962,7.9567813 C75.4667089,7.9567813 76.6002532,8.40986651 77.4629114,9.26625428 C78.3268354,10.1276833 78.7825316,11.2569305 78.7825316,12.5342653 L78.7825316,39.3034723 C78.7825316,40.5392165 78.3375949,41.6514494 77.4951899,42.5185499 C76.6306329,43.4095964 75.4863291,43.8809563 74.1856962,43.8809563 C72.9274684,43.8809563 71.8002532,43.4209393 70.9255696,42.5494277 C70.0508861,41.6791764 69.5888608,40.556861 69.5888608,39.3034723 L69.5888608,12.5342653 C69.5888608,11.2399162 70.0616456,10.1005864 70.9559494,9.23852723 C71.83,8.39978395 72.9464557,7.9567813 74.1856962,7.9567813 Z M134.034747,7.9567813 C135.640443,7.9567813 136.63538,8.66697189 137.187278,9.26310347 C137.925253,10.0652975 138.314494,11.0722935 138.314494,12.1775946 C138.314494,13.5336994 137.796772,14.7656627 136.817658,15.7398904 L128.225253,24.3296047 L137.266392,36.5862214 C137.860063,37.4148821 138.155633,38.3380668 138.155633,39.3438026 C138.155633,40.4604465 137.772089,41.5058824 137.047405,42.3673114 C136.225886,43.3427995 135.071456,43.8809563 133.796772,43.8809563 C132.215759,43.8809563 130.866392,43.1808483 129.996772,41.9091849 L121.75057,30.7805551 L121.713228,30.8183647 L121.713228,39.3034723 C121.713228,40.5562309 121.251203,41.6791764 120.375886,42.5500579 C119.501203,43.4209393 118.373987,43.8809563 117.117025,43.8809563 C115.899937,43.8809563 114.789177,43.4303917 113.905,42.5777849 C112.999304,41.7056431 112.519557,40.572615 112.519557,39.3034723 L112.519557,12.5342653 C112.519557,11.2644924 112.999937,10.1314643 113.907532,9.25806219 C114.791709,8.40671571 115.901203,7.9567813 117.117025,7.9567813 C118.373354,7.9567813 119.499937,8.41742843 120.375253,9.28767972 C121.25057,10.1585612 121.713228,11.2815067 121.713228,12.5342653 L121.713228,18.3115744 L130.537278,9.5258803 C131.063861,9.00032665 131.57462,8.62475115 132.096772,8.37772834 C132.689177,8.09856735 133.341076,7.9567813 134.034747,7.9567813 Z M161.557278,7.9567813 C162.822468,7.9567813 163.938291,8.38529026 164.782595,9.19567633 C165.654114,10.0350498 166.114241,11.1479128 166.114241,12.415165 C166.114241,13.6761156 165.642722,14.7795262 164.750949,15.6062965 C163.907911,16.3839142 162.804114,16.7947787 161.557278,16.7947787 L148.202848,16.7947787 L148.202848,21.3621801 L157.069304,21.3621801 C158.292089,21.3621801 159.388924,21.7799763 160.242722,22.5701973 C161.147785,23.4102009 161.626266,24.5192829 161.626266,25.7802335 C161.626266,27.0229095 161.136392,28.1622393 160.246519,28.9883793 C159.388924,29.7811209 158.291456,30.1989172 157.069304,30.1989172 L148.202848,30.1989172 L148.202848,35.0435891 L161.557278,35.0435891 C162.802848,35.0435891 163.906013,35.4531932 164.747152,36.2282903 C165.642089,37.0594717 166.114241,38.1628823 166.114241,39.4225726 C166.114241,40.690455 165.654747,41.8026878 164.785759,42.6389105 C163.938291,43.4518172 162.822468,43.8809563 161.557278,43.8809563 L143.606013,43.8809563 C142.348418,43.8809563 141.221203,43.4209393 140.346519,42.5494277 C139.471835,41.6791764 139.009177,40.556861 139.009177,39.3034723 L139.009177,12.5342653 C139.009177,11.2399162 139.481962,10.1005864 140.376266,9.23852723 C141.251582,8.39915378 142.367405,7.9567813 143.606013,7.9567813 L161.557278,7.9567813 Z M178.554873,7.95671828 C180.921329,7.95671828 183.090949,8.46777824 185.002342,9.47540446 C186.967532,10.5132784 188.521329,11.9941549 189.620696,13.8770737 C190.704241,15.7391973 191.253608,17.8678785 191.253608,20.2051429 C191.253608,22.5688739 190.633354,24.7095283 189.409304,26.568501 C188.720696,27.6177178 187.877658,28.5314501 186.897911,29.2958345 L191.625759,36.8646892 C192.142848,37.6908292 192.405506,38.5780949 192.405506,39.5019098 C192.405506,40.7017349 191.963734,41.7761581 191.127025,42.6092299 C190.544114,43.1889773 189.509937,43.8808933 187.887785,43.8808933 C186.251709,43.8808933 184.859937,43.1171391 183.968165,41.7307865 L177.864367,31.9784267 L176.002975,31.9784267 L176.002975,39.3034093 C176.002975,40.5391535 175.558038,41.6507562 174.716899,42.5184868 C173.850443,43.4101636 172.706139,43.8808933 171.406139,43.8808933 C170.147278,43.8808933 169.020063,43.4202461 168.14538,42.5481044 C167.271329,41.6784832 166.808671,40.556798 166.808671,39.3034093 L166.808671,12.5342023 C166.808671,11.239223 167.282089,10.0998933 168.177658,9.23846421 C169.04981,8.39972093 170.166266,7.95671828 171.406139,7.95671828 L178.554873,7.95671828 Z M178.554873,16.7947157 L176.002975,16.7947157 L176.002975,23.1410594 L178.554873,23.1410594 C179.748544,23.1410594 180.632089,22.8555969 181.337152,22.2418208 C181.946646,21.7105957 182.218797,21.0823259 182.218797,20.2051429 C182.218797,19.1609674 181.912468,18.3827195 181.254241,17.7569703 C180.563101,17.1003434 179.704873,16.7947157 178.554873,16.7947157 Z" id="Combined-Shape" fill="#373354"></path>
                <path d="M54.384557,50.2131845 C57.6092405,50.2131845 60.5408861,50.9410196 63.0978481,52.3752643 C65.6681013,53.8170709 67.6991139,55.854379 69.1351899,58.4279534 C70.5598734,60.9857738 71.2826582,63.9223205 71.2826582,67.1556727 C71.2826582,70.3877646 70.5605063,73.3299828 69.1364557,75.8991461 C67.7016456,78.4878443 65.676962,80.531454 63.12,81.9738908 C60.5750633,83.4087657 57.6358228,84.1366007 54.384557,84.1366007 C51.134557,84.1366007 48.1896203,83.4093958 45.6326582,81.9751511 C43.0586076,80.531454 41.0326582,78.4859539 39.6111392,75.8947349 C38.2016456,73.3280923 37.4870886,70.3877646 37.4870886,67.1556727 C37.4870886,63.9223205 38.2022785,60.9876643 39.6124051,58.4323645 C41.034557,55.8562695 43.0598734,53.8183312 45.6320253,52.3752643 C48.1883544,50.9410196 51.1332911,50.2131845 54.384557,50.2131845 Z M89.8616456,50.2131845 C93.0863291,50.2131845 96.0179747,50.9410196 98.5749367,52.3752643 C101.14519,53.8170709 103.176203,55.8537488 104.612278,58.4279534 C106.036962,60.9857738 106.759747,63.9223205 106.759747,67.1556727 C106.759747,70.3877646 106.037595,73.3299828 104.613544,75.8991461 C103.178734,78.4878443 101.154684,80.5308238 98.5970886,81.9738908 C96.0521519,83.4087657 93.1129114,84.1366007 89.8616456,84.1366007 C86.6116456,84.1366007 83.6667089,83.4093958 81.1097468,81.9751511 C78.5356962,80.531454 76.5097468,78.4859539 75.0882278,75.8947349 C73.6787342,73.3280923 72.9641772,70.3877646 72.9641772,67.1556727 C72.9641772,63.9223205 73.6793671,60.9876643 75.0894937,58.4323645 C76.5116456,55.8562695 78.536962,53.8183312 81.1091139,52.3752643 C83.665443,50.9410196 86.6103797,50.2131845 89.8616456,50.2131845 Z M19.3012658,50.6055853 C22.4740506,50.6055853 25.3474684,51.3208172 27.8411392,52.7304856 C30.3468354,54.1489763 32.3234177,56.1383922 33.7177215,58.6457998 C35.1025316,61.1374534 35.8050633,64.0002714 35.8050633,67.1554837 C35.8050633,70.3094357 35.1031646,73.1779251 33.7189873,75.6828121 C32.3246835,78.2047133 30.3474684,80.2023213 27.8411392,81.6201818 C25.3487342,83.0298503 22.4753165,83.7450822 19.3012658,83.7450822 L19.3012658,83.7450822 L12.1746835,83.7450822 C11.264557,83.7450822 10.4506329,83.4136179 9.8221519,82.7872386 C9.19367089,82.1614895 8.86075949,81.3517336 8.86075949,80.4455632 L8.86075949,80.4455632 L8.86075949,53.9044741 C8.86075949,52.9655354 9.19873418,52.1438064 9.83670886,51.52877 C10.4670886,50.9238162 11.2746835,50.6055853 12.1746835,50.6055853 L12.1746835,50.6055853 Z M121.085949,50.6055853 C124.258734,50.6055853 127.132152,51.3208172 129.625823,52.7304856 C132.130886,54.1483462 134.107468,56.1383922 135.501772,58.6457998 C136.887215,61.1374534 137.589747,64.0002714 137.589747,67.1554837 C137.589747,70.3094357 136.887848,73.1779251 135.503671,75.6828121 C134.109367,78.2047133 132.131519,80.2023213 129.625823,81.6201818 C127.133418,83.0298503 124.26,83.7450822 121.085949,83.7450822 L121.085949,83.7450822 L113.958734,83.7450822 C113.048608,83.7450822 112.234684,83.4136179 111.606203,82.7866085 C110.978354,82.1614895 110.645443,81.3517336 110.645443,80.4455632 L110.645443,80.4455632 L110.645443,53.9044741 C110.645443,52.9655354 110.983418,52.1438064 111.621392,51.52877 C112.251772,50.9238162 113.058734,50.6055853 113.958734,50.6055853 L113.958734,50.6055853 Z M144.750506,50.6055223 C145.659367,50.6055223 146.472025,50.9357262 147.101139,51.5614753 C147.730886,52.1891149 148.063165,52.9988709 148.063165,53.9044111 L148.063165,53.9044111 L148.063165,77.1466113 L161.051139,77.1466113 C161.960633,77.1466113 162.773291,77.4774454 163.403038,78.1038247 C164.032152,78.730204 164.36443,79.5399599 164.36443,80.4455001 C164.36443,81.3516706 164.032152,82.1614265 163.403671,82.7871756 C162.774557,83.4135549 161.960633,83.7450192 161.051139,83.7450192 L161.051139,83.7450192 L144.750506,83.7450192 C143.830886,83.7450192 143.018861,83.4085136 142.401772,82.7714216 C141.796709,82.1481931 141.475823,81.3434785 141.475823,80.4455001 L141.475823,80.4455001 L141.475823,53.9044111 C141.475823,52.9982407 141.808734,52.1884848 142.437848,51.5614753 C143.067595,50.9357262 143.866962,50.6055223 144.750506,50.6055223 Z M187.865253,50.6052072 C188.792468,50.6052072 189.600063,50.9108349 190.201329,51.4880617 C190.815253,52.0772615 191.139937,52.8725237 191.139937,53.7868862 C191.139937,54.6848646 190.808924,55.4643728 190.184241,56.0428599 C189.576013,56.605593 188.796266,56.8897953 187.865253,56.8897953 L187.865253,56.8897953 L173.381076,56.8897953 L173.381076,63.8952867 L183.415886,63.8952867 C184.307025,63.8952867 185.101962,64.1952429 185.715253,64.7611268 C186.353228,65.3553679 186.689937,66.1418079 186.689937,67.0378958 C186.689937,67.935244 186.352595,68.7210538 185.715886,69.3121441 C185.104494,69.8799185 184.308924,70.1798747 183.415886,70.1798747 L183.415886,70.1798747 L173.381076,70.1798747 L173.381076,77.4607462 L187.865253,77.4607462 C188.796266,77.4607462 189.576013,77.7449484 190.183608,78.3064212 C190.808924,78.8855385 191.139937,79.6656768 191.139937,80.563025 C191.139937,81.4767574 190.815253,82.2713894 190.201962,82.8618496 C189.598797,83.4403367 188.791835,83.7447041 187.865253,83.7447041 L187.865253,83.7447041 L170.067785,83.7447041 C169.157025,83.7447041 168.343734,83.41387 167.715253,82.7868605 C167.086772,82.1611114 166.754494,81.3513555 166.754494,80.4458152 L166.754494,80.4458152 L166.754494,53.9047262 C166.754494,52.9657874 167.091835,52.1446886 167.730443,51.5283919 C168.36019,50.9234381 169.167785,50.6052072 170.067785,50.6052072 L170.067785,50.6052072 Z M54.384557,56.4190025 C52.3681013,56.4190025 50.5522785,56.8872116 48.9858228,57.8116567 C47.4218987,58.7348414 46.1813924,60.0235191 45.2991139,61.6405103 C44.4079747,63.2745158 43.9560759,65.1297076 43.9560759,67.1556727 C43.9560759,69.1816379 44.4079747,71.0368297 45.2991139,72.6695748 C46.1813924,74.2884565 47.4294937,75.5840659 49.0079747,76.5198539 C50.5858228,77.456272 52.3946835,77.9307827 54.384557,77.9307827 C56.3744304,77.9307827 58.1832911,77.456272 59.7611392,76.5198539 C61.3396203,75.5840659 62.5877215,74.2884565 63.47,72.670205 C64.3617722,71.0349392 64.8136709,69.1797474 64.8136709,67.1556727 C64.8136709,65.131598 64.3617722,63.2764063 63.47,61.6405103 C62.5877215,60.022889 61.3472152,58.7342113 59.7832911,57.8116567 C58.2174684,56.8872116 56.4010127,56.4190025 54.384557,56.4190025 Z M89.8616456,56.4190025 C87.8451899,56.4190025 86.0287342,56.8872116 84.4629114,57.8116567 C82.8989873,58.7348414 81.658481,60.022889 80.7755696,61.6405103 C79.8850633,63.2745158 79.4331646,65.1303377 79.4331646,67.1556727 C79.4331646,69.1816379 79.8850633,71.0361995 80.7755696,72.670205 C81.6711392,74.3124026 82.8844304,75.5714627 84.4850633,76.5198539 C86.0629114,77.456272 87.8717722,77.9307827 89.8616456,77.9307827 C91.8508861,77.9307827 93.6597468,77.456272 95.2382278,76.5198539 C96.8167089,75.5840659 98.0648101,74.2884565 98.9470886,72.670205 C99.8388608,71.0349392 100.290759,69.1797474 100.290759,67.1556727 C100.290759,65.131598 99.8388608,63.2764063 98.9470886,61.6405103 C98.0648101,60.022889 96.8243038,58.7342113 95.2603797,57.8116567 C93.694557,56.8872116 91.8781013,56.4190025 89.8616456,56.4190025 Z M19.3012658,56.7326333 L15.4879747,56.7326333 L15.4879747,77.6167738 L19.3012658,77.6167738 C21.2443038,77.6167738 22.9974684,77.173141 24.5132911,76.2978485 C26.0386076,75.4168844 27.1943038,74.2139085 28.0474684,72.6202333 C28.9025316,71.0221469 29.3360759,69.1833393 29.3360759,67.1554837 C29.3360759,65.1301487 28.9031646,63.2982728 28.0487342,61.7134198 C27.1968354,60.132978 26.0392405,58.9350433 24.5126582,58.0521888 C22.9968354,57.1768963 21.2436709,56.7326333 19.3012658,56.7326333 L19.3012658,56.7326333 Z M121.085949,56.7326333 L117.272658,56.7326333 L117.272658,77.6167738 L121.085949,77.6167738 C123.028987,77.6167738 124.782152,77.173141 126.297975,76.2978485 C127.823291,75.4162543 128.97962,74.2132784 129.832152,72.6202333 C130.687215,71.0221469 131.120759,69.1833393 131.120759,67.1554837 C131.120759,65.1301487 130.687848,63.2982728 129.833418,61.7134198 C128.981519,60.132978 127.824557,58.9350433 126.297342,58.0521888 C124.781519,57.1768963 123.028354,56.7326333 121.085949,56.7326333 L121.085949,56.7326333 Z M22.24,7.60162298 C24.7355696,7.60162298 26.8906329,8.12654646 28.6444304,9.16126958 C30.3729114,10.1833895 31.8520253,11.652293 33.0406329,13.5270197 C33.4862025,14.2296484 33.7121519,14.9347977 33.7121519,15.6229327 C33.7121519,16.6223668 33.2507595,17.472453 32.3773418,18.0799275 C31.8355696,18.423995 31.2596203,18.5834255 30.6197468,18.5834255 C29.9988608,18.5834255 29.411519,18.4271458 28.8748101,18.1189974 C28.3235443,17.8013966 27.8944304,17.362175 27.5982278,16.8133054 C27.0197468,15.8554618 26.29,15.1131331 25.3975949,14.597662 C24.525443,14.0941639 23.3691139,13.838949 21.961519,13.838949 C20.2007595,13.838949 18.7836709,14.1660022 17.7501266,14.8125466 C16.8691139,15.3633067 16.4760759,16.0766481 16.4760759,17.1258649 C16.4760759,18.1265593 16.861519,18.911739 17.6881013,19.5973533 C18.3146835,20.1172355 19.7374684,20.8047403 22.9634177,21.1317935 C26.4001266,21.4727102 29.1311392,22.5465033 31.0779747,24.3222948 C33.0893671,26.1598421 34.1096203,28.5941511 34.1096203,31.559055 C34.1096203,33.7293269 33.5020253,35.6279997 32.3039241,37.2034003 C31.1336709,38.7416214 29.5678481,39.9042671 27.6494937,40.6591991 C25.8007595,41.3870341 23.7937975,41.7556779 21.6836709,41.7556779 C18.9096203,41.7556779 16.3444304,41.1173255 14.0608861,39.8582654 C11.7127848,38.5645464 10.0634177,36.8284549 9.15962025,34.6985133 C8.95772152,34.2195916 8.86088608,33.8017953 8.86088608,33.4173976 C8.86088608,32.6983847 9.13367089,32.0341958 9.64886076,31.4972993 C10.1096203,31.0196379 10.7127848,30.6957355 11.4444304,30.5337843 C11.6406329,30.4808508 11.8627848,30.4569048 12.1520253,30.4569048 C12.8241772,30.4569048 13.4653165,30.6528846 14.0570886,31.0385427 C14.6475949,31.4242007 15.0912658,31.9472337 15.3767089,32.5944083 C15.7191139,33.3335863 16.4741772,34.0110085 17.611519,34.5876051 C18.8279747,35.204532 20.1982278,35.5177216 21.6836709,35.5177216 C23.4064557,35.5177216 24.8678481,35.1295429 26.0279747,34.3638982 C27.0501266,33.6883665 27.5267089,32.8344993 27.5267089,31.6781553 C27.5267089,30.5331541 27.0887342,29.5753106 26.1881013,28.7498007 C25.2343038,27.8751382 23.6893671,27.3268988 21.5975949,27.118946 C18.0697468,26.7792896 15.2286076,25.7155791 13.1577215,23.9568019 C10.9918987,22.1205149 9.89379747,19.7819903 9.89379747,17.0073947 C9.89379747,15.038144 10.4722785,13.3058335 11.6134177,11.8589856 C12.7172152,10.4587695 14.2349367,9.38056534 16.1248101,8.65462075 C17.9437975,7.95577304 20.0013924,7.60162298 22.24,7.60162298 Z M98.0938608,7.56192289 C100.241962,7.56192289 102.143228,7.85305692 103.745127,8.4271329 C105.341329,8.99994856 106.967278,9.9470794 108.578671,11.2414285 C109.041329,11.5861262 109.391962,12.0070732 109.586266,12.4645696 C109.757785,12.8722832 109.843861,13.335451 109.843861,13.8439903 C109.843861,14.7293655 109.499557,15.5050927 108.847025,16.0867306 C108.236899,16.6330796 107.484367,16.9223231 106.672342,16.9223231 C105.871076,16.9223231 105.134367,16.654505 104.482468,16.1258006 C103.484367,15.2788652 102.534367,14.6783225 101.636899,14.3229121 C100.759051,13.9756938 99.5666456,13.799249 98.0938608,13.799249 C96.2533544,13.799249 94.6090506,14.267458 93.0660127,15.2284524 C91.5255063,16.1881864 90.2837342,17.5159341 89.3748734,19.1732555 C88.463481,20.834988 88.0014557,22.6744258 88.0014557,24.6392654 C88.0014557,26.6286813 88.4628481,28.4737905 89.3736076,30.1216595 C90.2818354,31.7670079 91.5242405,33.0884539 93.0660127,34.0494483 C94.6077848,35.011703 96.2527215,35.4786517 98.0938608,35.4786517 C100.375506,35.4786517 102.517278,34.7073356 104.641962,33.1218524 C105.335,32.6322179 106.021709,32.3946475 106.711582,32.3946475 C107.567911,32.3946475 108.321709,32.71918 108.891962,33.3323259 C109.436899,33.918375 109.725506,34.6997737 109.725506,35.5914504 C109.725506,36.4774557 109.376772,37.2922529 108.717911,37.9469894 L108.717911,37.9469894 L108.670443,37.9942514 L108.617911,38.0364721 C105.541329,40.5041796 102.000823,41.7556779 98.0938608,41.7556779 C95.0406962,41.7556779 92.2090506,40.9900332 89.6786709,39.4807994 C87.1533544,37.9753466 85.1356329,35.8876257 83.6824684,33.277502 C82.2324684,30.67431 81.4976582,27.7673808 81.4976582,24.6392654 C81.4976582,21.5350961 82.2331013,18.648332 83.6837342,16.0577433 C85.1356329,13.4640037 87.1508228,11.3788035 89.6742405,9.85885697 C92.2077848,8.3351295 95.0400633,7.56192289 98.0938608,7.56192289 Z M62.1526582,7.95690733 C63.0659494,7.95690733 63.8767089,8.28270017 64.4963291,8.89899689 C65.1165823,9.51718408 65.4444304,10.3382829 65.4444304,11.2740708 L65.4444304,11.2740708 L65.4444304,38.0432779 C65.4444304,38.9809563 65.1165823,39.8014249 64.496962,40.4183518 C63.8792405,41.0340184 63.068481,41.3604414 62.1526582,41.3604414 C61.7032911,41.3604414 61.2475949,41.2709586 60.7975949,41.0957741 C60.2621519,40.8865609 59.8374684,40.5595077 59.5343038,40.1209162 L59.5343038,40.1209162 L44.5140506,20.2280177 L44.5140506,38.0432779 C44.5140506,38.9462975 44.1918987,39.7554232 43.583038,40.3824327 C42.9621519,41.0226755 42.1324051,41.3604414 41.1836709,41.3604414 C40.2678481,41.3604414 39.4564557,41.0340184 38.8374684,40.4164613 C38.2197468,39.8026853 37.8918987,38.9815865 37.8918987,38.0432779 L37.8918987,38.0432779 L37.8918987,11.2740708 C37.8918987,10.3370226 38.2197468,9.51592376 38.8393671,8.89899689 C39.4589873,8.28270017 40.2697468,7.95690733 41.1836709,7.95690733 C41.6710127,7.95690733 42.1551899,8.07537745 42.6229114,8.30790658 C43.0627848,8.52720235 43.4324051,8.80699349 43.7248101,9.13908794 L43.7248101,9.13908794 L43.7836709,9.21092621 L58.8222785,29.1296613 L58.8222785,11.2740708 C58.8222785,10.3288305 59.161519,9.50206024 59.804557,8.8845032 C60.4349367,8.27765889 61.2475949,7.95690733 62.1526582,7.95690733 Z M74.1859494,7.95703336 C75.124557,7.95703336 75.9492405,8.2828262 76.5694937,8.89849276 C77.1897468,9.51731012 77.516962,10.3377787 77.516962,11.2741969 L77.516962,11.2741969 L77.516962,38.0434039 C77.516962,38.9464235 77.1948101,39.7549191 76.5853165,40.3825587 C75.9644304,41.0228015 75.1346835,41.3605674 74.1859494,41.3605674 C73.2707595,41.3605674 72.453038,41.0272126 71.8213924,40.3976826 C71.1891139,39.7687826 70.8549367,38.9546156 70.8549367,38.0434039 L70.8549367,38.0434039 L70.8549367,11.2741969 C70.8549367,10.3295867 71.1941772,9.50281643 71.8365823,8.88462923 C72.4688608,8.27778492 73.2808861,7.95703336 74.1859494,7.95703336 Z M134.035316,7.95690733 C135.182785,7.95690733 135.877089,8.447172 136.256835,8.85740631 C136.775823,9.42076957 137.048608,10.1322205 137.048608,10.9174001 C137.048608,11.9319581 136.659367,12.855773 135.922658,13.5886494 L135.922658,13.5886494 L126.563165,22.9446385 L136.246709,36.0715065 C136.677089,36.6739397 136.889747,37.3456905 136.889747,38.0836081 C136.889747,38.9009259 136.608734,39.6665706 136.077722,40.297361 C135.492278,40.9924278 134.703671,41.3604414 133.796709,41.3604414 C132.631519,41.3604414 131.678987,40.8695465 131.042911,39.93943 L131.042911,39.93943 L121.896076,27.5933306 L120.447975,29.0357674 L120.447975,38.0432779 C120.447975,38.9551197 120.113165,39.7692868 119.480886,40.3988168 C118.849241,41.0277168 118.031519,41.3604414 117.116962,41.3604414 C116.235316,41.3604414 115.428987,41.0321279 114.785949,40.4120502 C114.132152,39.7825201 113.785949,38.9633118 113.785949,38.0432779 L113.785949,38.0432779 L113.785949,11.2740708 C113.785949,10.3540369 114.132152,9.53482857 114.787848,8.90403817 C115.430253,8.28522081 116.236582,7.95690733 117.116962,7.95690733 C118.030253,7.95690733 118.847975,8.28963193 119.480886,8.91916202 C120.113165,9.5486921 120.447975,10.3628591 120.447975,11.2740708 L120.447975,11.2740708 L120.447975,20.0937936 L131.432785,9.15673243 C131.856203,8.73452506 132.251772,8.43961007 132.639747,8.25623344 C133.06,8.05773297 133.52962,7.95690733 134.035316,7.95690733 Z M161.557405,7.95728542 C162.489051,7.95728542 163.300443,8.2635433 163.904873,8.84329072 C164.523228,9.43816199 164.848544,10.2372052 164.848544,11.1553486 C164.848544,12.057108 164.516899,12.8416575 163.889051,13.4226652 C163.277025,13.9879189 162.493481,14.2740117 161.557405,14.2740117 L161.557405,14.2740117 L146.937152,14.2740117 L146.937152,21.3620541 L157.06943,21.3620541 C157.966266,21.3620541 158.765633,21.6632707 159.381456,22.2329355 C160.022595,22.8278068 160.36057,23.6186579 160.36057,24.5204172 C160.36057,25.4215463 160.022595,26.2123974 159.382722,26.8066385 C158.765633,27.3775637 157.966266,27.6781502 157.06943,27.6781502 L157.06943,27.6781502 L146.937152,27.6781502 L146.937152,35.0434631 L161.557405,35.0434631 C162.492215,35.0434631 163.275759,35.3295558 163.887152,35.8935492 C164.516899,36.4770776 164.848544,37.2616271 164.848544,38.1621261 C164.848544,39.0802696 164.523228,39.8793127 163.906139,40.4729237 C163.300443,41.0539314 162.489051,41.3601893 161.557405,41.3601893 L161.557405,41.3601893 L143.606139,41.3601893 C142.691582,41.3601893 141.873861,41.0274647 141.241582,40.3979346 C140.609304,39.7690347 140.275127,38.9548677 140.275127,38.043656 L140.275127,38.043656 L140.275127,11.2738188 C140.275127,10.3292086 140.615,9.50306849 141.256772,8.88425114 C141.889684,8.27740683 142.701709,7.95728542 143.606139,7.95728542 L143.606139,7.95728542 Z M178.555063,7.95690733 C180.712658,7.95690733 182.682911,8.41881478 184.409494,9.32939633 C186.163924,10.2551017 187.548101,11.5733969 188.526582,13.2502534 C189.496835,14.9170272 189.988608,16.8320842 189.988608,18.9450114 C189.988608,21.0579387 189.437342,22.9673243 188.351266,24.6177139 C187.527848,25.8704725 186.467722,26.898894 185.189873,27.6872245 L185.189873,27.6872245 L190.551266,36.2706371 C190.941139,36.8932354 191.139873,37.5567942 191.139873,38.2417783 C191.139873,39.1006867 190.825949,39.8669616 190.232278,40.4574217 C189.818987,40.8695465 189.076582,41.3604414 187.887975,41.3604414 C186.681646,41.3604414 185.694304,40.8178734 185.034177,39.7913424 L185.034177,39.7913424 L178.567722,29.4579747 L174.737342,29.4579747 L174.737342,38.0432779 C174.737342,38.9456673 174.41519,39.7547931 173.806329,40.3824327 C173.18481,41.0226755 172.355063,41.3604414 171.406329,41.3604414 C170.491139,41.3604414 169.673418,41.0277168 169.041772,40.3975565 C168.410127,39.7692868 168.074684,38.9551197 168.074684,38.0432779 L168.074684,38.0432779 L168.074684,11.2740708 C168.074684,10.3288305 168.41519,9.5026904 169.057595,8.8845032 C169.688608,8.27765889 170.501266,7.95690733 171.406329,7.95690733 L171.406329,7.95690733 Z M178.555063,14.2742637 L174.737342,14.2742637 L174.737342,23.1412485 L178.555063,23.1412485 C180.051899,23.1412485 181.234177,22.7455079 182.170253,21.9307107 C183.05443,21.1600247 183.48481,20.1832763 183.48481,18.9450114 C183.48481,17.5523573 183.041139,16.4533579 182.129114,15.5856272 C181.2,14.7027727 180.031013,14.2742637 178.555063,14.2742637 L178.555063,14.2742637 Z" id="Combined-Shape" stroke="#373354" stroke-width="0.632911392" fill="#FFFFFF"></path>
            </g>
        </g>
    </g>
</svg>