<?xml version="1.0" encoding="UTF-8"?>
<svg width="44px" height="44px" viewBox="0 0 44 44" version="1.1" xmlns="http://www.w3.org/2000/svg" xmlns:xlink="http://www.w3.org/1999/xlink">
    <title>7F6B26E1-A8C2-407B-9321-F646DAFD3F50</title>
    <g id="Dark" stroke="none" stroke-width="1" fill="none" fill-rule="evenodd">
        <g id="Assets" transform="translate(-295.000000, -67.000000)">
            <g id="logo_token" transform="translate(297.000000, 69.000000)">
                <circle id="Oval" stroke="#FFFFFF" stroke-width="1.6" fill="#373354" cx="20" cy="20" r="20.8"></circle>
                <g id="Group-15" transform="translate(10.333333, 7.000000)">
                    <path d="M9.89666667,26 C7.92033333,26 6.077,25.5343333 4.41733333,24.616 C2.541,23.5773333 1.201,22.1316667 0.434333333,20.3176667 C0.141666667,19.6183333 0,18.9473333 0,18.2646667 L0,16.2646667 C0,15.1613333 0.369,14.084 1.04333333,13.2076667 C0.683666667,12.2863333 0.501333333,11.295 0.501333333,10.257 L0.501333333,8.257 C0.501333333,6.455 1.046,4.84766667 2.12,3.47966667 C3.069,2.27033333 4.33266667,1.355 5.876,0.759666667 C7.182,0.255666667 8.62566667,0 10.167,0 C12.0466667,0 13.7226667,0.428666667 15.1486667,1.274 C16.4923333,2.07166667 17.625,3.191 18.515,4.60133333 C19.1073333,5.53966667 19.4076667,6.542 19.4076667,7.581 L19.4076667,9.581 C19.4076667,10.3773333 19.2326667,11.1326667 18.887,11.829 C19.3606667,12.899 19.6003333,14.0853333 19.6003333,15.3576667 L19.6003333,17.3576667 C19.6003333,19.234 19.055,20.9056667 17.9793333,22.3256667 C17.0003333,23.619 15.7096667,24.5893333 14.1433333,25.2083333 C12.8133333,25.7336667 11.3843333,26 9.89666667,26" id="Fill-1" fill="#FFFFFF"></path>
                    <path d="M9.89666667,24.3333333 C8.206,24.3333333 6.634,23.9376667 5.22433333,23.1576667 C3.68266667,22.3043333 2.58733333,21.1306667 1.96933333,19.6686667 C1.76466667,19.1793333 1.66666667,18.7216667 1.66666667,18.2646667 L1.66666667,16.2646667 C1.66666667,15.401 1.99966667,14.5773333 2.604,13.9453333 C2.746,13.7973333 2.898,13.6633333 3.06066667,13.5433333 C2.47266667,12.5696667 2.168,11.4593333 2.168,10.257 L2.168,8.257 C2.168,6.83733333 2.593,5.57633333 3.431,4.509 C4.19166667,3.539 5.21633333,2.80033333 6.476,2.31433333 C7.58966667,1.88466667 8.83133333,1.66666667 10.167,1.66666667 C11.7436667,1.66666667 13.1336667,2.017 14.2986667,2.70766667 C15.4133333,3.36933333 16.3576667,4.306 17.1056667,5.491 C17.5273333,6.159 17.741,6.86233333 17.741,7.581 L17.741,9.581 C17.741,10.3863333 17.4656667,11.1406667 16.9653333,11.7493333 C17.6086667,12.7903333 17.9336667,13.9986667 17.9336667,15.3576667 L17.9336667,17.3576667 C17.9336667,18.8626667 17.502,20.1953333 16.6506667,21.3193333 C15.8583333,22.3663333 14.8083333,23.1533333 13.5306667,23.6586667 C12.3966667,24.1063333 11.174,24.3333333 9.89666667,24.3333333" id="Fill-3" fill="#232039"></path>
                    <path d="M16.5784667,15.8587333 C16.5918,15.6947333 16.6004667,15.5280667 16.6004667,15.3577333 C16.6004667,13.8114 16.0898,12.5244 15.0938,11.5204 C15.2228,11.4670667 15.3498,11.4060667 15.4741333,11.3264 C16.0761333,10.9057333 16.4074667,10.2854 16.4074667,9.58106667 C16.4074667,9.41706667 16.3831333,9.25306667 16.3468,9.08906667 C16.3868,8.9264 16.4074667,8.75606667 16.4074667,8.58106667 C16.4074667,8.41706667 16.3831333,8.25306667 16.3468,8.08906667 C16.3868,7.9264 16.4074667,7.75606667 16.4074667,7.58106667 C16.4074667,7.11773333 16.2631333,6.65406667 15.9781333,6.2024 C15.3438,5.19773333 14.5501333,4.4074 13.6184667,3.8544 C12.6621333,3.2874 11.5008,3.00006667 10.1668,3.00006667 C8.99646667,3.00006667 7.91613333,3.18773333 6.9558,3.55873333 C5.9238,3.95673333 5.09046667,4.55373333 4.4798,5.33273333 C3.83046667,6.15906667 3.50146667,7.14306667 3.50146667,8.25673333 C3.50146667,8.42806667 3.5118,8.59506667 3.5268,8.7604 C3.51146667,8.92306667 3.50146667,9.08806667 3.50146667,9.25673333 C3.50146667,9.42806667 3.5118,9.59506667 3.5268,9.7604 C3.51146667,9.92306667 3.50146667,10.0880667 3.50146667,10.2567333 C3.50146667,11.8150667 4.1138,13.1267333 5.32146667,14.1550667 C5.32246667,14.1560667 5.3238,14.1567333 5.3248,14.1574 C5.3048,14.1574 5.28546667,14.1534 5.26546667,14.1534 C5.06513333,14.1534 4.9008,14.1724 4.7768,14.2067333 C4.2908,14.3147333 3.88413333,14.5367333 3.56746667,14.8667333 C3.19613333,15.2550667 2.9998,15.7387333 2.9998,16.2647333 C2.9998,16.4267333 3.02446667,16.5934 3.06946667,16.7670667 C3.02846667,16.9280667 2.9998,17.0927333 2.9998,17.2647333 C2.9998,17.4267333 3.02446667,17.5934 3.06946667,17.7670667 C3.02846667,17.9280667 2.9998,18.0927333 2.9998,18.2647333 C2.9998,18.5420667 3.06413333,18.8304 3.19746667,19.1494 C3.69646667,20.3297333 4.5958,21.2857333 5.87013333,21.9907333 C7.0798,22.6604 8.43446667,23.0000667 9.8968,23.0000667 C11.0058,23.0000667 12.0634667,22.8044 13.0404667,22.4187333 C14.0874667,22.0044 14.9448,21.3640667 15.5878,20.5144 C16.2598,19.6274 16.6004667,18.5650667 16.6004667,17.3577333 C16.6004667,17.1877333 16.5904667,17.0227333 16.5784667,16.8587333 C16.5918,16.6947333 16.6004667,16.5280667 16.6004667,16.3577333 C16.6004667,16.1877333 16.5904667,16.0227333 16.5784667,15.8587333" id="Fill-5" fill="#231F20"></path>
                    <path d="M9.89666667,23 C8.43466667,23 7.07966667,22.6603333 5.87,21.991 C4.59566667,21.2856667 3.69633333,20.3296667 3.19733333,19.1493333 C3.064,18.8303333 3,18.542 3,18.2646667 C3,17.7386667 3.196,17.2553333 3.56766667,16.867 C3.884,16.5366667 4.291,16.3146667 4.777,16.2066667 C4.90066667,16.1726667 5.065,16.1533333 5.26533333,16.1533333 C5.72433333,16.1533333 6.15866667,16.2853333 6.55633333,16.546 C6.95333333,16.8066667 7.25133333,17.1593333 7.44266667,17.5946667 C7.53833333,17.8016667 7.81666667,18.0353333 8.22066667,18.2416667 C8.717,18.4943333 9.281,18.6226667 9.89666667,18.6226667 C10.6003333,18.6226667 11.1866667,18.4706667 11.6393333,18.171 C11.9483333,17.9653333 12.069,17.754 12.069,17.4156667 C12.069,17.0436667 11.9346667,16.7543333 11.6333333,16.4773333 C11.284,16.1556667 10.646,15.94 9.78866667,15.8543333 C7.93733333,15.6753333 6.43366667,15.1036667 5.32133333,14.155 C4.114,13.1266667 3.50133333,11.815 3.50133333,10.257 C3.50133333,9.143 3.83066667,8.15933333 4.47966667,7.33266667 C5.09066667,6.55366667 5.92366667,5.95666667 6.956,5.55866667 C7.91633333,5.18766667 8.99666667,5 10.167,5 C11.5006667,5 12.662,5.28733333 13.6183333,5.85433333 C14.55,6.40766667 15.344,7.19766667 15.9783333,8.20233333 C16.263,8.654 16.4076667,9.118 16.4076667,9.581 C16.4076667,10.2853333 16.0763333,10.9056667 15.4743333,11.3263333 C15.086,11.5746667 14.6783333,11.6923333 14.2383333,11.6923333 C13.8183333,11.6923333 13.421,11.5863333 13.0573333,11.3766667 C12.6803333,11.1586667 12.3863333,10.8556667 12.1826667,10.4773333 C11.972,10.128 11.6996667,9.85066667 11.3663333,9.65766667 C11.0456667,9.47166667 10.5966667,9.37733333 10.0316667,9.37733333 C9.30333333,9.37733333 8.734,9.50266667 8.33966667,9.75033333 C8.10766667,9.89566667 8.033,10.0333333 8.033,10.3143333 C8.033,10.6043333 8.131,10.799 8.382,11.008 C8.53566667,11.1363333 9.05733333,11.4506667 10.586,11.6063333 C12.401,11.787 13.8566667,12.3683333 14.911,13.3346667 C16.0323333,14.363 16.6003333,15.7163333 16.6003333,17.3576667 C16.6003333,18.565 16.2596667,19.6273333 15.588,20.5143333 C14.9446667,21.364 14.0876667,22.0046667 13.0403333,22.4186667 C12.0633333,22.8043333 11.0056667,23 9.89666667,23" id="Fill-7" fill="#EB5C5D"></path>
                    <path d="M9.89666667,22 C8.43466667,22 7.07966667,21.6603333 5.87,20.991 C4.59566667,20.2856667 3.69633333,19.3296667 3.19733333,18.1493333 C3.064,17.8303333 3,17.542 3,17.2646667 C3,16.7386667 3.196,16.2553333 3.56766667,15.867 C3.884,15.5366667 4.291,15.3146667 4.777,15.2066667 C4.90066667,15.1726667 5.065,15.1533333 5.26533333,15.1533333 C5.72433333,15.1533333 6.15866667,15.2853333 6.55633333,15.546 C6.95333333,15.8066667 7.25133333,16.1593333 7.44266667,16.5946667 C7.53833333,16.8016667 7.81666667,17.0353333 8.22066667,17.2416667 C8.717,17.4943333 9.281,17.6226667 9.89666667,17.6226667 C10.6003333,17.6226667 11.1866667,17.4706667 11.6393333,17.171 C11.9483333,16.9653333 12.069,16.754 12.069,16.4156667 C12.069,16.0436667 11.9346667,15.7543333 11.6333333,15.4773333 C11.284,15.1556667 10.646,14.94 9.78866667,14.8543333 C7.93733333,14.6753333 6.43366667,14.1036667 5.32133333,13.155 C4.114,12.1266667 3.50133333,10.815 3.50133333,9.257 C3.50133333,8.143 3.83066667,7.15933333 4.47966667,6.33266667 C5.09066667,5.55366667 5.92366667,4.95666667 6.956,4.55866667 C7.91633333,4.18766667 8.99666667,4 10.167,4 C11.5006667,4 12.662,4.28733333 13.6183333,4.85433333 C14.55,5.40766667 15.344,6.19766667 15.9783333,7.20233333 C16.263,7.654 16.4076667,8.118 16.4076667,8.581 C16.4076667,9.28533333 16.0763333,9.90566667 15.4743333,10.3263333 C15.086,10.5746667 14.6783333,10.6923333 14.2383333,10.6923333 C13.8183333,10.6923333 13.421,10.5863333 13.0573333,10.3766667 C12.6803333,10.1586667 12.3863333,9.85566667 12.1826667,9.47733333 C11.972,9.128 11.6996667,8.85066667 11.3663333,8.65766667 C11.0456667,8.47166667 10.5966667,8.37733333 10.0316667,8.37733333 C9.30333333,8.37733333 8.734,8.50266667 8.33966667,8.75033333 C8.10766667,8.89566667 8.033,9.03333333 8.033,9.31433333 C8.033,9.60433333 8.131,9.799 8.382,10.008 C8.53566667,10.1363333 9.05733333,10.4506667 10.586,10.6063333 C12.401,10.787 13.8566667,11.3683333 14.911,12.3346667 C16.0323333,13.363 16.6003333,14.7163333 16.6003333,16.3576667 C16.6003333,17.565 16.2596667,18.6273333 15.588,19.5143333 C14.9446667,20.364 14.0876667,21.0046667 13.0403333,21.4186667 C12.0633333,21.8043333 11.0056667,22 9.89666667,22" id="Fill-9" fill="#FFD68F"></path>
                    <path d="M9.89666667,21 C8.43466667,21 7.07966667,20.6603333 5.87,19.991 C4.59566667,19.2856667 3.69633333,18.3296667 3.19733333,17.1493333 C3.064,16.8303333 3,16.542 3,16.2646667 C3,15.7386667 3.196,15.2553333 3.56766667,14.867 C3.884,14.5366667 4.291,14.3146667 4.777,14.2066667 C4.90066667,14.1726667 5.065,14.1533333 5.26533333,14.1533333 C5.72433333,14.1533333 6.15866667,14.2853333 6.55633333,14.546 C6.95333333,14.8066667 7.25133333,15.1593333 7.44266667,15.5946667 C7.53833333,15.8016667 7.81666667,16.0353333 8.22066667,16.2416667 C8.717,16.4943333 9.281,16.6226667 9.89666667,16.6226667 C10.6003333,16.6226667 11.1866667,16.4706667 11.6393333,16.171 C11.9483333,15.9653333 12.069,15.754 12.069,15.4156667 C12.069,15.0436667 11.9346667,14.7543333 11.6333333,14.4773333 C11.284,14.1556667 10.646,13.94 9.78866667,13.8543333 C7.93733333,13.6753333 6.43366667,13.1036667 5.32133333,12.155 C4.114,11.1266667 3.50133333,9.815 3.50133333,8.257 C3.50133333,7.143 3.83066667,6.15933333 4.47966667,5.33266667 C5.09066667,4.55366667 5.92366667,3.95666667 6.956,3.55866667 C7.91633333,3.18766667 8.99666667,3 10.167,3 C11.5006667,3 12.662,3.28733333 13.6183333,3.85433333 C14.55,4.40766667 15.344,5.19766667 15.9783333,6.20233333 C16.263,6.654 16.4076667,7.118 16.4076667,7.581 C16.4076667,8.28533333 16.0763333,8.90566667 15.4743333,9.32633333 C15.086,9.57466667 14.6783333,9.69233333 14.2383333,9.69233333 C13.8183333,9.69233333 13.421,9.58633333 13.0573333,9.37666667 C12.6803333,9.15866667 12.3863333,8.85566667 12.1826667,8.47733333 C11.972,8.128 11.6996667,7.85066667 11.3663333,7.65766667 C11.0456667,7.47166667 10.5966667,7.37733333 10.0316667,7.37733333 C9.30333333,7.37733333 8.734,7.50266667 8.33966667,7.75033333 C8.10766667,7.89566667 8.033,8.03333333 8.033,8.31433333 C8.033,8.60433333 8.131,8.799 8.382,9.008 C8.53566667,9.13633333 9.05733333,9.45066667 10.586,9.60633333 C12.401,9.787 13.8566667,10.3683333 14.911,11.3346667 C16.0323333,12.363 16.6003333,13.7163333 16.6003333,15.3576667 C16.6003333,16.565 16.2596667,17.6273333 15.588,18.5143333 C14.9446667,19.364 14.0876667,20.0046667 13.0403333,20.4186667 C12.0633333,20.8043333 11.0056667,21 9.89666667,21" id="Fill-11" fill="#373354"></path>
                    <path d="M6.1929,19.0742333 C7.30256667,19.6885667 8.54856667,19.9999 9.89656667,19.9999 C10.9219,19.9999 11.8969,19.8199 12.7952333,19.4652333 C13.7272333,19.0965667 14.4879,18.5292333 15.0565667,17.7785667 C15.6385667,17.0102333 15.9339,16.0835667 15.9339,15.0245667 C15.9339,13.5775667 15.4382333,12.3895667 14.4609,11.4929 C13.5149,10.6262333 12.1882333,10.1025667 10.5185667,9.93623333 C8.9509,9.77623333 8.25956667,9.4409 7.95556667,9.18723333 C7.55356667,8.85256667 7.36656667,8.46956667 7.36656667,7.98123333 C7.36656667,7.46923333 7.55723333,7.12123333 7.98523333,6.85223333 C8.48756667,6.53723333 9.1759,6.37723333 10.0319,6.37723333 C10.7155667,6.37723333 11.2772333,6.5019 11.7009,6.74756667 C12.1345667,6.9989 12.4892333,7.36123333 12.7702333,7.82856667 C12.9142333,8.09623333 13.1229,8.3109 13.3905667,8.4659 C13.6512333,8.61623333 13.9365667,8.69223333 14.2382333,8.69223333 C14.5492333,8.69223333 14.8292333,8.61456667 15.0922333,8.4469 C15.5165667,8.15023333 15.7409,7.73523333 15.7409,7.2479 C15.7409,6.91223333 15.6309,6.5679 15.4145667,6.2249 C14.8372333,5.31023333 14.1185667,4.59356667 13.2782333,4.0949 C12.4265667,3.58956667 11.3795667,3.33323333 10.1669,3.33323333 C9.07923333,3.33323333 8.07956667,3.50623333 7.1959,3.84723333 C6.27756667,4.20156667 5.54023333,4.72756667 5.0039,5.41123333 C4.44956667,6.11723333 4.16823333,6.96256667 4.16823333,7.92356667 C4.16823333,9.27723333 4.7019,10.4182333 5.75423333,11.3145667 C6.76056667,12.1729 8.14056667,12.6922333 9.8549,12.8579 C10.8712333,12.9592333 11.6215667,13.2269 12.0852333,13.6532333 C12.5229,14.0562333 12.7355667,14.5239 12.7355667,15.0822333 C12.7355667,15.6469 12.5042333,16.0635667 12.0072333,16.3932333 C11.4435667,16.7665667 10.7335667,16.9562333 9.89656667,16.9562333 C9.1749,16.9562333 8.50923333,16.8035667 7.9179,16.5022333 C7.36556667,16.2205667 6.99856667,15.8899 6.83223333,15.5292333 C6.69356667,15.2139 6.4779,14.9585667 6.1909,14.7702333 C5.90356667,14.5819 5.59223333,14.4865667 5.26556667,14.4865667 C5.1249,14.4865667 5.0169,14.4982333 4.9219,14.5242333 C4.56656667,14.6032333 4.27323333,14.7612333 4.04923333,14.9945667 C3.7989,15.2562333 3.66656667,15.5802333 3.66656667,15.9312333 C3.66656667,16.1185667 3.7139,16.3225667 3.81156667,16.5565667 C4.2509,17.5955667 5.0519,18.4429 6.1929,19.0742333" id="Fill-13" stroke="#373354" stroke-width="0.5" fill="#FFFFFF"></path>
                </g>
            </g>
        </g>
    </g>
</svg>