<svg width="91" height="489" viewBox="0 0 91 489" fill="none" xmlns="http://www.w3.org/2000/svg">
<path d="M36.2822 0.908648C34.118 1.30799 29.2286 3.06509 25.4613 4.90206C13.2778 10.7324 4.86157 21.1952 1.41492 34.7728C-1.31034 45.3952 -0.108022 55.5385 5.10203 66.161C12.1556 80.4574 29.3088 91 45.5 91C61.6912 91 78.8444 80.4574 85.898 66.161C91.108 55.5385 92.3103 45.3952 89.5851 34.7728C86.1384 21.1952 77.7222 10.7324 65.5387 4.90206C55.6796 0.189834 46.6222 -1.08806 36.2822 0.908648Z" fill="#9E99B8"/>
<path d="M35.806 200.045C18.5279 203.734 4.68939 217.769 1.00979 235.253C-1.14997 245.679 0.129888 255.143 5.08935 265.248C10.8487 277.038 22.8474 286.181 36.206 288.988C46.6048 291.153 56.0438 289.87 66.1227 284.897C80.6011 277.759 91 260.837 91 244.476C91 233.248 85.6406 220.656 77.4015 212.396C66.4427 201.328 50.9244 196.756 35.806 200.045Z" fill="#9E99B8"/>
<path d="M35.9211 399.045C23.2289 401.771 10.8561 411.315 5.26842 422.702C2.07544 429.198 0 437.539 0 443.954C0 449.568 2.63421 459.432 5.74737 465.367C14.2088 481.566 33.6061 491.27 51.9658 488.543C65.6158 486.538 79.1061 477.236 85.2526 465.367C88.3658 459.432 91 449.568 91 443.954C90.9202 432.085 85.8114 419.655 77.4298 411.395C66.2544 400.328 51.0079 395.756 35.9211 399.045Z" fill="#9E99B8"/>
</svg>
