<svg width="115" height="115" viewBox="0 0 115 115" fill="none" xmlns="http://www.w3.org/2000/svg">
<g clip-path="url(#clip0)">
<path d="M104.376 0H10.5709C4.73273 0 0 4.73273 0 10.5709V104.376C0 110.215 4.73273 114.947 10.5709 114.947H104.376C110.215 114.947 114.947 110.215 114.947 104.376V10.5709C114.947 4.73273 110.215 0 104.376 0Z" fill="black"/>
<path fill-rule="evenodd" clip-rule="evenodd" d="M63.6383 18.5398L63.608 35.771L63.5775 53.0022L62.1599 49.0021C62.1594 49.0007 62.1576 48.9956 62.1571 48.9942L60.3252 87.3554C62.1263 92.4418 63.0913 95.1571 63.1022 95.168C63.1164 95.1822 64.1428 95.2441 65.3832 95.3056C69.1412 95.4921 73.7981 95.8917 77.3309 96.3307C78.1489 96.4323 78.8528 96.4843 78.8952 96.4464C78.9376 96.4084 78.9607 78.8639 78.9465 57.4585L78.9207 18.5398H71.2795H63.6383V18.5398Z" fill="#B1060F" stroke="black" stroke-width="0.0820533"/>
<path fill-rule="evenodd" clip-rule="evenodd" d="M35.9966 18.4885V57.4467C35.9966 78.8737 36.0175 96.426 36.0432 96.4516C36.0689 96.4773 37.3958 96.352 38.992 96.1733C40.5882 95.9945 42.7942 95.7722 43.8942 95.6793C45.5813 95.5369 50.6185 95.213 51.2018 95.2095C51.3714 95.2084 51.3823 94.333 51.4069 78.7084L51.4329 62.2085L52.6516 65.6568C52.84 66.1898 52.8991 66.3562 53.0826 66.8754L54.914 28.5237C54.526 27.4265 54.7294 28.0025 54.2847 26.7451C52.7883 22.5142 51.5185 18.9257 51.4628 18.7706L51.3615 18.4885H43.6791H35.9966V18.4885Z" fill="#B1060F" stroke="black" stroke-width="0.0820533"/>
<path fill-rule="evenodd" clip-rule="evenodd" d="M35.9966 18.4885V40.3568L51.4018 81.2213C51.4034 80.2848 51.4052 79.7788 51.4069 78.7084L51.4329 62.2085L52.6516 65.6568C59.4359 84.8537 63.0808 95.1465 63.1022 95.1679C63.1164 95.1821 64.1428 95.2441 65.3832 95.3056C69.1412 95.4921 73.7982 95.8917 77.3309 96.3306C78.1489 96.4323 78.8529 96.4843 78.8952 96.4463C78.9244 96.4203 78.9434 87.8178 78.9485 75.6821L63.6154 31.5994L63.608 35.771L63.5776 53.0022L62.1599 49.0021C60.7747 45.0935 59.8498 42.4796 54.2847 26.7451C52.7883 22.5142 51.5185 18.9257 51.4628 18.7706L51.3615 18.4885H43.6791H35.9966H35.9966Z" fill="url(#paint0_radial)"/>
<path fill-rule="evenodd" clip-rule="evenodd" d="M35.9969 18.4885L51.4329 62.2284V62.2085L52.6517 65.6568C59.4359 84.8537 63.0808 95.1465 63.1023 95.168C63.1164 95.1821 64.1429 95.2441 65.3833 95.3056C69.1413 95.4921 73.7982 95.8917 77.331 96.3306C78.1448 96.4318 78.8451 96.4837 78.894 96.4468L63.5776 52.9942V53.0022L62.1599 49.0021C60.7747 45.0935 59.8498 42.4797 54.2847 26.7451C52.7883 22.5142 51.5185 18.9257 51.4629 18.7706L51.3616 18.4885H43.6792H35.9969V18.4885Z" fill="#E50914"/>
<path fill-rule="evenodd" clip-rule="evenodd" d="M63.6383 18.5398L63.608 35.771L63.5775 53.0022L62.1599 49.0021C62.1594 49.0007 62.1576 48.9956 62.1571 48.9942L60.3252 87.3554C62.1263 92.4418 63.0913 95.1571 63.1022 95.168C63.1164 95.1822 64.1428 95.2441 65.3832 95.3056C69.1412 95.4921 73.7981 95.8917 77.3309 96.3307C78.1489 96.4323 78.8528 96.4843 78.8952 96.4464C78.9376 96.4084 78.9607 78.8639 78.9465 57.4585L78.9207 18.5398H71.2795H63.6383V18.5398Z" fill="#B1060F" stroke="black" stroke-width="0.0820533"/>
<path fill-rule="evenodd" clip-rule="evenodd" d="M35.9966 18.4885V57.4467C35.9966 78.8737 36.0175 96.426 36.0432 96.4516C36.0689 96.4773 37.3958 96.352 38.992 96.1733C40.5882 95.9945 42.7942 95.7722 43.8942 95.6793C45.5813 95.5369 50.6185 95.213 51.2018 95.2095C51.3714 95.2084 51.3823 94.333 51.4069 78.7084L51.4329 62.2085L52.6516 65.6568C52.84 66.1898 52.8991 66.3562 53.0826 66.8754L54.914 28.5237C54.526 27.4265 54.7294 28.0025 54.2847 26.7451C52.7883 22.5142 51.5185 18.9257 51.4628 18.7706L51.3615 18.4885H43.6791H35.9966V18.4885Z" fill="#B1060F" stroke="black" stroke-width="0.0820533"/>
<path fill-rule="evenodd" clip-rule="evenodd" d="M35.9966 18.4885V40.3568L51.4018 81.2213C51.4034 80.2848 51.4052 79.7788 51.4069 78.7084L51.4329 62.2085L52.6516 65.6568C59.4359 84.8537 63.0808 95.1465 63.1022 95.1679C63.1164 95.1821 64.1428 95.2441 65.3832 95.3056C69.1412 95.4921 73.7982 95.8917 77.3309 96.3306C78.1489 96.4323 78.8529 96.4843 78.8952 96.4463C78.9244 96.4203 78.9434 87.8178 78.9485 75.6821L63.6154 31.5994L63.608 35.771L63.5776 53.0022L62.1599 49.0021C60.7747 45.0935 59.8498 42.4796 54.2847 26.7451C52.7883 22.5142 51.5185 18.9257 51.4628 18.7706L51.3615 18.4885H43.6791H35.9966H35.9966Z" fill="url(#paint1_radial)"/>
<path fill-rule="evenodd" clip-rule="evenodd" d="M35.9969 18.4885L51.4329 62.2284V62.2085L52.6517 65.6568C59.4359 84.8537 63.0808 95.1465 63.1023 95.168C63.1164 95.1821 64.1429 95.2441 65.3833 95.3056C69.1413 95.4921 73.7982 95.8917 77.331 96.3306C78.1448 96.4318 78.8451 96.4837 78.894 96.4468L63.5776 52.9942V53.0022L62.1599 49.0021C60.7747 45.0935 59.8498 42.4797 54.2847 26.7451C52.7883 22.5142 51.5185 18.9257 51.4629 18.7706L51.3616 18.4885H43.6792H35.9969V18.4885Z" fill="#E50914"/>
</g>
<defs>
<radialGradient id="paint0_radial" cx="0" cy="0" r="1" gradientUnits="userSpaceOnUse" gradientTransform="translate(56.7594 57.0203) rotate(-19.0982) scale(9.73526 356.594)">
<stop/>
<stop offset="1" stop-opacity="0"/>
</radialGradient>
<radialGradient id="paint1_radial" cx="0" cy="0" r="1" gradientUnits="userSpaceOnUse" gradientTransform="translate(56.7594 57.0203) rotate(-19.0982) scale(9.73526 356.594)">
<stop/>
<stop offset="1" stop-opacity="0"/>
</radialGradient>
<clipPath id="clip0">
<rect width="114.947" height="114.947" fill="white"/>
</clipPath>
</defs>
</svg>
