<svg width="421" height="150" viewBox="0 0 421 150" fill="none" xmlns="http://www.w3.org/2000/svg">
<g clip-path="url(#clip0_651:24)">
<path d="M46.3646 149.739C33.8407 149.242 23.5943 145.815 15.5825 139.45C14.0535 138.234 10.41 134.588 9.18768 133.051C5.93877 128.965 3.72992 124.99 2.25663 120.578C-2.27679 106.999 0.0563812 89.1808 8.93032 69.6252C16.5283 52.8832 28.2522 36.2783 48.7063 13.2808C51.7193 9.8968 60.6919 0 60.7498 0C60.7714 0 60.2823 0.847051 59.6668 1.8786C54.3485 10.7868 49.7979 21.2797 47.3188 30.3638C43.3365 44.9399 43.8169 57.4488 48.7256 67.1483C52.1118 73.8305 57.9169 79.6185 64.4448 82.8181C75.8727 88.4174 92.6041 88.8806 113.037 84.1734C114.444 83.8474 184.152 65.3426 267.946 43.0507C351.74 20.7565 420.31 2.53049 420.321 2.5455C420.345 2.5648 225.644 85.8783 124.572 129.1C108.565 135.944 104.285 137.672 96.7601 140.314C77.524 147.069 60.293 150.292 46.3646 149.739Z" fill="white"/>
</g>
<defs>
<clipPath id="clip0_651:24">
<rect width="420.321" height="149.8" fill="white"/>
</clipPath>
</defs>
</svg>
