<svg width="317" height="309" viewBox="0 0 317 309" fill="none" xmlns="http://www.w3.org/2000/svg">
<path fill-rule="evenodd" clip-rule="evenodd" d="M293.138 143.879C291.131 147.792 287.675 153.047 284.553 156.289C33.4504 156.289 33.4504 156.289 33.4504 156.289C31.4433 153.829 26.9832 148.128 25.1992 143.879H293.138Z" fill="black"/>
<path fill-rule="evenodd" clip-rule="evenodd" d="M274.406 169.033C43.8203 169.033 43.8203 169.033 43.8203 169.033C47.4999 173.505 51.4024 177.418 55.6395 180.324C261.472 180.324 261.472 180.324 261.472 180.324C266.713 177.418 271.396 173.505 274.406 169.033Z" fill="black"/>
<path fill-rule="evenodd" clip-rule="evenodd" d="M245.973 192.287C182.64 192.287 182.64 192.287 182.64 192.287C180.856 202.348 180.856 211.739 180.856 218.447C199.365 217.217 223.673 208.832 245.973 192.287Z" fill="black"/>
<path fill-rule="evenodd" clip-rule="evenodd" d="M316.665 61.8223C287.786 63.611 246.307 83.0632 219.436 114.701C214.529 120.403 210.069 125.992 206.613 132.029C299.271 132.029 299.271 132.029 299.271 132.029C311.982 106.987 318.449 82.0571 316.665 61.8223Z" fill="black"/>
<path fill-rule="evenodd" clip-rule="evenodd" d="M136.924 218.447C137.259 211.851 137.259 202.46 135.921 192.287C72.1416 192.287 72.1416 192.287 72.1416 192.287C94.888 208.832 119.195 217.217 136.924 218.447Z" fill="black"/>
<path fill-rule="evenodd" clip-rule="evenodd" d="M159.113 220.459C165.803 213.528 172.716 204.137 178.849 192.287C139.154 192.287 139.154 192.287 139.154 192.287C145.844 204.137 151.977 213.528 159.113 220.459Z" fill="black"/>
<path fill-rule="evenodd" clip-rule="evenodd" d="M111.837 131.917C108.38 125.992 103.697 120.291 99.0139 114.589C72.1419 83.0632 30.4402 63.4992 2.23016 61.8223C0.223129 82.0571 6.57874 106.987 18.9555 131.917H111.837Z" fill="black"/>
<path fill-rule="evenodd" clip-rule="evenodd" d="M199.366 131.918C199.923 124.763 200.592 117.831 200.592 109.67C200.592 65.6234 180.856 20.2348 159.225 0C137.37 20.2348 118.081 65.6234 118.081 109.67C118.081 117.831 118.081 124.763 119.307 131.918H199.366Z" fill="black"/>
<path fill-rule="evenodd" clip-rule="evenodd" d="M292.581 309C305.627 309 316.665 303.746 316.665 290.442C316.665 283.064 311.202 277.809 302.839 275.909C293.919 273.673 282.88 273.897 282.88 268.195C283.438 264.506 286.783 263.5 292.247 263.5C300.386 263.5 300.721 267.971 301.167 270.655C314.435 270.655 314.435 270.655 314.435 270.655C313.432 260.258 305.069 253.103 291.578 253.103C277.528 253.103 269.389 260.817 269.389 270.431C269.389 276.132 272.288 281.051 277.082 283.511C280.427 285.3 285.222 286.529 290.909 287.535C296.818 287.983 301.947 288.542 302.505 292.79C302.505 295.696 299.494 299.162 293.362 299.162C284.218 299.162 282.211 293.908 282.211 290.442C268.162 290.442 268.162 290.442 268.162 290.442C268.385 301.51 277.528 309 292.581 309Z" fill="black"/>
<path fill-rule="evenodd" clip-rule="evenodd" d="M234.6 296.367C226.126 296.367 218.99 289.212 218.99 281.051C218.99 272.555 226.126 265.4 234.6 265.4C242.74 265.4 249.541 272.555 249.541 281.051C249.653 289.212 242.74 296.367 234.6 296.367ZM249.653 253.774C249.653 257.798 249.653 257.798 249.653 257.798C245.193 254.556 240.064 252.991 233.931 252.991C218.655 252.991 205.833 265.4 205.833 280.94C205.833 296.255 218.655 308.888 233.931 308.888C240.064 308.888 245.193 307.099 249.653 304.081C249.653 307.547 249.653 307.547 249.653 307.547C263.256 307.547 263.256 307.547 263.256 307.547C263.256 253.662 263.256 253.662 263.256 253.662H249.653V253.774Z" fill="black"/>
<path fill-rule="evenodd" clip-rule="evenodd" d="M172.717 296.367C164.577 296.367 157.441 289.212 157.441 281.051C157.441 272.555 164.577 265.4 172.717 265.4C181.079 265.4 188.215 272.555 188.215 281.051C188.215 289.212 181.079 296.367 172.717 296.367ZM188.215 235.327C188.215 257.798 188.215 257.798 188.215 257.798C183.532 254.556 178.403 252.991 172.494 252.991C156.883 252.991 144.618 265.4 144.618 280.94C144.618 296.255 156.995 308.888 172.494 308.888C178.403 308.888 183.755 307.099 188.215 304.081C188.215 307.547 188.215 307.547 188.215 307.547C201.484 307.547 201.484 307.547 201.484 307.547C201.484 235.216 201.484 235.216 201.484 235.216H188.215V235.327Z" fill="black"/>
<path d="M139.043 235.327H125.663V248.631H139.043V235.327Z" fill="black"/>
<path d="M139.043 253.773H125.663V307.658H139.043V253.773Z" fill="black"/>
<path fill-rule="evenodd" clip-rule="evenodd" d="M90.4283 296.367C81.5082 296.367 74.372 289.212 74.372 281.051C74.372 272.555 81.5082 265.4 90.4283 265.4C98.568 265.4 105.704 272.555 105.704 281.051C105.704 289.212 98.568 296.367 90.4283 296.367ZM105.704 235.327C105.704 257.798 105.704 257.798 105.704 257.798C101.021 254.556 95.6689 252.991 89.6478 252.991C74.372 252.991 61.5493 265.4 61.5493 280.94C61.5493 296.255 74.372 308.888 89.6478 308.888C95.5574 308.888 101.021 307.099 105.704 304.081C105.704 307.547 105.704 307.547 105.704 307.547C119.307 307.547 119.307 307.547 119.307 307.547C119.307 235.216 119.307 235.216 119.307 235.216H105.704V235.327Z" fill="black"/>
<path fill-rule="evenodd" clip-rule="evenodd" d="M28.0985 296.367C19.9588 296.367 12.8227 289.212 12.8227 281.051C12.8227 272.555 19.9588 265.4 28.0985 265.4C37.0186 265.4 44.1548 272.555 44.1548 281.051C44.1548 289.212 36.9071 296.367 28.0985 296.367ZM44.1548 253.774C44.1548 257.798 44.1548 257.798 44.1548 257.798C39.4717 254.556 33.7851 252.991 27.8755 252.991C12.5997 252.991 0 265.4 0 280.94C0 296.255 12.5997 308.888 27.8755 308.888C34.0081 308.888 39.4717 307.099 44.1548 304.081C44.1548 307.547 44.1548 307.547 44.1548 307.547C57.2005 307.547 57.2005 307.547 57.2005 307.547C57.2005 253.662 57.2005 253.662 57.2005 253.662H44.1548V253.774Z" fill="black"/>
</svg>
