<?xml version="1.0" encoding="UTF-8"?>
<svg width="23px" height="31px" viewBox="0 0 23 31" version="1.1" xmlns="http://www.w3.org/2000/svg" xmlns:xlink="http://www.w3.org/1999/xlink">
    <title>426740BB-C3FE-41D0-870A-D6CC8E83DF9E</title>
    <g id="Dark" stroke="none" stroke-width="1" fill="none" fill-rule="evenodd">
        <g id="Assets" transform="translate(-266.000000, -315.000000)">
            <g id="polkadot" transform="translate(266.000000, 315.916667)">
                <path d="M11.5174489,0 C16.4342073,0.35539619 19.936836,2.48566321 21.9313481,6.71588818 C25.104506,13.4455241 20.8929728,21.3371995 13.4985343,22.6377398 C12.6126942,22.7935693 11.7040673,22.822088 10.8059623,22.9094983 C8.96811669,23.0884113 7.55644002,24.3327456 7.17061573,26.1153536 C7.01072167,26.8538973 6.85379698,27.5930165 6.69377383,28.3315602 C6.49050116,29.2696067 5.69290288,29.8248892 4.80661084,29.6472551 C3.89372358,29.4642497 3.3617547,28.6472477 3.56612474,27.693727 C4.33809608,24.0927669 5.11949194,20.4938529 5.89849939,16.8943635 C6.3171804,14.9595707 6.73411851,13.0243944 7.15996473,11.0911363 C7.35994527,10.1833989 8.17445604,9.64646803 9.05300191,9.82391035 C9.92147773,9.99937043 10.4628711,10.8234701 10.268442,11.7364508 C9.77184737,14.0682668 9.25646822,16.3961821 8.74954532,18.7258879 C8.67718309,19.0584564 8.61314801,19.3928792 8.53968841,19.7251919 C8.49940827,19.9071103 8.54743459,19.9833306 8.7506427,19.9606947 C10.0524527,19.8157355 11.3572321,19.6953944 12.6567828,19.5329787 C16.1070603,19.1018099 18.9903174,16.370413 19.627247,12.9520746 C20.4975303,8.28083355 17.2476207,3.88550729 12.4897236,3.29895651 C8.0301189,2.74923699 3.89333627,5.9155114 3.28029071,10.3471574 C3.10509795,11.6140636 3.23329722,12.8502131 3.64345743,14.0619364 C3.88274982,14.769084 3.6506872,15.5086508 3.08069748,15.9170559 C2.51632375,16.3214326 1.71001102,16.3350525 1.16164606,15.8759404 C0.912929142,15.6677414 0.69235668,15.3601748 0.591656346,15.0547821 C-1.546031,8.5747164 2.30285196,1.83401827 9.01285087,0.325406839 C9.9068891,0.124433427 10.8379153,0.0849804853 11.5174489,0" id="Fill-1" fill="#000000"></path>
                <path d="M13.8146172,28.0923488 C13.8146172,29.1717096 12.9802891,30.0061681 11.907185,30 C10.8371149,29.9938271 10.0151807,29.1727327 10.014987,28.1097413 C10.0147288,27.024178 10.8392451,26.2032754 11.9244203,26.2086205 C13.0035922,26.21389 13.8146172,27.0221318 13.8146172,28.0923488" id="Fill-3" fill="#E9007A"></path>
            </g>
        </g>
    </g>
</svg>