<?xml version="1.0" encoding="UTF-8"?>
<svg width="80px" height="80px" viewBox="0 0 80 80" version="1.1" xmlns="http://www.w3.org/2000/svg" xmlns:xlink="http://www.w3.org/1999/xlink">
    <title>8EF1183A-D36D-42AF-A49B-F61CEC0D3E89</title>
    <g id="Dark" stroke="none" stroke-width="1" fill="none" fill-rule="evenodd">
        <g id="Assets" transform="translate(-57.000000, -192.000000)">
            <g id="profile" transform="translate(57.000000, 192.000000)">
                <path d="M80,40 C80,62.0913879 62.0913879,80 40,80 C17.9086121,80 0,62.0913879 0,40 C0,17.9086121 17.9086121,0 40,0 C62.0913879,0 80,17.9086121 80,40" id="Fill-1" fill="#FFFFFF"></path>
                <path d="M73.7427652,40 C73.7427652,58.6355114 58.6355114,73.7427652 40,73.7427652 C21.3644886,73.7427652 6.25723484,58.6355114 6.25723484,40 C6.25723484,21.3644886 21.3644886,6.25723484 40,6.25723484 C58.6355114,6.25723484 73.7427652,21.3644886 73.7427652,40" id="Fill-3" fill="#FFF1B8"></path>
                <path d="M40,73.7427652 C55.0928605,73.7427652 67.8711167,63.8351561 72.1839445,50.1675031 C69.5768576,34.7483494 56.1606798,23.0013861 40,23.0013861 C23.838777,23.0013861 10.4231424,34.7483494 7.81605554,50.1675031 C12.1288833,63.8356992 24.9071395,73.7427652 40,73.7427652" id="Fill-5" fill="#FFE888"></path>
                <path d="M40,53.7271 C30.8105619,53.7271 22.7287283,58.4748496 18.0727699,65.6486837 C23.9698103,70.6955694 31.6294859,73.742738 40,73.742738 C48.3705141,73.742738 56.0296466,70.6955694 61.926687,65.6492269 C57.2707285,58.4753928 49.1899813,53.7271 40,53.7271" id="Fill-7" fill="#8ED7E8"></path>
                <path d="M44.3796208,65.7467889 C48.1343691,63.2834992 49.4323453,59.226356 49.4323453,59.226356 L49.4323453,55.4821991 C46.5065692,54.3487952 43.3267379,53.7270321 39.9999864,53.7270321 C30.8100051,53.7270321 22.7287147,58.4747818 18.0727563,65.6486158 C23.9697967,70.6955015 31.6296081,73.7428059 39.9999864,73.7428059 C40.873089,73.7428059 41.7392664,73.7094026 42.5952599,73.6446328 C41.0083316,71.1013652 41.6569802,67.5326435 44.3796208,65.7467889" id="Fill-9" fill="#7AC1DD"></path>
                <path d="M40,61.9378893 C30.1693814,61.9378893 22.126111,53.8942116 22.126111,44.0640004 L22.126111,33.6747591 C22.126111,23.8441406 30.1693814,15.8010059 40,15.8010059 C49.8306186,15.8010059 57.873889,23.8441406 57.873889,33.6747591 L57.873889,44.0640004 C57.873889,53.8942116 49.8306186,61.9378893 40,61.9378893" id="Fill-11" fill="#ABEBF4"></path>
                <path d="M40,15.8009652 C30.1693814,15.8009652 22.126111,23.8440998 22.126111,33.6748542 L22.126111,44.0640954 C22.126111,53.7600145 29.9513095,61.7166536 39.5979383,61.9330961 C34.8476088,57.6744468 33.2012062,50.475085 32.7577299,44.2082999 C32.352002,38.4697215 34.3362395,32.8548439 38.130773,28.5308816 C41.5265037,24.6620733 43.1495511,19.0285931 43.7877442,16.2072363 C42.5660796,15.9409603 41.2979762,15.8009652 40,15.8009652" id="Fill-13" fill="#8ED7E8"></path>
                <path d="M40,60.9189664 C35.51744,60.9189664 31.2900214,59.1606764 28.0970189,55.966995 C24.9033375,52.7734494 23.1445044,48.5460308 23.1445044,44.0634708 L23.1445044,33.6742296 C23.1445044,29.1918053 24.9033375,24.9643868 28.0970189,21.7712485 C31.2900214,18.5777028 35.51744,16.8188697 40,16.8188697 C44.48256,16.8188697 48.7099786,18.5777028 51.9029811,21.7712485 C55.0966625,24.9649299 56.8554956,29.1918053 56.8554956,33.6742296 L56.8554956,44.0634708 C56.8554956,48.5460308 55.0966625,52.7734494 51.9029811,55.966995 C48.7099786,59.1606764 44.48256,60.9189664 40,60.9189664 M62.9505117,13.8914642 C62.528218,13.5202259 61.8843218,13.5609616 61.5130835,13.9832554 C61.1411663,14.4059565 61.1825809,15.0493095 61.6047389,15.4206836 C68.671438,21.6370921 72.7243718,30.5958302 72.7243718,39.9999457 C72.7243718,48.741155 69.3207656,56.9589101 63.1397971,63.1397428 C62.8039989,63.475541 62.4614114,63.8012911 62.1139356,64.1199803 C59.9727297,61.1173495 57.2261908,58.5618612 54.0788123,56.646467 C57.0703087,53.3032854 58.8922823,48.8924203 58.8922823,44.0634708 L58.8922823,33.6742296 C58.8922823,23.2575596 50.4173489,14.7820831 40,14.7820831 C29.5826511,14.7820831 21.1077177,23.2575596 21.1077177,33.6742296 L21.1077177,44.0634708 C21.1077177,54.4808197 29.5826511,62.9557531 40,62.9557531 C44.833702,62.9557531 49.2487765,61.1301133 52.5935875,58.1326423 C55.7389292,59.9626272 58.4743337,62.4752072 60.5662493,65.4566555 C54.7614074,70.1646199 47.5780683,72.7243175 40,72.7243175 C32.4213885,72.7243175 25.2375063,70.1640767 19.4321213,65.4555692 C20.8112974,63.4883049 22.4597367,61.7315085 24.3432212,60.2267306 C24.7830313,59.8755885 24.8545904,59.2349513 24.5034484,58.7951411 C24.1523064,58.3560099 23.5115333,58.2839077 23.071859,58.6355928 C21.0902014,60.218855 19.3494277,62.0598385 17.8833487,64.1179435 C17.5369592,63.7996617 17.1949148,63.4744547 16.8602029,63.1397428 C10.6792344,56.9589101 7.27562815,48.741155 7.27562815,39.9999457 C7.27562815,31.2592795 10.6792344,23.0411171 16.8602029,16.8606917 C23.0410356,10.6793159 31.2593339,7.27557384 40,7.27557384 C46.4932758,7.27557384 52.7675291,9.17290847 58.1449174,12.7628128 C58.6126994,13.0751201 59.2449179,12.9489751 59.557361,12.4810573 C59.8698041,12.0132753 59.7435233,11.3810568 59.2757413,11.0686137 C53.5626906,7.2549344 46.89751,5.23878721 40,5.23878721 C30.7151045,5.23878721 21.9855728,8.85462662 15.420059,15.4201404 C8.85468093,21.9855184 5.23884152,30.7151859 5.23884152,39.9999457 C5.23884152,49.2848412 8.85468093,58.0143729 15.420059,64.5798867 C21.9855728,71.1454005 30.7151045,74.7611042 40,74.7611042 C49.2848955,74.7611042 58.0144272,71.1454005 64.579941,64.5798867 C71.1453191,58.0143729 74.7611585,49.2848412 74.7611585,39.9999457 C74.7611585,30.0107293 70.456342,20.4945906 62.9505117,13.8914642" id="Fill-17" stroke="#3B3371" stroke-width="1.90779014" fill="#3C3470"></path>
            </g>
        </g>
    </g>
</svg>