<?xml version="1.0" encoding="UTF-8"?>
<svg width="69px" height="80px" viewBox="0 0 69 80" version="1.1" xmlns="http://www.w3.org/2000/svg" xmlns:xlink="http://www.w3.org/1999/xlink">
    <title>E8A57D97-2810-44DA-914E-7C1428550B0F</title>
    <g id="Dark" stroke="none" stroke-width="1" fill="none" fill-rule="evenodd">
        <g id="Assets" transform="translate(-177.000000, -192.000000)">
            <g id="rewards" transform="translate(177.000000, 192.000000)">
                <g id="Group-3" fill="#FFFFFF">
                    <path d="M34.5,80 C32.6280139,80 30.7929801,79.4885306 29.193317,78.5208366 L5.28258364,64.0561959 C2.02434775,62.0850036 0,58.4171651 0,54.4837316 L0,25.5239607 C0,21.5903874 2.02434775,17.922409 5.28271753,15.9513566 L29.193317,1.48671589 C30.801281,0.514126773 32.6363148,0 34.5001339,0 C36.3640869,0 38.1989867,0.514126773 39.806683,1.48671589 L63.7175502,15.9513566 C66.97592,17.922409 69,21.5905273 69,25.5242404 L69,54.4837316 C69,58.4170252 66.9757861,62.0848638 63.7176841,64.056056 L39.806683,78.5208366 C38.2071538,79.4885306 36.37212,80 34.5,80" id="Fill-1"></path>
                </g>
                <polygon id="Fill-6" fill="#C5B8D9" points="63.0085226 56.8924817 63.0085226 23.1160777 34.4999846 6.22779644 5.99160102 23.1160777 5.99160102 56.8924817 34.4999846 73.780763"></polygon>
                <polygon id="Fill-8" fill="#BBA9D6" points="34.4999846 6.22785984 31.4098513 8.05847376 56.8281015 26.777369 56.8281015 53.2313173 31.4098513 71.950054 34.4999846 73.7806679 63.0085226 56.8925452 63.0085226 23.1161411"></polygon>
                <polygon id="Fill-10" fill="#C5B8D9" points="63.0085226 23.1160777 63.0085226 56.8924817 34.4999846 40.0042005"></polygon>
                <polygon id="Fill-12" fill="#BBA9D6" points="56.828117 26.7773056 56.828117 53.2312539 63.008538 56.8924817 63.008538 23.1160777"></polygon>
                <polygon id="Fill-14" fill="#C5B8D9" points="34.4999846 40.0042797 5.99160102 23.116157 5.99160102 56.892561"></polygon>
                <path d="M34.4999846,19.5919755 C45.4871594,19.5919755 54.3939051,28.7309379 54.3939051,40.0042163 C54.3939051,51.2776533 45.4871594,60.4166156 34.4999846,60.4166156 C23.5128097,60.4166156 14.606064,51.2776533 14.606064,40.0042163 C14.606064,28.7309379 23.5128097,19.5919755 34.4999846,19.5919755" id="Fill-16" fill="#FFD68F"></path>
                <polygon id="Fill-18" fill="#EDB658" points="34.4999846 24.4641127 38.5768039 35.8214006 49.6455461 40.0042797 38.5768039 44.1873173 34.4999846 55.5444468 30.4233197 44.1873173 19.354423 40.0042797 30.4233197 35.8214006"></polygon>
                <path d="M34.4999846,72.407763 L8.30931685,56.8924817 L16.8802154,51.814981 C22.2757059,60.6822599 34.5644042,64.3594971 43.9138996,59.3290734 C45.2534259,58.6406713 44.2160693,56.5145976 42.875925,57.2026828 C30.6964465,63.6536591 15.5952218,54.0830782 15.7651536,40.0038835 C15.7649991,29.4045829 24.169519,20.7809175 34.4999846,20.7809175 C51.2070652,20.7611179 59.541604,41.855896 47.5708328,53.7743038 C46.497636,54.8470889 48.1144602,56.5501035 49.1881204,55.4776355 C50.3099796,54.3563468 51.2940394,53.1309181 52.1319579,51.8219554 L60.6909612,56.8923232 L34.4999846,72.407763 Z M7.15022721,25.1754193 L15.7180361,30.2508594 C12.7176578,36.0330886 12.7176578,43.9753123 15.7180361,49.7575415 L7.15022721,54.8331402 L7.15022721,25.1754193 Z M61.8497419,25.1755778 L61.8497419,54.8331402 L53.2946006,49.7651499 C56.3031666,43.8901933 56.2722699,36.0693871 53.281933,30.2510179 L61.8497419,25.1755778 Z M64.0500503,22.5947435 C63.9476277,22.3790135 63.7804766,22.1954607 63.5713059,22.0764209 L35.0796066,5.19812564 C34.7210504,4.98572433 34.2792276,4.98572433 33.9206715,5.19812564 L18.255582,14.4778435 C17.7012952,14.806273 17.511435,15.5335097 17.8313703,16.1020794 C18.1516146,16.6709662 18.8602304,16.8657731 19.4143626,16.5373436 L34.4999846,7.600638 L60.6908067,23.1159192 L52.1199081,28.1932614 C44.0050448,15.2085674 24.9899808,15.2147492 16.8802154,28.1932614 L8.30931685,23.1157607 L14.1665584,19.6458525 C14.7208452,19.3175816 14.9107054,18.5903449 14.5907701,18.0216166 C14.2705258,17.4530468 13.56191,17.2580815 13.0077778,17.5865109 L5.42773628,22.0768964 C5.0579028,22.2877126 4.82880378,22.6933357 4.8326178,23.1257467 L4.8326178,56.8824957 C4.82880378,57.3141142 5.05821177,57.7192617 5.42511006,57.9297609 L33.920517,74.8105923 C34.3068802,75.0229936 34.6930889,75.0229936 35.0794521,74.8105923 L63.5739321,57.9305535 C63.9429932,57.7194203 64.1731736,57.3134802 64.1672764,56.8772649 L64.1672764,23.131453 C64.169775,22.9504364 64.1319265,22.7667251 64.0500503,22.5947435 Z" id="Fill-24" stroke="#3C3470" stroke-width="1.33333333" fill="#3B3370"></path>
                <path d="M38.1762436,43.0713229 C37.8576987,43.1916308 37.6065085,43.449207 37.4892556,43.7762099 L34.5,52.1040846 L31.5108989,43.7762099 C31.3934915,43.449207 31.1424558,43.1916308 30.8239108,43.0713229 L22.7075027,40.0043431 L30.8239108,36.9372049 C31.1424558,36.816897 31.3934915,36.5593208 31.5108989,36.2323179 L34.5,27.9044432 L37.4892556,36.2323179 C37.606663,36.5593208 37.8578532,36.816897 38.1762436,36.9372049 L46.2924973,40.0043431 L38.1762436,43.0713229 Z M50.8044967,40.0043431 C50.8044967,39.5059926 50.5018635,39.0607424 50.0461372,38.8884437 L39.4793119,34.8952992 L35.5874093,24.0530052 C35.2226738,23.0366491 33.7773262,23.0369661 33.4125907,24.0530052 L29.5206881,34.8952992 L18.9537083,38.8884437 C17.9633146,39.2628407 17.9633146,40.7456871 18.9537083,41.120084 L29.5206881,45.1132285 L33.4125907,55.9555225 C33.7773262,56.9715616 35.2226738,56.9718786 35.5874093,55.9555225 L39.4793119,45.1132285 L50.0461372,41.120084 C50.5018635,40.9479438 50.8044967,40.5025351 50.8044967,40.0043431 Z" id="Fill-26" fill="#3B3370"></path>
            </g>
        </g>
    </g>
</svg>