<?xml version="1.0" encoding="UTF-8"?>
<svg width="78px" height="24px" viewBox="0 0 78 24" version="1.1" xmlns="http://www.w3.org/2000/svg" xmlns:xlink="http://www.w3.org/1999/xlink">
    <title>F26A29AC-1FDF-48E3-9F46-D899E5269BAC</title>
    <defs>
        <polygon id="path-1" points="0 0 78 0 78 24 0 24"></polygon>
    </defs>
    <g id="Dark" stroke="none" stroke-width="1" fill="none" fill-rule="evenodd">
        <g id="Assets" transform="translate(-57.000000, -319.000000)">
            <g id="sherpa" transform="translate(57.000000, 319.000000)">
                <g id="Group-3">
                    <mask id="mask-2" fill="white">
                        <use xlink:href="#path-1"></use>
                    </mask>
                    <g id="Clip-2"></g>
                    <path d="M9.61283453,24 C8.37315785,23.9984013 7.16642585,23.7966982 6.02398913,23.4002198 C4.83054128,22.9864221 3.75744781,22.3826452 2.83446521,21.6056754 C1.79750462,20.7327834 1.0089576,19.6848334 0.490875834,18.4900692 C0.0878347861,17.599325 -0.0702465742,16.6291786 0.0285874863,15.6694237 C-0.0822023074,14.5292818 0.163820112,13.4069921 0.745134425,12.4096677 C0.805975823,12.3052191 0.870802465,12.2026356 0.939348668,12.1016509 C0.605385189,11.2074429 0.437207876,10.2647408 0.438270608,9.28686732 C0.438536291,9.1054145 0.444381316,8.92342877 0.455805684,8.74464046 C0.444912682,8.57011535 0.43933334,8.39479089 0.439599023,8.22186449 C0.441458804,6.36976674 1.00576941,4.73056299 2.11632417,3.34901691 C3.0669378,2.16597649 4.31511634,1.27629811 5.82578964,0.705561045 C6.91801228,0.2930956 8.10588079,0.0591520211 9.35618479,0.0101251207 L9.39736565,0.00905931855 C9.51851708,0.00452965928 9.63010392,0.00319740655 9.74195645,0.00213160437 C9.7879196,0.000799351637 9.82192702,0 9.85620012,0 C11.1139432,0.00186515382 12.2755091,0.20037081 13.3137981,0.590454409 C13.7519093,0.755387297 14.1727511,0.950429096 14.573401,1.1739811 C15.3866566,0.609372398 16.3417868,0.263253139 17.3378322,0.18065347 C17.3612123,0.178521866 17.4802383,0.172659954 17.5099948,0.171594151 L17.5889026,0.167597393 C17.6635595,0.162801283 17.7379508,0.159070976 17.813139,0.159070976 C17.9526226,0.159070976 18.0905121,0.165199338 18.225479,0.176923162 C18.2562982,0.178521866 18.2863204,0.180387019 18.3158112,0.183051525 C19.6378496,0.294960754 20.8854968,0.871026834 21.8169812,1.80413664 C22.0906347,2.07964651 22.3324062,2.37913692 22.5404359,2.69781177 C22.7636096,2.35995248 23.0250416,2.04447504 23.3223409,1.756442 C24.2724231,0.839585669 25.5219301,0.283769831 26.8437028,0.188114085 C26.8827582,0.185183129 26.9218136,0.183317975 26.9611347,0.181985723 L27.0089576,0.179321217 C27.0918507,0.173992206 27.1747438,0.169728998 27.2584339,0.169728998 C27.4005743,0.169728998 27.5408549,0.176123811 27.6784787,0.188380536 C27.710892,0.189712789 27.7422426,0.191844393 27.7733275,0.194775349 C28.4779187,0.255526073 29.1601925,0.447636917 29.7861416,0.759384055 C30.4182013,0.447636917 31.1068516,0.256325425 31.8218044,0.197173404 L31.8685646,0.193176646 C31.8685646,0.193176646 31.8977897,0.192377294 31.8991181,0.192377294 C32.0311626,0.180919921 32.1650668,0.175324459 32.2984396,0.175324459 L39.8201899,0.183850877 C40.5362054,0.184916679 41.2389369,0.316010347 41.8919856,0.567806113 C42.5208571,0.325602567 43.1935664,0.196640503 43.8755745,0.189179887 L46.9378363,0.191844393 C47.1121243,0.191844393 47.2845526,0.197173404 47.4556524,0.206765623 L47.4901912,0.207831426 C48.8395949,0.281638227 50.0954783,0.614701409 51.2323357,1.19902746 C52.0402775,0.644010969 52.9863746,0.303753622 53.972324,0.222219755 L54.0188185,0.218222997 L54.1556453,0.211828184 C54.2526195,0.205699821 54.3495938,0.20037081 54.4473651,0.20037081 L57.7798265,0.204101118 C57.9535831,0.204101118 58.12548,0.209163678 58.2957828,0.219288799 C58.3159747,0.2198217 58.3359009,0.220621052 58.3555615,0.221953305 C59.8043306,0.305085875 61.1500148,0.697301078 62.3562154,1.38767444 C62.7409244,1.60776259 63.1046443,1.85316355 63.4465783,2.1228115 C64.4242916,1.01757463 65.7832599,0.32720127 67.2745384,0.228881019 C67.3733724,0.221686854 67.4807084,0.217423645 67.5893727,0.216091393 L67.6518082,0.215292041 C67.7713655,0.215292041 67.8869376,0.21955525 68.0006499,0.227815217 C70.2167115,0.360241138 72.0956213,1.73645821 72.911268,3.82409823 L77.5848969,15.0461959 C77.9294877,15.9321439 78.0599381,16.8399409 77.9733254,17.7482708 C78.0958053,19.0208387 77.7955835,20.2571692 77.0997599,21.3368268 C76.0511092,22.9677706 74.3233729,23.9040778 72.3602416,23.9040778 C71.2701444,23.903012 70.2517816,23.6048538 69.3277363,23.0178633 C68.6420086,22.5846147 68.0673363,22.0149434 67.6313506,21.3421558 C67.160029,22.0669013 66.5463014,22.6546912 65.7989352,23.0961997 C64.9136796,23.6240383 63.9415457,23.8934198 62.9149467,23.8934198 C61.2669153,23.8912882 59.7408324,23.1846613 58.6826172,21.9677817 C58.6212444,22.0381246 58.5580119,22.1068689 58.4929195,22.1742809 C57.4264682,23.2768532 55.9854038,23.8835611 54.434081,23.8835611 C53.8121172,23.8830282 53.2103453,23.7857738 52.6370015,23.5941958 C52.0623292,23.7836422 51.4560407,23.8795644 50.8258407,23.8795644 C49.8842603,23.8784986 48.9931597,23.6592098 48.1753875,23.2280928 C47.8897784,23.078614 47.6206415,22.906487 47.3685084,22.7119781 C46.3918578,23.4647009 45.1952218,23.8718373 43.9244602,23.8718373 C43.214821,23.8710379 42.5171376,23.7394114 41.8672771,23.4870827 C41.2155568,23.7372798 40.5144194,23.8670412 39.8005293,23.8670412 L32.2769193,23.8587812 C31.3871471,23.8577154 30.5340391,23.6557459 29.7609017,23.2680604 C28.9906868,23.6528149 28.1378445,23.8529193 27.2451498,23.8529193 C25.7254432,23.8510541 24.3045708,23.2613991 23.2418389,22.1918666 C22.9692482,21.9182219 22.7282738,21.6205966 22.5205097,21.3043198 C22.3273582,21.5982148 22.1060443,21.8758562 21.857365,22.1332475 C20.7922421,23.2355534 19.3511777,23.8422613 17.7993235,23.8422613 C16.621551,23.840929 15.5032914,23.4862833 14.5648992,22.8289499 C13.959142,23.1494899 13.3103443,23.4063482 12.6275391,23.5952616 C11.6559365,23.8638438 10.6455442,24 9.62346185,24 L9.61283453,24 Z" id="Fill-1" fill="#FEFEFE" mask="url(#mask-2)"></path>
                </g>
                <path d="M76.099862,15.6276176 L71.4328752,4.4225728 C70.8414649,2.89181442 69.5032199,1.91527317 67.895838,1.82308128 C67.8156017,1.81721937 67.7345684,1.81402196 67.6524724,1.81402196 L67.6524724,1.81402196 L67.6524724,1.81402196 C67.6522067,1.81402196 67.6522067,1.81402196 67.651941,1.81402196 C67.651941,1.81402196 67.651941,1.81402196 67.6516753,1.81402196 C67.6452989,1.81402196 67.6389226,1.81455486 67.6325462,1.81455486 C67.5472619,1.81508776 67.4627748,1.81801872 67.3790846,1.82388063 C65.8503449,1.92486539 64.5338858,2.87103127 63.8978408,4.35596017 L63.7501211,4.70874069 C63.1661499,3.92084642 62.4344591,3.2728387 61.5659415,2.77617488 C60.5717559,2.20703651 59.4609354,1.88596361 58.2592514,1.81775227 C58.2486241,1.81695292 58.2377311,1.81721937 58.2273694,1.81668647 C58.0791183,1.80762715 57.9295388,1.80283104 57.7783652,1.80283104 L54.448295,1.79910073 L54.448295,1.79910073 L54.4477637,1.79910073 L54.4477637,1.79910073 L54.447498,1.79910073 C54.3646049,1.79910073 54.2830402,1.80602844 54.2012099,1.81082455 C54.186066,1.81215681 54.1706563,1.81162391 54.1555124,1.81295616 C54.1408998,1.81402196 54.1262873,1.81375551 54.1119404,1.81508776 C54.1090179,1.81535421 54.1063611,1.81508776 54.1037042,1.81535421 C53.1690316,1.89289132 52.2973258,2.28244202 51.6187715,2.93737746 C51.5427862,3.01065136 51.4702547,3.08685622 51.4009115,3.16519268 C51.1684389,3.00025979 50.9240106,2.84785008 50.6681579,2.70796354 C49.686725,2.17186504 48.5923769,1.86917722 47.4103535,1.80469619 C47.3999918,1.80389684 47.3893645,1.80416329 47.3790029,1.80363039 C47.2328772,1.79510397 47.0851575,1.79057431 46.9358437,1.79057431 L43.9392056,1.78711045 C43.9370801,1.78711045 43.9352204,1.78737691 43.9333606,1.78737691 C43.2045922,1.78817626 42.5042519,1.9781555 41.89079,2.33413343 C41.2759996,1.97549099 40.5647664,1.78338015 39.8184629,1.7825808 L32.2983068,1.77405438 C32.1994727,1.77405438 32.1014357,1.77885049 32.0044614,1.78790981 C31.9901146,1.78897561 31.975502,1.78897561 31.9614208,1.79004141 C31.9584983,1.79030786 31.9558414,1.79030786 31.9531846,1.79057431 C31.1566671,1.8563876 30.4061128,2.1494832 29.7814921,2.6402851 C29.1682958,2.15134835 28.425712,1.85558825 27.622021,1.7863111 C27.604486,1.7847124 27.5861538,1.7852453 27.5686188,1.7836466 C27.4668622,1.77378793 27.3635115,1.76845892 27.2590981,1.76845892 C27.2590981,1.76845892 27.2588324,1.76845892 27.2588324,1.76845892 C27.2585667,1.76845892 27.2585667,1.76845892 27.2583011,1.76845892 C27.1865667,1.76845892 27.115895,1.77485373 27.0449576,1.77858404 C27.0189207,1.78044919 26.9923524,1.77991629 26.9663155,1.78231435 C26.012248,1.84919343 25.120616,2.23954348 24.4295746,2.9064692 C23.6412933,3.66985001 23.2069016,4.70767489 23.2058389,5.82863233 L23.2045105,6.89283581 C23.2045105,6.89336871 23.2045105,6.89390161 23.2045105,6.89443451 L23.2039791,7.41747694 L22.5341924,7.41694403 L21.86414,7.41614468 L21.8659997,5.82676718 C21.8670625,4.72685933 21.4507373,3.70102472 20.6903526,2.93524586 C20.016315,2.26006017 19.1326535,1.85665405 18.1700841,1.77512018 C18.1530804,1.77352148 18.1355453,1.77405438 18.1185416,1.77245567 C18.0181134,1.76286346 17.9166226,1.75780089 17.8140689,1.75780089 C17.8140689,1.75780089 17.8138033,1.75780089 17.8138033,1.75780089 C17.8138033,1.75780089 17.8138033,1.75780089 17.8135376,1.75780089 C17.8135376,1.75780089 17.8135376,1.75780089 17.8132719,1.75780089 C17.8132719,1.75780089 17.8132719,1.75780089 17.8132719,1.75780089 C17.749508,1.75780089 17.6868068,1.76392926 17.6238399,1.76686021 C17.6148067,1.76712666 17.6057735,1.76739311 17.5967403,1.76792602 C17.5717661,1.76979117 17.5462605,1.76925827 17.5212863,1.77165632 C17.5040169,1.77298858 17.4862162,1.77245567 17.4692125,1.77405438 C16.5345398,1.85159149 15.6625683,2.24114218 14.9840141,2.89581118 C14.890228,2.98667081 14.8014899,3.08152721 14.7177997,3.17958101 C14.1335629,2.72501638 13.4752005,2.35864688 12.7544027,2.08766667 C11.8949183,1.76472861 10.9249098,1.60032862 9.85872411,1.59872992 C9.85819274,1.59872992 9.85792706,1.59872992 9.85739569,1.59872992 L9.85739569,1.59872992 L9.85713001,1.59872992 C9.85713001,1.59872992 9.85686433,1.59872992 9.85659865,1.59872992 C9.85659865,1.59872992 9.85633296,1.59872992 9.85633296,1.59872992 C9.82312259,1.59872992 9.79070927,1.60032862 9.7574989,1.60059507 C9.65175708,1.60166088 9.54628095,1.60272668 9.44186755,1.60698989 C9.43416274,1.60752279 9.42619225,1.60725634 9.41848745,1.60752279 C8.33954895,1.64988842 7.32198322,1.84892698 6.38784194,2.20144105 C5.14683684,2.67039401 4.12741133,3.3940737 3.35719643,4.35249631 C2.48044267,5.44307839 2.03515803,6.74548866 2.03356393,8.22295693 C2.03329825,8.39828139 2.04047169,8.57254005 2.05375584,8.74493355 C2.03967464,8.92345542 2.0325012,9.10464179 2.0325012,9.28875912 C2.03117279,10.3846702 2.30057531,11.4267583 2.80404451,12.358003 C2.54101838,12.6092658 2.30907716,12.8943679 2.12123931,13.2165066 C1.67728309,13.9777558 1.51787331,14.8333285 1.63424245,15.6747793 C1.52876631,16.3971268 1.62919447,17.142389 1.94748265,17.8410223 C2.36646468,18.8111687 3.00941744,19.6656756 3.85960291,20.3810953 C4.633006,21.0323005 5.53685942,21.5396223 6.54539193,21.8894719 C7.52018271,22.2278641 8.55209532,22.3999911 9.61296737,22.4013234 L9.62332901,22.4013234 C10.5022082,22.4013234 11.3699288,22.284618 12.2031105,22.0544048 C13.1247647,21.7991451 13.9696365,21.3976042 14.7151429,20.859907 C14.7215193,20.8553773 14.7273643,20.8511141 14.733475,20.8465844 C14.7948478,20.9174603 14.8588774,20.9859381 14.9252981,21.0528172 C15.6870112,21.8193954 16.706171,22.2422524 17.7991907,22.2435846 C18.9161218,22.2435846 19.9504256,21.8095367 20.7124043,21.0211095 C21.4462207,20.261459 21.8508558,19.2534766 21.8521842,18.1836777 L21.854044,16.4109822 L23.1938832,16.4125809 L23.1930861,17.1192078 L23.1930861,17.1192078 L23.1917577,18.1850099 C23.1904293,19.2758585 23.609677,20.2984957 24.3708587,21.0632087 C25.1331031,21.8300534 26.1517315,22.2529104 27.2450169,22.2542427 L27.2450169,22.2542427 C28.1844719,22.2542427 29.0575061,21.9446271 29.7613002,21.3808178 C30.4725335,21.948091 31.3495529,22.2587723 32.2789119,22.2601046 L39.8003965,22.2683645 C40.5451058,22.2683645 41.2560734,22.077586 41.8711295,21.7197429 C42.4845914,22.079984 43.1875885,22.2720949 43.9243274,22.2728942 C45.0409928,22.2728942 46.0752966,21.8391127 46.8372753,21.0506856 C47.0421169,20.8385909 47.2211872,20.6070454 47.3731578,20.3608451 C47.7658373,20.9939316 48.2865759,21.4834012 48.9173072,21.8130006 C49.5044665,22.1226161 50.1447625,22.2800884 50.8257079,22.2808877 C51.4760998,22.2808877 52.0916872,22.1394025 52.6395254,21.8710868 C53.1886921,22.1410012 53.7989659,22.2840851 54.4342138,22.2848845 C55.5503479,22.2848845 56.5846517,21.851103 57.3474275,21.0621429 C58.0809781,20.3024924 58.4856133,19.2950429 58.4869417,18.2249775 L58.487473,17.7395046 C58.6293477,17.7277808 58.7696284,17.7123267 58.9088462,17.6936751 C58.9088462,17.6944745 58.9091119,17.6952738 58.9093776,17.6960732 C58.7837095,18.623854 58.9813777,19.5633586 59.4944115,20.3888224 C60.2359326,21.5803892 61.5128049,22.292878 62.9150796,22.2944767 C63.6510213,22.2944767 64.3508303,22.0997014 64.9897978,21.7186771 C65.7275994,21.2830304 66.2855336,20.641684 66.6473938,19.8132892 L66.8046781,19.4301333 L68.4702445,19.4319985 L68.5998978,19.7560024 C68.9157949,20.552423 69.4633674,21.2140197 70.1804457,21.6672521 C70.8459815,22.0898427 71.5776724,22.3046018 72.3561235,22.3054012 L72.3601087,22.3054012 C73.7708852,22.3054012 75.0108276,21.6355445 75.7608506,20.469024 C76.2924822,19.6440931 76.4957297,18.704855 76.3692646,17.7485639 C76.4606595,17.0576577 76.376438,16.3382412 76.099862,15.6276176" id="Fill-4" fill="#232039"></path>
                <path d="M14.2643055,11.5967005 C14.0403348,11.3920664 13.7985633,11.206084 13.538991,11.0382201 C13.9329988,11.0123744 14.3092059,10.8876756 14.6657524,10.6619919 C14.9457823,10.4808056 15.1753324,10.2505923 15.3493547,9.985474 L15.3461665,13.0400631 C15.0794208,12.501833 14.7212802,12.0147614 14.2643055,11.5967005 M10.271622,9.97588178 C9.3845066,9.8836899 8.97774599,9.73687565 8.8138196,9.65747338 C8.64776775,9.57700532 8.57364221,9.51705395 8.54973074,9.495205 C8.5175831,9.43232267 8.51067535,9.38942413 8.51067535,9.34599269 C8.51094103,9.32201215 8.51200376,9.30389351 8.51306649,9.29057098 C8.51970857,9.28630777 8.52794474,9.28124521 8.53750932,9.27564975 C8.82338419,9.11284847 9.23519277,9.02705139 9.72218964,9.02758183 L9.81066206,9.02838364 C10.1512676,9.02865009 10.3574376,9.07900925 10.4690244,9.12057553 C10.6308254,9.18105981 10.7679178,9.25992917 10.875785,9.35398621 C10.989763,9.45363872 11.0893941,9.58260078 11.190885,9.76671811 C11.2764349,9.91539751 11.3765974,10.0542182 11.489247,10.1813152 C11.1045381,10.0880575 10.6983088,10.0195797 10.271622,9.97588178 M27.2601874,4.43291108 C26.6097955,4.43211173 25.997662,4.67671333 25.5356393,5.1224851 C25.0611296,5.58211229 24.7994318,6.21200138 24.7986348,6.89624638 L24.7949152,10.0837943 L20.2671463,10.0787317 L20.2706001,6.89091737 C20.2713972,6.21759684 20.0205925,5.59356966 19.5625551,5.13234377 C19.1063774,4.67511463 18.4854763,4.42305241 17.8146269,4.42225306 C17.164235,4.42145371 16.5521015,4.66605531 16.0900788,5.11182707 C15.615569,5.57145426 15.3536056,6.20134335 15.3530743,6.88558836 L15.3522772,7.38145282 C15.3339451,7.35001166 15.3174727,7.31803759 15.2978122,7.28712933 C14.9394059,6.69614202 14.506874,6.1741654 14.0119067,5.73478845 C13.4911681,5.2732961 12.8798316,4.90852531 12.1941039,4.65060118 C11.5128928,4.3945422 10.7296594,4.26424789 9.86592412,4.26317424 C8.8122255,4.26184983 7.83079265,4.43024658 6.94872523,4.76330976 C5.9779197,5.13021216 5.18645017,5.6881596 4.59689968,6.42169796 C3.95421261,7.22104959 3.62768825,8.18639992 3.62635984,9.29057098 C3.62476574,10.7533845 4.22361513,12.0440709 5.35781568,13.0232767 C6.3942449,13.9185505 7.78110994,14.4570471 9.47058787,14.6227793 C10.4113712,14.7234976 10.7057479,14.9563754 10.7734971,15.0253861 C10.9754162,15.230553 11.0033129,15.3683079 11.0030472,15.4863455 C11.0030472,15.5159215 11.0011874,15.5870638 10.9833866,15.6075805 C10.9188257,15.6811209 10.8027222,15.7898327 10.538102,15.8878865 C10.2692308,15.987539 9.96050725,16.0376317 9.6199017,16.0373652 C9.31675744,16.0370988 9.02769438,15.9912693 8.75962028,15.9014755 C8.4973912,15.8135468 8.28165664,15.7053679 8.11879298,15.580669 C7.97187031,15.467694 7.93440901,15.3978839 7.93440901,15.3978839 L7.93440901,15.3981504 C7.69157478,14.882835 7.3047404,14.4693038 6.81535239,14.2017874 C6.44392761,13.9987521 6.04885705,13.8956358 5.64129939,13.8953693 C5.46833979,13.8951029 5.29139494,13.9140208 5.1516457,13.945462 C4.43005079,14.0896118 3.8420944,14.4956824 3.49617519,15.0893342 C3.11810834,15.7376084 3.08516365,16.5017885 3.40371752,17.1902968 C3.72306843,17.9368912 4.2209583,18.5984879 4.88436865,19.1564353 C5.50845791,19.6818758 6.24280561,20.093009 7.06668847,20.378644 C7.87409898,20.65895 8.7311922,20.801501 9.61458804,20.8025717 C10.353718,20.8033662 11.0816893,20.7061117 11.7785757,20.513468 C12.5182371,20.3088339 13.1925404,19.9888268 13.7834193,19.562506 C14.4096341,19.1103394 14.9170885,18.5417339 15.2914358,17.8721437 C15.3089709,17.840969 15.3241148,17.8081956 15.3408528,17.776488 L15.3403215,18.1761638 C15.3395244,18.8398921 15.5932517,19.4609883 16.0544773,19.9243458 C16.5154372,20.3882362 17.1342128,20.6442952 17.7962947,20.6448281 C18.4788343,20.6456274 19.1077058,20.3842395 19.5673373,19.9088917 C20.0118249,19.4484651 20.257316,18.835096 20.258113,18.1817592 L20.2618326,14.8106269 L24.7896016,14.8156895 L24.785882,18.1868218 C24.785085,18.8505501 25.0390779,19.4716463 25.5000378,19.9350038 C25.9609977,20.3988942 26.5797734,20.6549532 27.242121,20.6554861 C27.9352878,20.6562855 28.5678789,20.3879698 29.0235252,19.8995659 C29.4507434,19.4418039 29.6864042,18.8353624 29.6869356,18.1924173 L29.6996903,6.90157539 C29.7004854,6.23837998 29.4595109,5.62181342 29.01954,5.16271913 C28.5665505,4.69296682 27.9416642,4.43371043 27.2601874,4.43291108" id="Fill-6" fill="#EB5C5D"></path>
                <path d="M67.630713,13.2011058 L67.6631263,13.12197 L67.6947425,13.2011058 L67.630713,13.2011058 Z M58.645581,10.9274833 C58.5645477,11.0695014 58.4651822,11.168621 58.3230419,11.2498884 C58.2313812,11.3026456 58.0740969,11.3721892 57.7674988,11.3719235 L56.9005753,11.370857 L56.9029665,9.26483186 L57.7698899,9.26589766 C58.0597501,9.26616411 58.2095952,9.3362406 58.2964736,9.38873136 C58.4428649,9.47692649 58.5464812,9.58723702 58.6328282,9.74550864 C58.7234261,9.91150733 58.7691236,10.1273323 58.768859,10.3868551 C58.7683265,10.6788849 58.6984519,10.8352914 58.645581,10.9274833 L58.645581,10.9274833 Z M51.980924,13.0436335 L51.9780015,15.502972 L51.1140005,14.1041067 C51.4474326,13.7907608 51.7367613,13.4358487 51.980924,13.0436335 L51.980924,13.0436335 Z M47.8426462,10.4923695 C47.774897,10.5986833 47.6906756,10.6716907 47.5596939,10.7369711 C47.3970959,10.818505 47.1837525,10.8595384 46.9257743,10.8592732 L46.3912202,10.858739 L46.39308,9.25310803 L46.9276341,9.25364094 C47.1662174,9.25390739 47.3636198,9.29574012 47.5139964,9.37754044 C47.6489633,9.45134724 47.7390298,9.53821012 47.8144838,9.66637283 C47.8628381,9.74923895 47.9268677,9.89019129 47.9266028,10.1577076 C47.9263363,10.3362295 47.8838271,10.427622 47.8426462,10.4923695 L47.8426462,10.4923695 Z M34.7450077,15.8656112 L34.7460704,14.8935996 L37.9247014,14.8970635 C38.5854549,14.8978628 39.1970571,14.6599225 39.6476553,14.2256081 C40.1123348,13.7766389 40.3687189,13.1643356 40.3695159,12.5008737 C40.370313,11.8371454 40.1149917,11.2237763 39.6495151,10.7721426 C39.2007766,10.3386276 38.5902372,10.099355 37.930015,10.0988221 L34.7513841,10.0950918 L34.7524468,9.23978551 L39.8099876,9.24564742 C40.4540031,9.24618032 41.0286754,9.03355278 41.4760855,8.63281116 L41.4673179,16.4880397 C41.0199078,16.0859658 40.4460326,15.872006 39.8025485,15.8712067 L34.7450077,15.8656112 Z M74.6136581,17.2751346 L69.951985,6.08341234 C69.5712613,5.07916024 68.7136367,4.47964651 67.653296,4.47858071 C66.6407782,4.47724845 65.7871389,5.05837709 65.3662971,6.04078026 L63.6151807,10.2211229 C63.5920663,9.17317287 63.347638,8.21448381 62.8821614,7.37196718 C62.3808177,6.46417017 61.6717099,5.74342145 60.7744985,5.2302377 C59.8921654,4.72531391 58.8828359,4.46872204 57.7754693,4.46738978 L54.4493843,4.46365948 C53.7989924,4.46286012 53.1868589,4.70719527 52.7248362,5.15323349 C52.2503265,5.61259423 51.9886288,6.24248332 51.9878317,6.92672832 L51.987566,7.16440221 C51.4827684,6.32668169 50.7832252,5.65762437 49.9046116,5.17774694 C49.0289206,4.69946821 48.02889,4.45646531 46.9329478,4.45513306 L43.9394979,4.4516692 C43.289106,4.4511363 42.6769724,4.69547145 42.2149498,5.14124321 C42.0871563,5.26514272 41.9761008,5.4020983 41.8801892,5.54837965 C41.7826836,5.39463768 41.6689713,5.25048794 41.5361298,5.12179232 C41.0879227,4.68747793 40.4768519,4.44793889 39.8153013,4.44713954 L32.2988647,4.43861117 C31.6484728,4.43781377 31.0363393,4.68241537 30.5743166,5.12818714 C30.0998069,5.58754788 29.8381092,6.21770342 29.8373121,6.90168197 L29.8245575,18.1925238 C29.8237623,18.8562522 30.0777552,19.4773484 30.5387151,19.9407059 C30.999675,20.4045963 31.6184507,20.6603888 32.2805326,20.6611881 L39.7972349,20.6697146 C40.4587854,20.6705139 41.0703876,20.4320407 41.5204545,19.9982592 C41.6543587,19.8687642 41.7691338,19.7235487 41.8671708,19.5684745 C41.957503,19.7059629 42.061385,19.8351915 42.1793483,19.9537619 C42.6405739,20.4176523 43.2593495,20.6737113 43.9214314,20.6745107 C44.6039709,20.6750436 45.2328425,20.413922 45.6922083,19.9385743 C46.1369616,19.4778813 46.382187,18.8645121 46.382984,18.2111754 L46.3859065,15.7243924 L48.7183372,19.5026612 C48.9595774,19.8962086 49.2770685,20.1980971 49.6588549,20.397935 C50.0159328,20.5860491 50.4072838,20.6817048 50.8225463,20.6822377 C51.5555655,20.6830371 52.1889537,20.4051292 52.6355668,19.9063338 C52.6538989,19.9257846 52.6703712,19.9465678 52.6892347,19.9654858 C53.1501947,20.4296426 53.7689703,20.6854351 54.4310522,20.6862345 C55.1135917,20.6870339 55.7424633,20.4256459 56.2020948,19.9502981 C56.6465824,19.4896051 56.8920735,18.8765024 56.8928705,18.2231657 L56.894996,16.1693648 L57.7621851,16.1701642 C58.862644,16.1714965 59.8663942,15.9260955 60.744742,15.4411555 C61.0962406,15.2471795 61.418514,15.0206965 61.711828,14.7651705 L60.6942623,17.1946665 C60.3430294,17.9852253 60.3972287,18.8186826 60.8467643,19.5423623 C61.3024106,20.2745684 62.0550904,20.6947609 62.9121836,20.6958267 C63.358531,20.6963596 63.7862805,20.5764569 64.1808197,20.341181 C64.6239789,20.0795266 64.9592708,19.6937062 65.1874925,19.1714631 L65.7363935,17.8304176 L69.5489439,17.8346808 L70.0808412,19.1645354 C70.2716016,19.6449458 70.6015798,20.0435558 71.0330489,20.3164011 C71.4403409,20.5748582 71.8858912,20.7059518 72.3577441,20.7064869 C73.2299813,20.7075505 73.9632663,20.314536 74.4221007,19.6012479 C74.8631344,18.9167364 74.9346032,18.0989997 74.6136581,17.2751346 L74.6136581,17.2751346 Z" id="Fill-8" fill="#EB5C5D"></path>
                <path d="M14.2655011,10.5308983 C14.0415303,10.3262643 13.7997588,10.1402818 13.5401866,9.97241793 C13.9341944,9.94657222 14.3104015,9.82187337 14.666948,9.59618976 C14.9469779,9.41500339 15.1765279,9.18479011 15.3505503,8.91967182 L15.3473621,11.9742609 C15.0806164,11.4360308 14.7224758,10.9489592 14.2655011,10.5308983 M10.2728176,8.9100796 C9.38570217,8.81788771 8.97894156,8.67107346 8.81501517,8.5916712 C8.64896333,8.51120314 8.57483778,8.45125176 8.55092631,8.42940282 C8.51877868,8.36652049 8.51187092,8.32362195 8.51187092,8.28019051 C8.5121366,8.25620996 8.51319933,8.23809133 8.51426207,8.2247688 C8.52090414,8.22050559 8.52914031,8.21544303 8.5387049,8.20984757 C8.82457976,8.04704628 9.23638835,7.96124921 9.72338521,7.96177964 L9.81185763,7.96258146 C10.1524632,7.96284791 10.3586332,8.01320707 10.47022,8.05477335 C10.6320209,8.11525762 10.7691133,8.19412699 10.8769806,8.28818403 C10.9909586,8.38783653 11.0905897,8.5167986 11.1920806,8.70091592 C11.2776305,8.84959533 11.377793,8.98841606 11.4904426,9.11551297 C11.1057336,9.02225528 10.6995044,8.95377749 10.2728176,8.9100796 M27.261383,3.3671089 C26.6109911,3.36630955 25.9988576,3.61091115 25.5368349,4.05668291 C25.0623251,4.5163101 24.8006274,5.14619919 24.7998304,5.8304442 L24.7961108,9.01799207 L20.2683418,9.01292951 L20.2717957,5.82511518 C20.2725928,5.15179466 20.021788,4.52776748 19.5637506,4.06654158 C19.107573,3.60931245 18.4866719,3.35725023 17.8158224,3.35645088 C17.1654306,3.35565153 16.553297,3.60025313 16.0912744,4.04602489 C15.6167646,4.50565208 15.3548012,5.13554117 15.3542698,5.81978617 L15.3534728,6.31565064 C15.3351407,6.28420947 15.3186683,6.25223541 15.2990078,6.22132715 C14.9406015,5.63033984 14.5080696,5.10836322 14.0131023,4.66898627 C13.4923637,4.20749392 12.8810272,3.84272312 12.1952995,3.584799 C11.5140883,3.32874002 10.730855,3.19844571 9.86711969,3.19737206 C8.81342108,3.19604765 7.83198823,3.3644444 6.94992081,3.69750758 C5.97911528,4.06440998 5.18764574,4.62235742 4.59809526,5.35589577 C3.95540818,6.15524741 3.62888383,7.12059774 3.62755541,8.2247688 C3.62596131,9.68758229 4.2248107,10.9782687 5.35901125,11.9574745 C6.39544047,12.8527483 7.78230551,13.3912449 9.47178345,13.5569771 C10.4125668,13.6576954 10.7069435,13.8905732 10.7746927,13.9595839 C10.9766117,14.1647508 11.0045084,14.3025057 11.0042428,14.4205433 C11.0042428,14.4501193 11.002383,14.5212616 10.9845822,14.5417783 C10.9200213,14.6153187 10.8039178,14.7240305 10.5392976,14.8220843 C10.2704264,14.9217368 9.96170282,14.9718295 9.62109727,14.9715631 C9.31795301,14.9712966 9.02888996,14.9254671 8.76081585,14.8356733 C8.49858677,14.7477446 8.28285221,14.6395657 8.11998856,14.5148668 C7.97306588,14.4018918 7.93560458,14.3320818 7.93560458,14.3320818 L7.93560458,14.3323482 C7.69277036,13.8170329 7.30593597,13.4035016 6.81654796,13.1359853 C6.44512318,12.9329499 6.05005263,12.8298336 5.64249497,12.8295671 C5.46953536,12.8293007 5.29259051,12.8482187 5.15284127,12.8796598 C4.43124636,13.0238096 3.84328997,13.4298802 3.49737076,14.023532 C3.11930391,14.6718062 3.08635922,15.4359864 3.40491309,16.1244946 C3.72426401,16.871089 4.22215387,17.5326857 4.88556422,18.0906332 C5.50965349,18.6160736 6.24400119,19.0272068 7.06788404,19.3128418 C7.87529455,19.5931478 8.73238777,19.7356988 9.61578361,19.7367695 C10.3549136,19.737564 11.0828849,19.6403095 11.7797713,19.4476658 C12.5194327,19.2430318 13.193736,18.9230247 13.7846149,18.4967038 C14.4108296,18.0445372 14.9182841,17.4759317 15.2926314,16.8063415 C15.3101665,16.7751668 15.3253104,16.7423934 15.3420484,16.7106858 L15.341517,17.1103616 C15.34072,17.7740899 15.5944472,18.3951861 16.0556728,18.8585436 C16.5166328,19.322434 17.1354084,19.578493 17.7974903,19.5790259 C18.4800298,19.5798253 19.1089014,19.3184373 19.5685329,18.8430895 C20.0130205,18.382663 20.2585116,17.7692938 20.2593086,17.1159571 L20.2630282,13.7448248 L24.7907972,13.7498873 L24.7870776,17.1210196 C24.7862805,17.7847479 25.0402734,18.4058441 25.5012334,18.8692016 C25.9621933,19.333092 26.5809689,19.589151 27.2433165,19.5896839 C27.9364834,19.5904833 28.5690745,19.3221676 29.0247208,18.8337637 C29.451939,18.3760017 29.6875998,17.7695602 29.6881311,17.1266151 L29.7008859,5.83577321 C29.701681,5.1725778 29.4607065,4.55601124 29.0207355,4.09691695 C28.5677461,3.62716463 27.9428598,3.36790825 27.261383,3.3671089" id="Fill-10" fill="#FFD68F"></path>
                <path d="M67.6319085,12.1353302 L67.6643218,12.0561944 L67.6959381,12.1353302 L67.6319085,12.1353302 Z M58.6467766,9.86170773 C58.5657432,10.0037259 58.4663778,10.1028455 58.3242374,10.1841129 C58.2325768,10.2368701 58.0752925,10.3064137 57.7686944,10.306148 L56.9017709,10.3050814 L56.904162,8.19905632 L57.7710855,8.20012212 C58.0609456,8.20038857 58.2107908,8.27046507 58.2976691,8.32295582 C58.4440605,8.41115096 58.5476768,8.52146148 58.6340238,8.67973311 C58.7246217,8.8457318 58.7703191,9.06155674 58.7700546,9.32107957 C58.7695221,9.61310937 58.6996475,9.76951584 58.6467766,9.86170773 L58.6467766,9.86170773 Z M51.9821195,11.977858 L51.979197,14.4371965 L51.115196,13.0383311 C51.4486282,12.7249853 51.7379569,12.3700732 51.9821195,11.977858 L51.9821195,11.977858 Z M47.8438418,9.42659398 C47.7760926,9.53290775 47.6918711,9.6059152 47.5608894,9.67119559 C47.3982915,9.75272945 47.184948,9.79376284 46.9269699,9.79349768 L46.3924158,9.79296349 L46.3942756,8.18706605 L46.9288297,8.1878654 C47.167413,8.18813185 47.3648154,8.22996458 47.515192,8.3117649 C47.6501589,8.3855717 47.7402254,8.47243458 47.8156794,8.60059729 C47.8640337,8.68346341 47.9280633,8.82441575 47.9277984,9.0919321 C47.9275319,9.27045397 47.8850226,9.3618465 47.8438418,9.42659398 L47.8438418,9.42659398 Z M34.7462033,14.7998357 L34.747266,13.8278241 L37.9258969,13.831288 C38.5866505,13.8320873 39.1982526,13.594147 39.6488509,13.1598326 C40.1135304,12.7108634 40.3699145,12.0985601 40.3707115,11.4350982 C40.3715086,10.7713699 40.1161872,10.1580007 39.6507107,9.70636706 C39.2019722,9.27285202 38.5914327,9.03357943 37.9312106,9.03304653 L34.7525797,9.02931622 L34.7536424,8.17400997 L39.8111832,8.17987188 C40.4551987,8.18040478 41.0298709,7.96777725 41.477281,7.56703563 L41.4685135,15.4222642 C41.0211034,15.0201903 40.4472282,14.8062305 39.8037441,14.8054312 L34.7462033,14.7998357 Z M74.6148537,16.2093591 L69.9531805,5.01763681 C69.5724569,4.0133847 68.7148323,3.41387097 67.6544916,3.41280517 C66.6419738,3.41147292 65.7883345,3.99260156 65.3674927,4.97500472 L63.6163763,9.15534733 C63.5932619,8.10739733 63.3488335,7.14870827 62.883357,6.30619164 C62.3820133,5.39839464 61.6729054,4.67764591 60.7756941,4.16446216 C59.893361,3.65953837 58.8840314,3.4029465 57.7766649,3.40161425 L54.4505799,3.39788394 C53.800188,3.39708459 53.1880545,3.64141974 52.7260318,4.08745795 C52.2515221,4.54681869 51.9898243,5.17670778 51.9890273,5.86095278 L51.9887616,6.09862667 C51.483964,5.26090615 50.7844208,4.59184883 49.9058072,4.1119714 C49.0301162,3.63369267 48.0300855,3.39068977 46.9341433,3.38935752 L43.9406934,3.38589366 C43.2903016,3.38536076 42.678168,3.62969591 42.2161453,4.07546768 C42.0883518,4.19936718 41.9772964,4.33632276 41.8813848,4.48260411 C41.7838792,4.32886215 41.6701669,4.1847124 41.5373254,4.05601679 C41.0891182,3.6217024 40.4780474,3.38216336 39.8164969,3.381364 L32.3000603,3.37283563 C31.6496684,3.37203824 31.0375349,3.61663984 30.5755122,4.0624116 C30.1010024,4.52177234 29.8393047,5.15192788 29.8385077,5.83590643 L29.825753,17.1267483 C29.8249578,17.7904766 30.0789508,18.4115728 30.5399107,18.8749303 C31.0008706,19.3388207 31.6196462,19.5946133 32.2817282,19.5954126 L39.7984304,19.603939 C40.459981,19.6047384 41.0715832,19.3662651 41.5216501,18.9324837 C41.6555543,18.8029887 41.7703293,18.6577731 41.8683664,18.5026989 C41.9586986,18.6401874 42.0625806,18.7694159 42.1805438,18.8879864 C42.6417694,19.3518768 43.2605451,19.6079358 43.922627,19.6087351 C44.6051665,19.609268 45.2340381,19.3481465 45.6934039,18.8727987 C46.1381572,18.4121057 46.3833826,17.7987366 46.3841796,17.1453998 L46.3871021,14.6586169 L48.7195328,18.4368856 C48.9607729,18.8304331 49.2782641,19.1323216 49.6600505,19.3321595 C50.0171284,19.5202736 50.4084794,19.6159293 50.8237418,19.6164622 C51.5567611,19.6172616 52.1901493,19.3393536 52.6367623,18.8405582 C52.6550945,18.8600091 52.6715668,18.8807922 52.6904303,18.8997102 C53.1513902,19.3638671 53.7701658,19.6196596 54.4322478,19.620459 C55.1147873,19.6212583 55.7436589,19.3598703 56.2032904,18.8845226 C56.647778,18.4238296 56.893269,17.8107269 56.8940661,17.1573901 L56.8961915,15.1035893 L57.7633807,15.1043887 C58.8638395,15.1057209 59.8675897,14.86032 60.7459376,14.37538 C61.0974362,14.181404 61.4197096,13.954921 61.7130236,13.6993949 L60.6954578,16.128891 C60.344225,16.9194498 60.3984243,17.7529071 60.8479599,18.4765868 C61.3036061,19.2087929 62.056286,19.6289854 62.9133792,19.6300512 C63.3597266,19.6305841 63.7874761,19.5106813 64.1820153,19.2754055 C64.6251745,19.0137511 64.9604664,18.6279307 65.188688,18.1056876 L65.737589,16.764642 L69.5501395,16.7689052 L70.0820368,18.0987599 C70.2727971,18.5791702 70.6027754,18.9777802 71.0342445,19.2506256 C71.4412708,19.5090826 71.8870868,19.6401763 72.3589397,19.6407114 C73.2311769,19.641775 73.9644618,19.2487604 74.4232963,18.5354723 C74.86433,17.8509609 74.9357987,17.0332242 74.6148537,16.2093591 L74.6148537,16.2093591 Z" id="Fill-12" fill="#FFD68F"></path>
                <path d="M9.61689948,18.6708877 C8.79275094,18.6700832 7.99384229,18.5371243 7.2422252,18.2762692 C6.47971511,18.0122168 5.80195788,17.6330576 5.22781701,17.1497163 C4.62338828,16.6410622 4.17225861,16.0402163 3.88638375,15.3636983 C3.64275248,14.8526462 3.66480416,14.2600602 3.95652405,13.7593996 C4.14648736,13.4340635 4.52614831,13.0154697 5.25730781,12.8694548 C5.37075444,12.8438755 5.50784684,12.8292207 5.64228242,12.8294872 C5.96057061,12.8297536 6.27009125,12.9110211 6.56313956,13.0708914 C6.95821011,13.2869828 7.25843186,13.608855 7.4558343,14.0271824 C7.49488969,14.1089827 7.58681599,14.2430073 7.79750258,14.4047428 C8.00712643,14.5659454 8.27493486,14.7018352 8.59322304,14.8081489 C8.9149651,14.9160614 9.26061863,14.9712167 9.62115041,14.9714831 C10.0247228,14.972016 10.3958819,14.9107324 10.7237347,14.789231 C11.0074841,14.6842494 11.2232186,14.5440965 11.3839568,14.3607785 C11.4546285,14.280044 11.5359275,14.1532135 11.5361932,13.8880952 C11.5367245,13.5838087 11.4150417,13.3181575 11.1538754,13.0525063 C10.9609896,12.8566651 10.5228784,12.6006062 9.52895842,12.494026 C7.94575367,12.3389517 6.65825405,11.8428208 5.7065777,11.0208209 C4.67865033,10.1335406 4.15817741,9.01364893 4.15950583,7.69258712 C4.16083424,6.71284847 4.44750616,5.85994027 5.01234813,5.15757663 C5.54158858,4.49891088 6.2568071,3.9961187 7.13781179,3.66332197 C7.9593035,3.35290709 8.87776949,3.19623417 9.86717283,3.19729457 C10.6671442,3.19836577 11.3879421,3.31720271 12.0093745,3.55087984 C12.6339952,3.78588922 13.1898039,4.11708725 13.6616568,4.53541461 C14.1165061,4.93908718 14.5147648,5.42029687 14.8455401,5.96545469 C15.1231788,6.40376583 15.2414077,6.88444262 15.1821604,7.34753367 C15.1141456,7.87457285 14.8290678,8.32460782 14.3795322,8.61557181 C14.066292,8.81354457 13.7325942,8.91213127 13.3829554,8.91186482 C13.1882098,8.91159837 12.9910731,8.87989076 12.7968588,8.81754133 C12.3029542,8.6598026 11.9068209,8.34299291 11.6525623,7.9012179 C11.5276913,7.67420204 11.386348,7.49301567 11.2269382,7.35366203 C11.0704509,7.2169729 10.8783622,7.10559657 10.6565169,7.022464 C10.4336089,6.93959788 10.1495938,6.89696579 9.8129735,6.89669934 L9.72795496,6.89616644 C9.13707606,6.89536709 8.64768805,7.00221376 8.27679464,7.21377549 C8.05335527,7.34113885 7.98162087,7.47063382 7.9810895,7.74667658 C7.9810895,7.89748759 8.01908217,8.03550898 8.1011782,8.18179033 C8.12960628,8.23268238 8.23322263,8.36830571 8.5844555,8.53856761 C8.82277312,8.65394069 9.29914266,8.81167942 10.2184057,8.90733516 C11.7606953,9.06480743 13.0024974,9.56440221 13.9082106,10.3919976 C14.8718427,11.2736825 15.3596366,12.4346075 15.3580464,13.8425322 C15.3569798,14.656805 15.1792379,15.3874124 14.8295991,16.0130383 C14.4935102,16.6138843 14.0375982,17.12467 13.474616,17.53154 C12.9352796,17.9205578 12.3175668,18.2131205 11.6390125,18.4009681 C10.9883549,18.5808222 10.3082065,18.6716819 9.61689948,18.6708877" id="Fill-14" stroke="#373255" stroke-width="0.8" fill="#373354"></path>
                <path d="M9.61806848,17.6051659 C8.85316725,17.6043609 8.11244316,17.4815272 7.41635381,17.2398566 C6.71521648,16.9968537 6.09404972,16.6499351 5.57012293,16.2086929 C5.03078652,15.7549277 4.62907389,15.2214937 4.37614371,14.6230458 C4.20079296,14.2540117 4.21142028,13.8463424 4.41599616,13.4956935 C4.55069742,13.2644144 4.82408518,12.9665227 5.36182749,12.8591431 C5.44764309,12.8399587 5.5456801,12.8293007 5.64238869,12.8293007 C5.87061036,12.8295671 6.09511246,12.8892521 6.3095186,13.0062238 C6.60362964,13.1668935 6.82786605,13.4077648 6.97611715,13.7221765 C7.07070028,13.9201492 7.23887759,14.1135923 7.47480406,14.2947787 C7.7314538,14.4919521 8.05133608,14.6552863 8.42541768,14.7807845 C8.80109339,14.9068156 9.20333739,14.9710302 9.620991,14.9715631 C10.087796,14.972096 10.5208592,14.8996214 10.9084906,14.756271 C11.2767272,14.6198483 11.5628677,14.4314678 11.7836503,14.1799385 C11.9746763,13.9617155 12.067931,13.6920675 12.0681967,13.355807 C12.0687281,12.9084365 11.893643,12.512491 11.5328456,12.1455886 C11.1640776,11.7704262 10.5089034,11.5300878 9.58592085,11.4312347 C8.11084906,11.286552 6.92085509,10.8330532 6.0539316,10.0840607 C5.14874976,9.30256126 4.69018097,8.31882584 4.69150939,7.16003242 C4.69257212,6.30499262 4.93992295,5.56452655 5.42665413,4.95888446 C5.89558455,4.37535777 6.53455207,3.9279873 7.32575592,3.62902979 C8.0869376,3.34152965 8.94217104,3.1963141 9.86701342,3.19737408 C10.6032209,3.19817925 11.2613176,3.30555882 11.8235027,3.51685411 C12.3870163,3.72894874 12.8870316,4.026574 13.3102646,4.40173637 C13.7252613,4.76997102 14.089247,5.20988087 14.3921256,5.70947565 C14.6091885,6.05213105 14.6995207,6.40384577 14.6556831,6.74650117 C14.6073288,7.12033129 14.4123175,7.42754877 14.0919038,7.63484729 C13.8681988,7.77633253 13.6317409,7.84614257 13.3841244,7.84587612 C13.2441095,7.84587612 13.1014378,7.82269493 12.9595631,7.77713188 C12.5934519,7.66016009 12.3004036,7.42648296 12.1133628,7.1019462 C11.9619235,6.82616988 11.7831189,6.59968692 11.5766833,6.41903345 C11.371576,6.23997868 11.1247565,6.09582894 10.8428669,5.99031452 C10.5604459,5.88506656 10.214261,5.83124355 9.81414251,5.83071065 L9.73257784,5.83017774 C9.04472466,5.82937839 8.46686423,5.95967271 8.01493751,6.21759684 C7.62491493,6.43981659 7.45089259,6.74676762 7.45036123,7.21332253 C7.45009554,7.45605897 7.51173399,7.68414064 7.63873044,7.91035715 C7.75536526,8.11872148 7.99580834,8.31189813 8.35394897,8.48535743 C8.7556616,8.68039923 9.36460694,8.82135157 10.1643126,8.90448414 C11.5912958,9.05023259 12.7310757,9.50399787 13.5509733,10.2529904 C14.399299,11.0291608 14.8286427,12.0573934 14.8273173,13.3091781 C14.8262515,14.0315255 14.6713584,14.6744707 14.36662,15.2196285 C14.0685237,15.7525296 13.6644199,16.2054955 13.1646703,16.5660031 C12.676345,16.9185172 12.115754,17.1836355 11.4980411,17.3544303 C10.8944094,17.5214948 10.2618183,17.6059596 9.61806848,17.6051659" id="Fill-16" fill="#FFFFFF"></path>
                <path d="M27.2444058,18.5239894 C26.7167595,18.5234554 26.2443752,18.3284136 25.8779984,17.9599125 C25.5118873,17.5919443 25.3184701,17.1176623 25.3190014,16.588758 L25.3235181,12.6847246 L19.7327516,12.6783298 L19.7285006,16.5823632 C19.7279693,17.1040734 19.5406628,17.5735592 19.1873044,17.9396623 C18.8238502,18.315624 18.343761,18.5138632 17.7988453,18.5133303 C17.2709333,18.5127974 16.798549,18.3177556 16.4324378,17.9492545 C16.0663267,17.5812863 15.8729095,17.1070043 15.8734398,16.5781 L15.8861937,5.28725811 C15.886725,4.74103449 16.0854559,4.26009126 16.4608659,3.89665272 C16.8277741,3.54253994 17.2961731,3.35602456 17.815849,3.35655632 C18.3527943,3.35709036 18.8278354,3.5486683 19.1888985,3.91077459 C19.5512901,4.27554539 19.7417848,4.75249187 19.7409877,5.29178777 L19.7370025,9.01250319 L25.3275033,9.01863155 L25.3317542,5.29791613 C25.3322856,4.75169252 25.5310164,4.27074928 25.9066921,3.90731074 C26.2733346,3.55319796 26.7417337,3.36668258 27.2614096,3.36721548 C27.8055282,3.36774838 28.2818978,3.56385598 28.6395071,3.93475514 C28.9875517,4.29766079 29.1706073,4.77034405 29.1700771,5.30244579 L29.1575888,16.5930212 C29.1567918,17.1080701 28.9771901,17.5727599 28.6373816,17.9369978 C28.2781782,18.3217524 27.7967607,18.5245212 27.2444058,18.5239894" id="Fill-18" stroke="#373255" stroke-width="0.8" fill="#373354"></path>
                <path d="M27.2455748,17.4582675 C26.8621943,17.4577332 26.519729,17.3170473 26.2551088,17.0508632 C25.9902229,16.7849455 25.8504736,16.4409579 25.851005,16.0564698 L25.856053,11.6195353 L19.2025546,11.6120747 L19.1977724,16.0490091 C19.197241,16.429767 19.0620084,16.7710901 18.8061557,17.035942 C18.5455207,17.3058564 18.197476,17.448141 17.8000143,17.4476081 C17.4166338,17.4470752 17.0739028,17.3063893 16.8095482,17.0402052 C16.5446623,16.7742875 16.4049131,16.4302999 16.4054429,16.0458117 L16.4179316,4.75496986 C16.4184629,4.35635984 16.5611347,4.00784253 16.8305372,3.74698744 C17.0959545,3.49092847 17.43656,3.35610449 17.8156896,3.35637055 C18.2091661,3.35690384 18.5542882,3.49465878 18.8141262,3.75471451 C19.0739641,4.0166354 19.2107908,4.36328756 19.2102594,4.75816726 L19.2054772,9.01178378 L25.8589755,9.01924439 L25.8637578,4.76562788 C25.8640235,4.36701786 26.0069609,4.01850055 26.2760977,3.75764547 C26.541515,3.50158649 26.8821206,3.36676251 27.2615158,3.36702897 C27.6584462,3.36756187 28.003037,3.50771485 28.2578269,3.77203379 C28.5081003,4.03288888 28.639879,4.37714298 28.6393492,4.76882529 L28.6265949,16.0596672 C28.6263292,16.4369611 28.4958788,16.7758862 28.2498564,17.0399387 C27.9940037,17.3141163 27.6467561,17.458799 27.2455748,17.4582675" id="Fill-20" fill="#FFFFFF"></path>
                <path d="M32.28303,18.5296637 C31.7553837,18.5291308 31.2829994,18.334089 30.9166226,17.9655879 C30.5505114,17.5976197 30.3570942,17.1233377 30.3576245,16.5944334 L30.3703784,5.30359153 C30.3709098,4.75736791 30.5696406,4.27642468 30.9453163,3.91298613 C31.3119588,3.55887336 31.7803579,3.37235798 32.3000337,3.37288974 L39.8164703,3.38141729 C40.3473049,3.3819502 40.8149069,3.56340302 41.1687966,3.90632487 C41.5335793,4.26017119 41.7259337,4.73045641 41.7254035,5.26655491 C41.724871,5.79226183 41.5208265,6.27080701 41.1509958,6.61399531 C40.7989659,6.94172949 40.3358805,7.11465589 39.8124851,7.11385654 L34.2233127,7.10772818 L34.2211872,9.02883661 L37.931184,9.03283337 C38.4609558,9.03363272 38.9282922,9.21481909 39.2824476,9.55720804 C39.6480273,9.91158727 39.8406474,10.376277 39.8398504,10.901451 C39.839319,11.4266251 39.6461675,11.890249 39.2808535,12.243296 C38.9253697,12.5856849 38.4572363,12.766072 37.9269331,12.7655391 L34.2169363,12.7612759 L34.2148108,14.7990896 L39.8037175,14.8054844 C40.3265816,14.8060173 40.7891356,14.9800095 41.1411655,15.3085431 C41.5157785,15.6583926 41.7131809,16.1246811 41.7126496,16.6573157 C41.7121182,17.1931478 41.518701,17.6629001 41.1533869,18.0156806 C40.7987002,18.3580696 40.3305668,18.538723 39.7994666,18.5381913 L32.28303,18.5296637 Z" id="Fill-22" stroke="#373255" stroke-width="0.8" fill="#373354"></path>
                <path d="M32.284199,17.4639415 C31.9008185,17.4634086 31.5583532,17.3227227 31.2937329,17.0565386 C31.028847,16.7906209 30.8890978,16.4466333 30.8896277,16.0621451 L30.9023819,4.77130328 C30.9026476,4.37269326 31.0455851,4.02417595 31.3147219,3.76332086 C31.5801392,3.50726189 31.9207447,3.37243791 32.30014,3.37270397 L39.8165766,3.38123078 C40.2071305,3.38176368 40.5472047,3.5115251 40.8004006,3.7566596 C41.0586444,4.00738956 41.1949398,4.3449824 41.1946745,4.7329344 C41.1941427,5.11422513 41.0543935,5.44515671 40.790836,5.69002476 C40.5349833,5.92796509 40.2060678,6.04866719 39.8136541,6.04813429 L33.6931157,6.04120658 L33.6899276,9.02811719 L37.9310246,9.0329133 C38.3210472,9.0334462 38.6608557,9.16294117 38.9143172,9.40780922 C39.1730924,9.65907209 39.3096535,9.99080302 39.3091221,10.368097 C39.3088564,10.7451245 39.1714983,11.0763225 38.9127231,11.3265196 C38.6587302,11.5711212 38.3183904,11.7000833 37.9281021,11.6998168 L33.6867394,11.6950207 L33.6832855,14.7986367 L39.8038238,14.8055644 C40.1957062,14.8060973 40.5240903,14.9270658 40.779943,15.1655391 C41.0435005,15.4117394 41.182187,15.7429374 41.1819213,16.1236952 C41.1813899,16.5119137 41.0442975,16.8489736 40.7855223,17.0991707 C40.5317951,17.3437723 40.1911895,17.4727343 39.8006356,17.4724683 L32.284199,17.4639415 Z" id="Fill-24" fill="#FFFFFF"></path>
                <path d="M46.9269433,9.79352392 C47.2683459,9.79378948 47.5616599,9.73410456 47.7989148,9.61526762 C48.0157121,9.50682224 48.1727307,9.36880086 48.292288,9.18015388 C48.406266,9.00056621 48.4594026,8.8033928 48.4596719,8.55959055 C48.4601997,8.25716918 48.4012181,8.01523209 48.2744873,7.7986078 C48.1501477,7.58598026 47.9894095,7.43063959 47.7696897,7.31073685 C47.540671,7.18603799 47.2579843,7.12235631 46.9298658,7.12208986 L45.8642115,7.12075761 L45.8610233,9.79219078 L46.9269433,9.79352392 Z M50.8250437,18.550688 C50.4966595,18.5501538 50.1879359,18.4752812 49.9079061,18.3276676 C49.6108726,18.1720604 49.3629904,17.9354524 49.1727614,17.6250375 L46.6423969,13.5262287 L45.857038,13.5254294 L45.8533185,16.6119925 C45.8527871,17.1337027 45.6657463,17.6031885 45.312388,17.9690251 C44.9489337,18.3452533 44.4688446,18.5434925 43.9236632,18.5426931 C43.3960168,18.5421602 42.9236325,18.3473849 42.5575214,17.9786173 C42.1911446,17.6109156 41.9977274,17.1366336 41.998522,16.6074628 L42.0110115,5.31688741 C42.0118086,4.77039734 42.2105394,4.28945411 42.5859495,3.92601557 C42.9528576,3.57190279 43.4212567,3.38538741 43.9406669,3.38591917 L46.9341168,3.38938417 C47.9407895,3.39044997 48.8552702,3.61187037 49.6523191,4.04698411 C50.4629178,4.48982492 51.1056049,5.10852309 51.5628453,5.88575933 C52.0187572,6.66246267 52.24937,7.56333196 52.2483073,8.56385376 C52.2472446,9.51561511 52.0115838,10.3818458 51.5482327,11.1380325 C51.2501364,11.6243047 50.873398,12.0463624 50.4241281,12.3978107 L52.3962927,15.5898882 C52.7921603,16.2317676 52.836795,16.9261377 52.5216951,17.5453688 C52.194905,18.185383 51.5766608,18.551486 50.8250437,18.550688 L50.8250437,18.550688 Z" id="Fill-26" stroke="#373255" stroke-width="0.8" fill="#373354"></path>
                <path d="M46.9269167,9.79347242 C47.3514781,9.79400264 47.7247627,9.71513328 48.0364088,9.55925971 C48.3392874,9.4079158 48.5696345,9.20328178 48.741,8.93363383 C48.9091773,8.66824909 48.9912733,8.37168963 48.9918053,8.02716907 C48.9920704,7.63122356 48.9075832,7.29389717 48.7335609,6.99600546 C48.5603356,6.70024536 48.3281287,6.47562755 48.0241874,6.30989531 C47.7165265,6.14203146 47.3488213,6.05650084 46.9311677,6.05623439 L45.3338817,6.05436923 L45.3296308,9.79160459 L46.9269167,9.79347242 Z M50.8263455,17.484832 C50.584574,17.4845647 50.3590092,17.4302088 50.1557617,17.3230957 C49.9440124,17.2122523 49.7652078,17.0403917 49.6262556,16.8131094 L46.9391382,12.4606397 C46.9340902,12.4606397 45.3267083,12.4587745 45.3267083,12.4587745 L45.322723,16.0785052 C45.3221917,16.459263 45.1869591,16.8005862 44.9311064,17.065438 C44.6704714,17.3353524 44.3226924,17.477637 43.924965,17.4771041 C43.5415845,17.4765712 43.1991192,17.3358853 42.9344989,17.0697012 C42.669613,16.8037836 42.5298638,16.4597959 42.5303936,16.0753078 L42.5431479,4.78446593 C42.5434136,4.38585592 42.6860854,4.0373386 42.9554879,3.77648352 C43.2209052,3.52015809 43.5615107,3.38560057 43.9406403,3.38586662 L46.9340902,3.38933088 C47.8512278,3.39039668 48.6804243,3.58970169 49.398831,3.98218334 C50.1238798,4.37812885 50.6980207,4.93048083 51.105844,5.6235187 C51.5126046,6.31682302 51.7185089,7.12629978 51.7174462,8.03036648 C51.7163834,8.88220888 51.507291,9.65464901 51.0960137,10.3261044 C50.7490318,10.8923118 50.2832896,11.3588667 49.708086,11.7169762 L51.9451365,15.3377727 C52.3224063,15.9490102 52.2097567,16.453934 52.0490185,16.7699444 C51.813092,17.2317032 51.3789661,17.4853641 50.8263455,17.484832 L50.8263455,17.484832 Z" id="Fill-28" fill="#FFFFFF"></path>
                <path d="M57.7687741,10.3061214 C58.09397,10.306387 58.3620441,10.2437712 58.5881403,10.1142762 C58.8139708,9.98504768 58.9794913,9.81984835 59.1086132,9.59363183 C59.2382665,9.36661597 59.3014991,9.10336283 59.3020312,8.78868473 C59.3022961,8.43883517 59.234547,8.13668025 59.1009084,7.8912793 C58.9685983,7.64854285 58.8006867,7.47108679 58.5721993,7.33333185 C58.3506198,7.19984013 58.0886564,7.13455975 57.772228,7.1342933 L56.3739385,7.13269459 L56.370219,10.3045219 L57.7687741,10.3061214 Z M54.4336559,18.5546312 C53.9057439,18.5540972 53.4333596,18.3590554 53.0672484,17.9905543 C52.7011373,17.6228526 52.5077201,17.1483042 52.5082504,16.6193998 L52.5210043,5.3288244 C52.5215356,4.78233433 52.7202665,4.30139109 53.0956765,3.93795255 C53.4625847,3.58383977 53.9309837,3.39732439 54.4506596,3.39785615 L57.7764789,3.4015876 C58.7908564,3.4026534 59.7114479,3.63579763 60.5130134,4.09435902 C61.3241434,4.55851587 61.9655021,5.21025391 62.4192886,6.03145449 C62.865636,6.84013189 63.0914665,7.76924495 63.0904075,8.79294794 C63.089341,9.78787428 62.8595252,10.6946055 62.4075985,11.4880952 C61.9495611,12.2911772 61.3044829,12.9263953 60.4904303,13.3753644 C59.6915216,13.816873 58.7743841,14.0398921 57.7645232,14.0385598 L56.3662337,14.0369611 L56.3633112,16.623663 C56.3625142,17.1453732 56.1754734,17.6148591 55.822115,17.9809621 C55.4586608,18.3569238 54.9785716,18.555163 54.4336559,18.5546312 L54.4336559,18.5546312 Z" id="Fill-30" stroke="#373255" stroke-width="0.8" fill="#373354"></path>
                <path d="M57.7687475,10.3060964 C58.1890579,10.3066268 58.5432133,10.2208298 58.8522026,10.0441731 C59.1593321,9.8683157 59.3941958,9.63357277 59.570078,9.32582239 C59.7470228,9.0159404 59.8333698,8.66609084 59.8339035,8.25655635 C59.8344325,7.81584715 59.7448974,7.42789515 59.5679525,7.10282549 C59.390742,6.77802227 59.1550812,6.52995681 58.846889,6.34397433 C58.5400251,6.15905765 58.1890579,6.06873092 57.7735298,6.06846447 L55.8436088,6.06633286 L55.8388265,10.3039623 L57.7687475,10.3060964 Z M54.4346921,17.4890681 C54.0513116,17.4885349 53.7088462,17.347849 53.444226,17.0816649 C53.1793401,16.8154808 53.0398565,16.4717596 53.0401218,16.0872714 L53.052875,4.79642956 C53.0531407,4.3975531 53.1960781,4.04903578 53.4652149,3.7881807 C53.7308979,3.53212172 54.0712378,3.39729775 54.450633,3.39782907 L57.7764523,3.40156096 C58.6973094,3.40262676 59.5296942,3.61205689 60.2502263,4.02452233 C60.9758065,4.43938583 61.5491503,5.02237963 61.9551139,5.75671733 C62.3573579,6.48519312 62.5606053,7.32717685 62.5595468,8.2594873 C62.5584799,9.16062305 62.3523099,9.97862623 61.946612,10.6905821 C61.5379916,11.4076005 60.961991,11.9746073 60.2348167,12.3756153 C59.5153473,12.7728931 58.6845567,12.9740633 57.765825,12.9729975 L55.835904,12.9708659 L55.8324501,16.0904688 C55.8319187,16.4712267 55.6966861,16.8122834 55.4408334,17.0774017 C55.1801984,17.3473161 54.8324195,17.4893342 54.4346921,17.4890681 L54.4346921,17.4890681 Z" id="Fill-32" fill="#FFFFFF"></path>
                <path d="M68.4826519,12.1362895 L67.6704591,10.1062027 L66.8404656,12.1344243 L68.4826519,12.1362895 Z M72.360029,18.574802 C71.9901983,18.574534 71.6397625,18.4711512 71.3190832,18.267583 C70.9774149,18.0514916 70.7271416,17.7490702 70.5762336,17.3688453 L69.9101665,15.7035294 L65.3818661,15.6984668 L64.6977325,17.370444 C64.5202563,17.7762482 64.2577615,18.0797353 63.912905,18.28357 C63.6001962,18.4698189 63.2638416,18.5646753 62.9144685,18.5641424 C62.2446817,18.5636095 61.6559283,18.2345431 61.2993818,17.6616744 C60.9460234,17.093069 60.9043112,16.4365348 61.1814185,15.8130405 L65.85797,4.64849622 C66.1953873,3.86086841 66.8494988,3.41189924 67.6545181,3.41269752 C68.5039066,3.41376439 69.1635973,3.8803193 69.4638191,4.69272701 L74.1252266,15.8817848 C74.3810793,16.5393847 74.3284741,17.1687409 73.9777726,17.7133658 C73.6198976,18.2694481 73.0452254,18.5755998 72.360029,18.574802 L72.360029,18.574802 Z" id="Fill-34" stroke="#373255" stroke-width="0.8" fill="#373354"></path>
                <path d="M69.2694189,12.1371155 L67.6766495,8.1563443 L66.04881,12.1333851 L69.2694189,12.1371155 Z M72.3611715,17.5092923 C72.0930974,17.5087585 71.8383074,17.4330865 71.6037093,17.2841406 C71.3587497,17.1293329 71.1788823,16.9119092 71.0704836,16.6387974 L70.2702466,14.6382867 L65.0261963,14.6324248 L64.2065644,16.6350671 C64.0782395,16.9289621 63.8904017,17.1458528 63.6435822,17.2916013 C63.4129694,17.4288233 63.1674784,17.4988998 62.9156109,17.4986333 C62.4256915,17.497834 62.0120232,17.2665549 61.7508568,16.8466288 C61.4902218,16.4272357 61.4612624,15.9606808 61.6674324,15.4970568 L66.3485004,4.3218545 C66.6003679,3.73353169 67.0637189,3.41192588 67.6543322,3.41272375 C68.2784214,3.41325814 68.7441637,3.74445616 68.9662746,4.34503569 L73.6353869,15.5543437 C73.8237561,16.0382179 73.7862948,16.4962464 73.5317706,16.8911261 C73.271667,17.2958645 72.8667661,17.5098243 72.3611715,17.5092923 L72.3611715,17.5092923 Z" id="Fill-36" fill="#FFFFFF"></path>
            </g>
        </g>
    </g>
</svg>