<?xml version="1.0" encoding="UTF-8"?>
<svg width="30px" height="24px" viewBox="0 0 30 24" version="1.1" xmlns="http://www.w3.org/2000/svg" xmlns:xlink="http://www.w3.org/1999/xlink">
    <title>0453CC12-D55E-4EEF-8F22-95226E6DDF54</title>
    <defs>
        <path d="M5.56794449,0 C5.3040285,0 5.05504689,0.107795958 4.87402422,0.292589028 L4.87402422,0.292589028 L0.144882157,5.12030799 C-0.164440345,5.43599615 0.0542953915,5.97497594 0.491766865,5.97497594 L0.491766865,5.97497594 L24.4320161,5.97497594 C24.6960076,5.97497594 24.9449137,5.86717998 25.1259364,5.68238691 L25.1259364,5.68238691 L29.8551539,0.85466795 C30.164401,0.538979788 29.9456652,0 29.5081938,0 L29.5081938,0 L5.56794449,0 Z" id="path-1"></path>
        <linearGradient x1="90.7378952%" y1="34.1355011%" x2="35.5093318%" y2="55.643081%" id="linearGradient-3">
            <stop stop-color="#00FFA3" offset="0%"></stop>
            <stop stop-color="#DB1FFF" offset="100%"></stop>
        </linearGradient>
        <path d="M5.56794449,0 C5.31157112,0 5.06258951,0.107795958 4.87402422,0.292589028 L4.87402422,0.292589028 L0.144882157,5.12030799 C-0.164440345,5.43599615 0.0542953915,5.97497594 0.491766865,5.97497594 L0.491766865,5.97497594 L24.4320161,5.97497594 C24.6960076,5.97497594 24.9449137,5.86717998 25.1260118,5.68238691 L25.1260118,5.68238691 L29.8551539,0.85466795 C30.164401,0.538979788 29.9457407,0 29.5081938,0 L29.5081938,0 L5.56794449,0 Z" id="path-4"></path>
        <linearGradient x1="66.5910316%" y1="43.5389724%" x2="11.3624977%" y2="65.0465309%" id="linearGradient-6">
            <stop stop-color="#00FFA3" offset="0%"></stop>
            <stop stop-color="#DB1FFF" offset="100%"></stop>
        </linearGradient>
        <path d="M0.491766865,0 C0.0542953915,0 -0.164440345,0.538979788 0.144882157,0.85466795 L0.144882157,0.85466795 L4.87402422,5.68238691 C5.05504689,5.86717998 5.3040285,5.97497594 5.56794449,5.97497594 L5.56794449,5.97497594 L29.5081938,5.97497594 C29.9456652,5.97497594 30.164401,5.43599615 29.8551539,5.12030799 L29.8551539,5.12030799 L25.1260118,0.292589028 C24.9449137,0.107795958 24.6960076,0 24.4320161,0 L24.4320161,0 L0.491766865,0 Z" id="path-7"></path>
        <linearGradient x1="78.5871284%" y1="38.867358%" x2="23.3585382%" y2="60.3749411%" id="linearGradient-9">
            <stop stop-color="#00FFA3" offset="0%"></stop>
            <stop stop-color="#DB1FFF" offset="100%"></stop>
        </linearGradient>
    </defs>
    <g id="Dark" stroke="none" stroke-width="1" fill="none" fill-rule="evenodd">
        <g id="Assets" transform="translate(-196.000000, -319.000000)">
            <g id="solana" transform="translate(196.000000, 319.000000)">
                <g id="Group-3" transform="translate(0.000000, 18.025024)">
                    <mask id="mask-2" fill="white">
                        <use xlink:href="#path-1"></use>
                    </mask>
                    <g id="Clip-2"></g>
                    <path d="M5.56794449,0 C5.3040285,0 5.05504689,0.107795958 4.87402422,0.292589028 L4.87402422,0.292589028 L0.144882157,5.12030799 C-0.164440345,5.43599615 0.0542953915,5.97497594 0.491766865,5.97497594 L0.491766865,5.97497594 L24.4320161,5.97497594 C24.6960076,5.97497594 24.9449137,5.86717998 25.1259364,5.68238691 L25.1259364,5.68238691 L29.8551539,0.85466795 C30.164401,0.538979788 29.9456652,0 29.5081938,0 L29.5081938,0 L5.56794449,0 Z" id="Fill-1" fill="url(#linearGradient-3)" mask="url(#mask-2)"></path>
                </g>
                <g id="Group-6">
                    <mask id="mask-5" fill="white">
                        <use xlink:href="#path-4"></use>
                    </mask>
                    <g id="Clip-5"></g>
                    <path d="M5.56794449,0 C5.31157112,0 5.06258951,0.107795958 4.87402422,0.292589028 L4.87402422,0.292589028 L0.144882157,5.12030799 C-0.164440345,5.43599615 0.0542953915,5.97497594 0.491766865,5.97497594 L0.491766865,5.97497594 L24.4320161,5.97497594 C24.6960076,5.97497594 24.9449137,5.86717998 25.1260118,5.68238691 L25.1260118,5.68238691 L29.8551539,0.85466795 C30.164401,0.538979788 29.9457407,0 29.5081938,0 L29.5081938,0 L5.56794449,0 Z" id="Fill-4" fill="url(#linearGradient-6)" mask="url(#mask-5)"></path>
                </g>
                <g id="Group-9" transform="translate(0.000000, 8.954764)">
                    <mask id="mask-8" fill="white">
                        <use xlink:href="#path-7"></use>
                    </mask>
                    <g id="Clip-8"></g>
                    <path d="M0.491766865,0 C0.0542953915,0 -0.164440345,0.538979788 0.144882157,0.85466795 L0.144882157,0.85466795 L4.87402422,5.68238691 C5.05504689,5.86717998 5.3040285,5.97497594 5.56794449,5.97497594 L5.56794449,5.97497594 L29.5081938,5.97497594 C29.9456652,5.97497594 30.164401,5.43599615 29.8551539,5.12030799 L29.8551539,5.12030799 L25.1260118,0.292589028 C24.9449137,0.107795958 24.6960076,0 24.4320161,0 L24.4320161,0 L0.491766865,0 Z" id="Fill-7" fill="url(#linearGradient-9)" mask="url(#mask-8)"></path>
                </g>
            </g>
        </g>
    </g>
</svg>